<?xml version="1.0" encoding="utf-8"?>
<!-- Generator: Adobe Illustrator 27.5.0, SVG Export Plug-In . SVG Version: 6.00 Build 0)  -->
<svg version="1.1" xmlns="http://www.w3.org/2000/svg" xmlns:xlink="http://www.w3.org/1999/xlink" x="0px" y="0px"
	 viewBox="0 0 750 500" style="enable-background:new 0 0 750 500;" xml:space="preserve">
<g id="BACKGROUND">
	<rect style="fill:#FFFFFF;" width="750" height="500"/>
</g>
<g id="OBJECTS">
	<path style="fill:#C2E2F2;" d="M448.886,79.148C301.162,105.606,143.063,148.43,85.079,268.087
		c-56.083,115.734,74.714,230.629,180.567,191.307c47.459-17.629,87.436-53.786,134.095-73.835
		c36.621-15.736,76.256-20.794,115.386-25.127C825.688,326.037,706.295,33.046,448.886,79.148z"/>
	<g>
		<path style="fill:#C2E2F2;" d="M461.236,36.309c-4.234-4.335-11.13-5.85-16.771-3.632c-5.639,2.217-9.667,8.061-9.675,14.122
			c-0.007,6.06,4.042,11.938,9.727,14.036c5.686,2.099,12.617,0.236,16.441-4.466C464.781,51.666,467.562,42.786,461.236,36.309z"/>
		<path style="fill:#C2E2F2;" d="M671.266,59.067c-4.234-4.336-11.13-5.85-16.771-3.632c-5.639,2.217-9.668,8.061-9.675,14.122
			c-0.007,6.06,4.042,11.938,9.727,14.036c5.686,2.099,12.617,0.236,16.441-4.466C674.811,74.424,677.592,65.544,671.266,59.067z"/>
		<path style="fill:#C2E2F2;" d="M367.779,443.286c-3.333-3.412-8.761-4.604-13.201-2.858c-4.44,1.745-7.611,6.345-7.616,11.116
			c-0.006,4.77,3.181,9.396,7.657,11.049c4.475,1.651,9.931,0.185,12.941-3.517C370.569,455.375,372.758,448.385,367.779,443.286z"
			/>
		<path style="fill:#C2E2F2;" d="M49.422,359.534c-3.333-3.413-8.761-4.605-13.201-2.859c-4.44,1.745-7.611,6.345-7.616,11.116
			c-0.006,4.77,3.181,9.396,7.657,11.049c4.475,1.651,9.931,0.185,12.941-3.516C52.211,371.622,54.401,364.632,49.422,359.534z"/>
		<path style="fill:#FFFFFF;" d="M277.047,386.865c-2.252-2.306-5.919-3.11-8.919-1.932c-2.999,1.18-5.142,4.287-5.146,7.511
			c-0.003,3.223,2.15,6.349,5.174,7.465c3.023,1.116,6.709,0.126,8.743-2.375C278.932,395.033,280.411,390.309,277.047,386.865z"/>
		<path style="fill:#C2E2F2;" d="M730.098,238.641c-2.252-2.306-5.92-3.111-8.919-1.932c-3,1.18-5.143,4.288-5.146,7.511
			c-0.004,3.223,2.15,6.349,5.173,7.465c3.024,1.116,6.71,0.125,8.744-2.376C731.983,246.809,733.462,242.086,730.098,238.641z"/>
		<path style="fill:#FFFFFF;" d="M512.127,153.186c-1.42-1.454-3.732-1.961-5.624-1.218c-1.892,0.743-3.242,2.703-3.245,4.736
			c-0.002,2.032,1.355,4.003,3.263,4.707c1.906,0.704,4.23,0.079,5.512-1.498C513.315,158.336,514.248,155.358,512.127,153.186z"/>
		<path style="fill:#FFFFFF;" d="M525.435,327.588c-1.42-1.454-3.732-1.961-5.624-1.218c-1.892,0.743-3.242,2.703-3.245,4.736
			c-0.002,2.032,1.355,4.003,3.263,4.707c1.906,0.704,4.23,0.079,5.512-1.498C526.623,332.738,527.556,329.76,525.435,327.588z"/>
		<path style="fill:#FFFFFF;" d="M258.925,188.11c-1.42-1.454-3.732-1.961-5.624-1.218c-1.892,0.743-3.242,2.703-3.245,4.736
			c-0.002,2.032,1.355,4.003,3.263,4.707c1.906,0.704,4.23,0.079,5.512-1.498C260.113,193.26,261.046,190.282,258.925,188.11z"/>
		<path style="fill:#FFFFFF;" d="M542.887,128.771c-0.924-0.946-2.428-1.276-3.659-0.792c-1.231,0.483-2.109,1.758-2.111,3.081
			c-0.001,1.322,0.882,2.604,2.123,3.062c1.24,0.458,2.752,0.051,3.586-0.975C543.66,132.122,544.267,130.185,542.887,128.771z"/>
		<path style="fill:#C2E2F2;" d="M526.35,58.214c-1.42-1.454-3.732-1.962-5.624-1.218c-1.892,0.743-3.242,2.703-3.245,4.736
			c-0.002,2.032,1.355,4.003,3.263,4.707c1.906,0.704,4.23,0.079,5.512-1.498C527.539,63.364,528.471,60.386,526.35,58.214z"/>
		<path style="fill:#C2E2F2;" d="M228.709,61.638c-1.42-1.454-3.732-1.961-5.624-1.218c-1.892,0.744-3.243,2.703-3.245,4.736
			c-0.002,2.032,1.355,4.003,3.262,4.707c1.907,0.704,4.231,0.079,5.513-1.498S230.83,63.81,228.709,61.638z"/>
		<path style="fill:#C2E2F2;" d="M296.53,84.776c-1.42-1.454-3.732-1.961-5.624-1.218c-1.892,0.743-3.243,2.703-3.245,4.736
			c-0.002,2.032,1.356,4.003,3.262,4.707c1.907,0.704,4.232,0.079,5.513-1.498C297.719,89.926,298.651,86.948,296.53,84.776z"/>
		<path style="fill:#FFFFFF;" d="M128.119,281.539c-1.42-1.454-3.732-1.962-5.624-1.218c-1.891,0.743-3.242,2.703-3.245,4.736
			c-0.002,2.033,1.356,4.003,3.263,4.708c1.906,0.703,4.231,0.079,5.513-1.498C129.307,286.689,130.24,283.711,128.119,281.539z"/>
		<path style="fill:#C2E2F2;" d="M468.792,432.279c-1.42-1.454-3.732-1.962-5.624-1.219c-1.892,0.744-3.242,2.704-3.245,4.737
			c-0.002,2.032,1.355,4.003,3.263,4.707c1.906,0.704,4.23,0.079,5.512-1.498C469.98,437.428,470.913,434.451,468.792,432.279z"/>
		<path style="fill:#C2E2F2;" d="M100.429,138.044c-1.42-1.454-3.732-1.962-5.624-1.218c-1.892,0.743-3.242,2.703-3.245,4.736
			c-0.002,2.032,1.356,4.003,3.263,4.707c1.906,0.703,4.231,0.079,5.513-1.498C101.618,143.195,102.551,140.217,100.429,138.044z"/>
		<path style="fill:#C2E2F2;" d="M651.073,437.313c-1.42-1.453-3.732-1.961-5.623-1.218c-1.892,0.743-3.243,2.703-3.245,4.737
			c-0.003,2.032,1.355,4.002,3.262,4.707c1.907,0.703,4.231,0.079,5.513-1.498C652.262,442.463,653.195,439.485,651.073,437.313z"/>
	</g>
	<g>
		<path style="fill:none;stroke:#2E2854;stroke-linecap:round;stroke-linejoin:round;stroke-miterlimit:10;" d="M563.142,385.86
			c-10.008-1.385-20.084-2.772-30.177-2.307c-10.092,0.467-20.312,2.902-28.669,8.58c-8.355,5.679-14.624,14.914-15.188,25.002
			c-0.565,10.087,5.379,20.635,14.899,24.019c9.531,3.387,19.891-0.528,29.9-1.985c13.038-1.899,26.282,0.465,39.458,0.57
			c13.174,0.104,27.429-2.628,36.298-12.372c4.208-4.625,6.937-11.123,5.362-17.175c-1.301-4.993-5.264-8.864-9.526-11.771
			C592.899,389.824,577.116,387.793,563.142,385.86z"/>
		<path style="fill:none;stroke:#2E2854;stroke-linecap:round;stroke-linejoin:round;stroke-miterlimit:10;" d="M128.399,133.97
			c-0.562,25.144-5.706,51.483-22.073,70.578c-7.311,8.529-16.904,15.399-27.829,18.009c-10.927,2.61-23.209,0.552-31.775-6.716
			c-8.566-7.267-12.581-19.986-8.401-30.413c5.299-13.214,20.884-19.23,28.719-31.116c4.829-7.325,6.331-16.299,7.391-25.008
			c1.06-8.709,1.843-17.649,5.516-25.617c3.674-7.967,10.981-14.922,19.742-15.407c9.079-0.502,17.35,6.113,21.577,14.165
			C125.494,110.495,128.719,119.671,128.399,133.97z"/>
		<path style="fill:none;stroke:#2E2854;stroke-linecap:round;stroke-linejoin:round;stroke-miterlimit:10;" d="M373.892,71.375
			c-19.09,28.732-49.79,49.504-83.561,56.535c-7.962,1.659-16.759,2.454-23.773-1.661c-7.428-4.359-10.988-13.14-12.905-21.537
			c-1.871-8.196-2.519-17.35,1.909-24.497c4.018-6.485,11.464-10.036,18.833-12.003c7.37-1.968,15.071-2.71,22.236-5.326
			c18.346-6.699,30.278-24.38,46.945-34.562c6.842-4.179,15.077-7.104,22.839-5.097c9.619,2.486,16.11,12.299,17.015,22.193
			C384.337,55.314,378.964,63.74,373.892,71.375z"/>
		<path style="fill:none;stroke:#2E2854;stroke-linecap:round;stroke-linejoin:round;stroke-miterlimit:10;" d="M73.454,150.507"/>
		<path style="fill:none;stroke:#2E2854;stroke-linecap:round;stroke-linejoin:round;stroke-miterlimit:10;" d="M479.123,157.097
			c0-1.343-1.089-2.432-2.432-2.432s-2.432,1.089-2.432,2.432c0,1.343,1.089,2.432,2.432,2.432S479.123,158.44,479.123,157.097z"/>
		<path style="fill:none;stroke:#2E2854;stroke-linecap:round;stroke-linejoin:round;stroke-miterlimit:10;" d="M561.584,68.24
			c0-1.343-1.089-2.432-2.432-2.432c-1.343,0-2.432,1.089-2.432,2.432c0,1.343,1.089,2.432,2.432,2.432
			C560.495,70.672,561.584,69.583,561.584,68.24z"/>
		<path style="fill:none;stroke:#2E2854;stroke-linecap:round;stroke-linejoin:round;stroke-miterlimit:10;" d="M707.431,421.816
			c0-1.343-1.089-2.432-2.432-2.432c-1.343,0-2.432,1.089-2.432,2.432c0,1.343,1.089,2.432,2.432,2.432
			C706.342,424.249,707.431,423.16,707.431,421.816z"/>
		<path style="fill:none;stroke:#2E2854;stroke-linecap:round;stroke-linejoin:round;stroke-miterlimit:10;" d="M292.163,170.695
			c0-1.343-1.089-2.432-2.432-2.432c-1.343,0-2.432,1.089-2.432,2.432c0,1.343,1.089,2.432,2.432,2.432
			C291.074,173.127,292.163,172.038,292.163,170.695z"/>
		
			<circle style="fill:none;stroke:#2E2854;stroke-linecap:round;stroke-linejoin:round;stroke-miterlimit:10;" cx="260.182" cy="344.596" r="2.432"/>
		
			<circle style="fill:none;stroke:#2E2854;stroke-linecap:round;stroke-linejoin:round;stroke-miterlimit:10;" cx="415.326" cy="439.63" r="2.432"/>
		<path style="fill:none;stroke:#2E2854;stroke-linecap:round;stroke-linejoin:round;stroke-miterlimit:10;" d="M166.747,70.637
			c0-1.343-1.089-2.432-2.432-2.432c-1.343,0-2.432,1.089-2.432,2.432c0,1.343,1.089,2.432,2.432,2.432
			C165.658,73.069,166.747,71.98,166.747,70.637z"/>
		
			<circle style="fill:none;stroke:#2E2854;stroke-linecap:round;stroke-linejoin:round;stroke-miterlimit:10;" cx="64.42" cy="389.386" r="2.432"/>
		<path style="fill:none;stroke:#2E2854;stroke-linecap:round;stroke-linejoin:round;stroke-miterlimit:10;" d="M518.999,408.758
			c0-1.343-1.089-2.432-2.432-2.432c-1.343,0-2.432,1.089-2.432,2.432s1.089,2.432,2.432,2.432
			C517.91,411.19,518.999,410.101,518.999,408.758z"/>
		
			<circle style="fill:none;stroke:#2E2854;stroke-linecap:round;stroke-linejoin:round;stroke-miterlimit:10;" cx="663.707" cy="188.833" r="2.432"/>
	</g>
	<g>
		<path style="opacity:0.15;fill:#2E2854;" d="M730.535,291.394l-36.689,9.694c-0.729,9.699-1.587,19.585-3.346,29.195
			c-2.221,12.13-5.877,23.821-12.523,34.145c-1.76,2.735-3.768,5.396-6.46,7.22c-2.692,1.824-6.186,2.71-9.263,1.656
			c-3.928-1.345-6.3-5.532-6.798-9.652c-0.227-1.881-0.132-3.764,0.113-5.642c0.198-0.057,0.397-0.109,0.595-0.166
			c1.615-0.47,2.791-1.848,3.081-3.506c0.21-1.199,0.393-2.403,0.548-3.612c0.23-1.774-0.623-3.374-1.973-4.253
			c1.408-7.552,2.24-15.222,1.675-22.869c-0.635-8.587-3.125-17.184-8.04-24.222c2.135-0.327,4.27-0.674,6.405-1.043
			c0.453-9.067,0.214-18.168-0.693-27.201c7.577,3.389,16.044,4.791,24.305,3.956c2.67-6.797,4.394-13.774,5.256-20.785
			c9.599-1.502,18.331-7.577,24.037-15.54c6.466-9.024,9.389-20.199,10.128-31.276c0.738-11.078-0.577-22.177-1.889-33.2
			c-0.4-4.477-0.948-9.652-1.495-14.827c-0.067-0.638-0.143-1.298-0.477-1.845c-0.334-0.546-1.008-0.941-1.618-0.745
			c-0.661,0.214-0.952,0.973-1.131,1.644c-0.625,2.349-0.981,5.148-1.317,8.021c-0.697-4.268-1.688-8.859-2.992-12.982
			c-0.168-0.533-0.348-1.076-0.698-1.511c-0.349-0.436-0.908-0.747-1.457-0.649c-0.997,0.177-1.318,1.432-1.379,2.442
			c-0.254,4.205,0.287,8.484,0.601,12.941c-1.023-4.237-2.324-8.476-3.917-12.533c-0.222-0.564-0.456-1.137-0.853-1.593
			c-0.398-0.456-0.996-0.783-1.596-0.701c-0.756,0.103-1.305,0.828-1.452,1.576c-0.148,0.749,0.018,1.519,0.186,2.263
			c0.892,3.98,1.92,8.138,2.724,12.368c-1.617-3.984-3.62-8.04-5.776-11.759c-0.335-0.579-0.693-1.173-1.237-1.564
			c-0.544-0.391-1.327-0.53-1.88-0.152c-0.888,0.606-0.639,1.96-0.282,2.974c1.483,4.22,3.098,8.393,4.84,12.513
			c-1.474-0.613-2.909-0.952-4.362-1.059c-0.599-0.044-1.273-0.024-1.698,0.4c-0.409,0.406-0.448,1.081-0.23,1.615
			c0.218,0.533,0.645,0.952,1.085,1.324c1.607,1.359,3.518,2.303,5.247,3.503c1.275,0.886,2.455,1.978,3.1,3.514l0.467,1.816
			c1.142,10.512,0.142,21.298-3.529,31.214c-1.955,5.274-5.115,10.76-10.476,12.462c-0.63,0.2-1.265,0.34-1.904,0.427l-0.024,0.058
			c-0.004-0.018-0.007-0.036-0.01-0.054l0.035-0.004c-4.473,0.609-9.116-1.375-13.199-3.55c-8.248-4.392-15.99-9.702-24.162-14.217
			c-1.739-0.96-3.497-1.885-5.284-2.757c-3.853-1.88-8.234-3.573-12.794-4.835c-4.215-1.166-8.578-1.94-12.822-2.168
			c-0.125-2.116-0.25-4.232-0.375-6.348c3.474,0.341,6.966,1.189,10.336,1.911c5.181,1.108,11.061,1.703,15.349-1.409
			c2.464-1.791,4.068-4.714,4.256-7.754c0.111-1.804-0.289-3.622-1.089-5.241c0.285-0.044,0.568-0.097,0.85-0.163
			c4.268-1,7.846-4.632,8.605-8.949c0.758-4.316-1.464-9.041-5.355-11.055c-1.044-0.541-2.188-0.858-3.354-0.977
			c0.6-2.594,1.027-5.218,1.173-7.882c0.393-7.186-1.516-14.826-6.685-19.833c-4.047-3.918-9.653-5.841-15.221-6.688
			c-4.357-0.663-8.86-0.729-13.123,0.391c-4.261,1.12-8.276,3.502-10.864,7.069c-3.671-0.321-7.714-0.779-10.885,1.184
			c-2.471,1.531-3.927,4.271-4.908,7.007c-1.378,3.841-2.036,7.934-1.962,12.013c-1.031,0.495-1.976,1.164-2.758,2.001
			c-2.8,3-3.427,7.748-1.723,11.482c0.848,1.857,2.225,3.43,3.897,4.599c-0.895,2.23-1.673,4.504-1.992,6.877
			c-0.438,3.252,0.077,6.77,2.113,9.343c2.1,2.658,5.476,3.944,8.759,4.786c4.054,1.041,8.234,1.576,12.419,1.619
			c-0.189,2.207-0.378,4.414-0.567,6.621c-4.776,0.2-9.471,1.054-14.033,2.449c-7.674,2.347-14.97,6.198-21.625,10.96
			c-3.569,2.553-6.954,5.366-10.116,8.344c-12.855,12.107-22.771,26.907-33.45,40.984l-0.001,0.001c0,0,0,0,0,0.001
			c-0.476,0.628-0.954,1.254-1.434,1.879c-11.234,14.632-20.563,26.712-40.057,36.874c-1.867,0.973-3.918,1.522-6.021,1.42
			c-2.102-0.101-4.191-0.517-6.293-0.421c-0.576,0.027-1.17,0.098-1.668,0.389c-0.497,0.29-0.879,0.848-0.803,1.42
			c0.08,0.595,0.601,1.021,1.102,1.351c1.219,0.801,2.583,1.392,4.128,1.805c-3.9,2.208-7.731,4.538-11.486,6.984
			c-0.902,0.587-1.923,1.51-1.589,2.531c0.209,0.637,0.914,1.004,1.584,1.024c0.67,0.022,1.314-0.23,1.934-0.486
			c3.976-1.634,7.951-3.777,11.659-5.95c-3.214,2.863-6.479,5.681-9.611,8.292c-0.587,0.489-1.188,0.999-1.527,1.682
			c-0.34,0.683-0.346,1.592,0.191,2.134c0.425,0.43,1.099,0.537,1.692,0.416c0.594-0.119,1.129-0.431,1.647-0.744
			c3.738-2.245,7.141-5.04,10.535-7.776c-2.965,3.343-5.792,6.633-8.154,10.121c-0.568,0.839-1.078,2.029-0.395,2.777
			c0.377,0.412,1.01,0.507,1.551,0.373c0.542-0.133,1.017-0.454,1.474-0.773c3.547-2.474,6.833-5.706,9.985-8.666
			c-1.482,2.484-2.609,5.114-3.545,7.358c-0.267,0.642-0.5,1.421-0.105,1.992c0.362,0.527,1.139,0.626,1.737,0.396
			c0.598-0.228,1.06-0.707,1.501-1.171c3.587-3.769,7.177-7.539,10.159-10.615c17.037-8.273,33.108-18.524,47.816-30.455
			c2.359,2.665,4.845,5.218,7.471,7.627c3.615-2.749,7.14-5.613,10.591-8.564c-0.445,5.174-0.828,10.406-1.154,15.71
			c1.663,0.233,3.329,0.443,4.995,0.649c-3.467,16.367-5.562,33.034-6.155,49.749c-1.105,0.407-1.962,1.368-2.142,2.597
			c-0.152,1.051-0.28,2.105-0.4,3.161c-0.182,1.61,0.824,3.101,2.348,3.557c-0.021,11.116,0.632,22.23,1.999,33.266
			c1.076,8.701,2.768,17.753,8.203,24.633c8.487,10.743,24.874,13.256,37.35,7.618c7.101-3.21,12.926-8.608,17.275-15.102
			c5.441,5.397,12.025,9.43,19.524,11.147c13.321,3.049,27.611-1.698,38.274-10.25c10.66-8.551,18.085-20.527,23.684-32.994
			c6.573-14.635,10.89-30.276,12.798-46.204h0c0.767-6.401,1.145-12.848,1.124-19.295
			C716.593,311.522,730.535,291.394,730.535,291.394z"/>
		<g>
			<g>
				<g>
					<g>
						<path style="fill:#D17162;" d="M632.694,385.442c-2.732,13.415-10.561,26.267-22.694,32.61
							c-12.133,6.342-28.637,4.77-37.724-5.47c-5.82-6.558-8.026-15.499-9.598-24.124c-2.269-12.44-3.623-25.034-4.113-37.666
							l63.655-2.788L632.694,385.442z"/>
						<path style="fill:#C45D4D;" d="M632.694,385.442l-3.474-12.418c-5.259-5.344-10.032-11.641-14.083-18.33
							c3.217-2.053,5.455-4.372,6.992-6.686l-19.202,0.841l-1.707,0.075l0,0l-42.654,1.868c0.1,2.59,0.247,5.178,0.42,7.763
							c4.685,1.398,22.656,5.998,42.878,1.317c2.09,17.572,9.274,35.143,20.097,48.402
							C627.36,401.815,631.004,393.738,632.694,385.442z"/>
					</g>
					<g>
						<path style="fill:#5767BF;" d="M562.177,293.146c-3.096,19.031-4.36,38.383-3.612,57.646l50.915-0.83l-6.098-63.388
							L562.177,293.146z"/>
						<path style="fill:none;stroke:#2E2854;stroke-linecap:round;stroke-linejoin:round;stroke-miterlimit:10;" d="
							M569.157,306.571c-0.12,4.835-1.819,9.618-4.777,13.445"/>
						<path style="opacity:0.15;fill:#2E2854;" d="M601.224,350.096l8.256-0.134l-0.712-7.402
							c-2.002-4.496-3.648-9.021-4.839-13.428C602.025,335.775,601.167,342.867,601.224,350.096z"/>
						<g>
							<path style="fill:#6979D1;" d="M606.421,344.596c-15.345,1.388-30.807,1.481-46.569,1.163
								c-1.744-0.035-3.247,1.269-3.4,3.005c-0.092,1.058-0.159,2.118-0.219,3.179c-0.096,1.727,1.145,3.257,2.86,3.491
								c16.005,2.18,32.321,2.066,48.294-0.342L606.421,344.596z"/>
							<path style="opacity:0.15;fill:#2E2854;" d="M601.336,345.004c-0.194,3.585-0.145,7.221,0.127,10.873
								c1.979-0.227,3.954-0.488,5.924-0.785l-0.966-10.496C604.728,344.749,603.032,344.881,601.336,345.004z"/>
						</g>
						<path style="opacity:0.15;fill:#2E2854;" d="M604.875,302.103l-1.494-15.529l-41.205,6.572
							c-0.468,2.873-0.879,5.755-1.262,8.642C575.581,303.002,590.282,303.107,604.875,302.103z"/>
					</g>
				</g>
				<g>
					<g>
						<path style="fill:#D17162;" d="M658.503,341.12c-0.645,4.1-1.415,8.284-0.683,12.37c0.733,4.085,3.341,8.13,7.339,9.248
							c3.132,0.876,6.57-0.208,9.153-2.183c2.584-1.975,4.436-4.746,6.037-7.577c6.044-10.687,9.027-22.568,10.55-34.806
							l13.11-2.917l12.023,3.169c-0.995,16.011-4.41,31.873-10.136,46.86c-4.877,12.767-11.605,25.148-21.759,34.294
							c-10.156,9.147-24.151,14.704-37.625,12.421c-16.681-2.827-29.603-17.065-35.68-32.854
							c-3.491-9.071-5.125-18.643-5.956-28.353l26.493-7.251L658.503,341.12z"/>
						<path style="fill:#C45D4D;" d="M658.503,341.12l-27.133,2.421l-26.493,7.251c0.242,2.836,0.565,5.657,0.971,8.46
							c6.047,0.087,38.74,0.15,51.71-8.277C657.41,347.697,657.99,344.383,658.503,341.12z"/>
					</g>
					<g>
						<path style="fill:#5767BF;" d="M658.503,341.12c1.45-9.207,2.277-18.602,1.06-27.843c-1.218-9.24-4.6-18.373-10.768-25.36
							l-45.414-1.343l0.547,42.558c0.16,7.198,0.334,14.467,0.949,21.66L658.503,341.12z"/>
						<path style="fill:none;stroke:#2E2854;stroke-linecap:round;stroke-linejoin:round;stroke-miterlimit:10;" d="
							M632.815,301.102c0.007,4.348,2.021,8.65,5.353,11.443c3.332,2.792,7.92,4.022,12.203,3.269"/>
						<path style="fill:#6979D1;" d="M661.07,343.975c0.141-1.209,0.255-2.422,0.341-3.637c0.213-2.968-2.528-5.299-5.416-4.585
							c-16.315,4.029-32.824,6.983-49.453,8.624c-2.403,0.238-4.149,2.393-3.909,4.794c0.129,1.293,0.271,2.615,0.436,3.947
							c0.281,2.277,2.255,3.949,4.548,3.867c17.083-0.608,34.096-3.498,50.578-9.334C659.78,347.089,660.876,345.646,661.07,343.975
							z"/>
						<path style="opacity:0.15;fill:#2E2854;" d="M648.795,287.917l-45.414-1.343l0.201,15.621
							c16.849-1.083,33.555-3.645,49.897-7.681C652.141,292.168,650.589,289.95,648.795,287.917z"/>
					</g>
					<path style="fill:#2E2854;" d="M716.033,318.424c-8.166,2.341-17.017,2.258-25.133-0.252
						c1.207-9.695,1.498-19.613,1.672-29.338l36.075-11.776c0,0-12.769,20.892-12.594,22.039
						C716.441,305.532,716.432,311.99,716.033,318.424z"/>
				</g>
			</g>
			<g>
				<path style="fill:#5767BF;" d="M603.893,184.147c-6.293,1.109-12.79,1.046-19.059-0.187c-3.326-0.653-6.77-1.744-9.018-4.278
					c-2.18-2.453-2.895-5.935-2.644-9.207c0.251-3.271,1.37-6.406,2.476-9.494c0,0-0.191-13.174-1.08-13.221
					c-0.709-4.817-0.358-9.787,1.021-14.456c0.823-2.788,2.12-5.607,4.499-7.276c3.054-2.141,7.116-1.915,10.799-1.804
					c2.379-3.709,6.252-6.316,10.442-7.678c4.191-1.362,8.691-1.553,13.079-1.141c5.607,0.527,11.315,2.126,15.578,5.807
					c5.447,4.703,7.79,12.222,7.808,19.418c0.018,7.196-2.009,14.22-4.018,21.131c0,0,1.247,3.331,1.41,5.112
					c2.342,1.948,3.752,4.97,3.74,8.016c-0.014,3.045-1.449,6.056-3.806,7.984c-4.102,3.352-10.007,3.095-15.243,2.284
					C614.641,184.345,609.099,183.229,603.893,184.147z"/>
				<g>
					<path style="fill:#D17162;" d="M597.445,180.643c-0.174,6.113-0.345,12.226-0.518,18.339c0,0,13.896-0.419,14.247-0.37
						c-0.73-6.245-1.459-12.49-2.189-18.735L597.445,180.643z"/>
					<path style="fill:#C45D4D;" d="M609.794,186.798c-0.269-2.307-0.539-4.614-0.809-6.921l-11.541,0.766
						c-0.053,1.88-0.106,3.761-0.159,5.641C601.315,187.533,605.675,187.71,609.794,186.798z"/>
				</g>
				<g>
					<g>
						<path style="fill:#D17162;" d="M628.724,152.407c2.561-3.557,7.754-4.847,11.756-3.058c4,1.789,6.488,6.378,5.979,10.731
							c-0.511,4.353-3.876,8.184-8.079,9.426c-4.202,1.242-9.011-0.076-12.128-3.156L628.724,152.407z"/>
						<g>
							<path style="fill:none;stroke:#2E2854;stroke-linecap:round;stroke-linejoin:round;stroke-miterlimit:10;" d="
								M632.88,156.029c2.678-0.958,5.847-0.382,8.016,1.456"/>
							<path style="fill:none;stroke:#2E2854;stroke-linecap:round;stroke-linejoin:round;stroke-miterlimit:10;" d="
								M637.659,155.836c-0.317,2.279-1.224,4.474-2.627,6.299"/>
						</g>
					</g>
					<path style="fill:#D17162;" d="M582.816,144.987c-3.702-1.775-8.513-0.578-11.138,2.578c-2.624,3.155-2.979,7.932-1.064,11.561
						c1.915,3.63,5.899,6.002,9.999,6.21L582.816,144.987z"/>
					<g>
						<path style="fill:#D17162;" d="M629.365,151.628c0.512,5.785-0.446,11.739-3.046,16.932
							c-2.601,5.194-6.877,9.588-12.143,12.041c-6.496,3.024-14.177,2.958-20.972,0.684c-4.098-1.371-8.059-3.62-10.556-7.148
							c-2.486-3.512-3.291-7.93-3.653-12.217c-0.467-5.527-0.282-11.241,1.763-16.399c2.044-5.158,6.193-9.703,11.553-11.133
							c5.36-1.429,11.591,1.034,14.405,5.993C610.888,147.735,620.031,151.744,629.365,151.628z"/>
						<g>
							<path style="fill:#EB897A;" d="M624.107,172.222c-0.058-0.13-0.104-0.266-0.173-0.392c-1.153-2.116-3.696-3.378-6.08-3.022
								c-2.384,0.356-4.676,2.277-4.886,5.523c-0.138,2.144,1.051,4.293,2.887,5.39C619.11,177.874,621.924,175.277,624.107,172.222
								z"/>
							<path style="fill:#EB897A;" d="M589.526,168.454c-0.211-3.246-2.503-5.167-4.886-5.523c-1.948-0.291-3.99,0.51-5.305,1.963
								c0.486,3.302,1.4,6.54,3.312,9.241c0.104,0.147,0.225,0.279,0.334,0.421c1.001,0.132,2.03,0.034,2.963-0.353
								C588.171,173.281,589.681,170.859,589.526,168.454z"/>
						</g>
						<g>
							<path style="fill:none;stroke:#2E2854;stroke-linecap:round;stroke-linejoin:round;stroke-miterlimit:10;" d="
								M584.318,152.149c2.893-1.394,6.65-0.711,8.868,1.61"/>
							<path style="fill:none;stroke:#2E2854;stroke-linecap:round;stroke-linejoin:round;stroke-miterlimit:10;" d="
								M612.957,157.785c2.299-1.722,5.785-1.619,7.979,0.238"/>
							<path style="fill:none;stroke:#2E2854;stroke-linecap:round;stroke-linejoin:round;stroke-miterlimit:10;" d="
								M600.148,154.314c-1.681,1.853-3.006,4.029-3.655,6.502c2.093,0.29,4.186,0.579,6.277,0.869"/>
							<path style="fill:none;stroke:#2E2854;stroke-linecap:round;stroke-linejoin:round;stroke-miterlimit:10;" d="
								M597.294,165.936c5.644,1.46,11.847,0.627,16.905-2.272"/>
						</g>
					</g>
				</g>
			</g>
			<g>
				<g>
					<g>
						<g>
							<path style="fill:#D17162;" d="M543.705,277.508c-15.211,14.597-32.298,27.237-50.706,37.515
								c-2.802,3.241-6.17,7.21-9.536,11.178c-0.414,0.489-0.848,0.993-1.432,1.255c-0.584,0.264-1.365,0.21-1.757-0.296
								c-0.427-0.548-0.239-1.339-0.009-1.995c0.806-2.294,1.781-4.984,3.119-7.549c-2.978,3.135-6.074,6.55-9.474,9.223
								c-0.439,0.345-0.894,0.692-1.428,0.856c-0.533,0.164-1.17,0.106-1.57-0.284c-0.724-0.708-0.283-1.925,0.236-2.795
								c2.159-3.618,4.793-7.064,7.562-10.571c-3.232,2.926-6.47,5.911-10.073,8.366c-0.5,0.342-1.016,0.684-1.602,0.837
								c-0.585,0.154-1.264,0.086-1.713-0.319c-0.567-0.511-0.613-1.419-0.313-2.12c0.299-0.701,0.87-1.244,1.428-1.766
								c2.977-2.786,6.076-5.786,9.121-8.828c-3.578,2.381-7.424,4.748-11.3,6.607c-0.604,0.291-1.233,0.58-1.903,0.596
								c-0.67,0.018-1.395-0.308-1.64-0.932c-0.392-1.001,0.575-1.98,1.442-2.618c4.837-3.561,9.824-6.922,14.941-10.068
								l5.325-4.063c18.881-11.26,27.504-23.854,37.883-39.104c0.443-0.651,0.885-1.305,1.325-1.959L543.705,277.508z"/>
							<g>
								<path style="fill:none;stroke:#2E2854;stroke-linecap:round;stroke-linejoin:round;stroke-miterlimit:10;" d="
									M485.464,318.695c-4.305-1.955-7.991-5.244-10.422-9.299"/>
								<path style="fill:none;stroke:#2E2854;stroke-linecap:round;stroke-linejoin:round;stroke-miterlimit:10;" d="
									M492.999,315.023c-2.802,3.241-6.17,7.21-9.536,11.178c-0.414,0.489-0.848,0.993-1.432,1.255
									c-0.584,0.264-1.365,0.21-1.757-0.296c-0.427-0.548-0.239-1.339-0.009-1.995c0.806-2.294,1.781-4.984,3.119-7.549
									c-2.978,3.135-6.074,6.55-9.474,9.223c-0.439,0.345-0.894,0.692-1.428,0.856c-0.533,0.164-1.17,0.106-1.57-0.284
									c-0.724-0.708-0.283-1.925,0.236-2.795c2.159-3.618,4.793-7.064,7.562-10.571c-3.232,2.926-6.47,5.911-10.073,8.366
									c-0.5,0.342-1.016,0.684-1.602,0.837c-0.585,0.154-1.264,0.086-1.713-0.319c-0.567-0.511-0.613-1.419-0.313-2.12
									c0.299-0.701,0.87-1.244,1.428-1.766c2.977-2.786,6.076-5.786,9.121-8.828c-3.578,2.381-7.424,4.748-11.3,6.607
									c-0.604,0.291-1.233,0.58-1.903,0.596c-0.67,0.018-1.395-0.308-1.64-0.932c-0.392-1.001,0.575-1.98,1.442-2.618
									c4.837-3.561,9.824-6.922,14.941-10.068"/>
							</g>
							<path style="fill:#C45D4D;" d="M493.638,314.652c18.162-10.212,35.034-22.718,50.067-37.144l-6.283-5.361
								c-1.989,2.511-4.051,4.933-6.196,7.236C519.51,291.962,506.575,303.332,493.638,314.652z"/>
						</g>
						<g>
							<path style="fill:#D17162;" d="M482.423,299.737c-1.808,1.078-3.825,1.743-5.93,1.762c-2.104,0.019-4.214-0.277-6.307-0.06
								c-0.573,0.06-1.162,0.165-1.643,0.484c-0.48,0.318-0.829,0.897-0.72,1.464c0.114,0.589,0.658,0.985,1.177,1.286
								c1.918,1.109,4.098,1.763,6.806,1.92c2.551,2.808,6.611,4.155,10.335,3.427"/>
							<path style="fill:none;stroke:#2E2854;stroke-linecap:round;stroke-linejoin:round;stroke-miterlimit:10;" d="
								M482.423,299.737c-1.808,1.078-3.825,1.743-5.93,1.762c-2.104,0.019-4.214-0.277-6.307-0.06
								c-0.573,0.06-1.162,0.165-1.643,0.484c-0.48,0.318-0.829,0.897-0.72,1.464c0.114,0.589,0.658,0.985,1.177,1.286
								c1.918,1.109,4.098,1.763,6.806,1.92c2.551,2.808,6.611,4.155,10.335,3.427"/>
						</g>
					</g>
					<g>
						<path style="fill:#7B478F;" d="M562.305,206.935c-3.417,2.753-6.636,5.755-9.622,8.909
							c-12.142,12.822-21.195,28.165-31.052,42.83l-0.001,0.001c6.371,11.613,14.978,21.996,25.26,30.397
							c5.503-4.705,10.791-9.661,15.841-14.849L562.305,206.935z"/>
						<path style="opacity:0.15;fill:#2E2854;" d="M533.921,276.371c3.944,4.594,8.272,8.863,12.969,12.7
							c5.503-4.705,10.791-9.661,15.841-14.849l-0.139-22.012c-1.207-9.306-2.358-18.007-2.358-18.007
							C553.269,248.854,544.63,264.014,533.921,276.371z"/>
					</g>
				</g>
				<g>
					<g>
						<g>
							<path style="fill:#D17162;" d="M678.938,243.117c11.065-0.897,21.022-8.088,26.962-17.467
								c5.939-9.379,8.219-20.703,8.323-31.804c0.104-11.102-1.844-22.108-3.784-33.038c-0.655-4.447-1.498-9.582-2.34-14.717
								c-0.103-0.633-0.217-1.288-0.582-1.815c-0.365-0.526-1.06-0.882-1.658-0.651c-0.648,0.251-0.895,1.026-1.035,1.706
								c-0.49,2.381-0.685,5.196-0.857,8.083c-0.94-4.221-2.191-8.748-3.729-12.79c-0.198-0.522-0.409-1.054-0.783-1.469
								c-0.373-0.415-0.949-0.694-1.492-0.565c-0.985,0.234-1.234,1.505-1.237,2.517c-0.013,4.213,0.772,8.454,1.34,12.886
								c-1.264-4.172-2.805-8.329-4.627-12.289c-0.254-0.55-0.52-1.109-0.943-1.542c-0.423-0.433-1.039-0.725-1.633-0.609
								c-0.749,0.146-1.256,0.901-1.36,1.656c-0.105,0.756,0.105,1.515,0.315,2.249c1.118,3.922,2.382,8.015,3.426,12.192
								c-1.842-3.885-4.073-7.82-6.438-11.41c-0.368-0.559-0.759-1.131-1.324-1.491c-0.565-0.359-1.355-0.453-1.886-0.044
								c-0.852,0.656-0.526,1.993-0.112,2.985c2.312,5.545,4.856,10.992,7.623,16.325l2.164,6.779
								c1.741,10.43,1.359,21.255-1.739,31.365c-1.65,5.377-4.491,11.035-9.746,13.04c-0.617,0.236-1.244,0.412-1.877,0.535
								l-4.89,14.027L678.938,243.117z"/>
							<g>
								<path style="fill:none;stroke:#2E2854;stroke-linecap:round;stroke-linejoin:round;stroke-miterlimit:10;" d="
									M705.949,153.555c-4.696-0.541-9.551,0.381-13.722,2.605"/>
								<path style="fill:none;stroke:#2E2854;stroke-linecap:round;stroke-linejoin:round;stroke-miterlimit:10;" d="
									M710.439,160.808c-0.655-4.447-1.498-9.582-2.34-14.717c-0.103-0.633-0.217-1.288-0.582-1.815
									c-0.365-0.526-1.06-0.882-1.658-0.651c-0.648,0.251-0.895,1.026-1.035,1.706c-0.49,2.381-0.685,5.196-0.857,8.083
									c-0.94-4.221-2.191-8.748-3.729-12.79c-0.198-0.522-0.409-1.054-0.783-1.469c-0.373-0.415-0.949-0.694-1.492-0.565
									c-0.985,0.234-1.234,1.505-1.237,2.517c-0.013,4.213,0.772,8.454,1.34,12.886c-1.264-4.172-2.805-8.329-4.627-12.289
									c-0.254-0.55-0.52-1.109-0.943-1.542c-0.423-0.433-1.039-0.725-1.633-0.609c-0.749,0.146-1.256,0.901-1.36,1.656
									c-0.105,0.756,0.105,1.515,0.315,2.249c1.118,3.922,2.382,8.015,3.426,12.192c-1.842-3.885-4.073-7.82-6.438-11.41
									c-0.368-0.559-0.759-1.131-1.324-1.491c-0.565-0.359-1.355-0.453-1.886-0.044c-0.852,0.656-0.526,1.993-0.112,2.985
									c2.312,5.545,4.856,10.992,7.623,16.325"/>
							</g>
							<path style="fill:#C45D4D;" d="M678.938,243.117c11.065-0.897,21.022-8.088,26.962-17.467
								c4.669-7.373,7.069-15.949,7.936-24.673c-2.951,5.35-6.074,10.601-9.795,15.439c-5.179,6.737-11.612,12.702-19.367,16.178
								c-2.569,1.151-5.193,1.854-7.851,2.235L678.938,243.117z"/>
						</g>
						<g>
							<path style="fill:#D17162;" d="M702.063,161.34c-2.817-2.542-6.992-3.478-10.626-2.384c-2.401-1.259-4.606-1.822-6.821-1.858
								c-0.601-0.01-1.272,0.049-1.672,0.496c-0.385,0.429-0.385,1.105-0.137,1.625c0.248,0.52,0.698,0.914,1.159,1.26
								c1.682,1.265,3.644,2.098,5.439,3.197c1.794,1.1,3.442,2.581,3.866,5.118"/>
							<path style="fill:none;stroke:#2E2854;stroke-linecap:round;stroke-linejoin:round;stroke-miterlimit:10;" d="
								M702.063,161.34c-2.817-2.542-6.992-3.478-10.626-2.384c-2.401-1.259-4.606-1.822-6.821-1.858
								c-0.601-0.01-1.272,0.049-1.672,0.496c-0.385,0.429-0.385,1.105-0.137,1.625c0.248,0.52,0.698,0.914,1.159,1.26
								c1.682,1.265,3.644,2.098,5.439,3.197c1.794,1.1,3.442,2.581,3.866,5.118"/>
						</g>
					</g>
					<g>
						<path style="fill:#7B478F;" d="M649.253,258.798c8.98,4.679,19.478,6.385,29.478,4.792c5.427-16.539,5.498-33.792,1.144-49.85
							l0.034-0.006c-4.431,0.864-9.18-0.852-13.38-2.789c-8.486-3.913-16.518-8.772-24.935-12.812c0,0-3.497,20.529-2.047,34.112
							C640.997,245.827,649.253,258.798,649.253,258.798z"/>
						<path style="opacity:0.15;fill:#2E2854;" d="M646.159,229.064c0.205,5.377-0.593,13.696-0.689,20.812
							c-0.003,0.71,0.045,1.415,0.117,2.117c1.981,4.154,3.666,6.805,3.666,6.805c8.98,4.679,19.478,6.385,29.478,4.792
							c3.274-9.978,4.586-20.213,4.166-30.291C671.148,237.649,658.398,233.641,646.159,229.064z"/>
					</g>
				</g>
				<g>
					<path style="fill:#7B478F;" d="M646.159,229.064l-4.565-30.932c-1.791-0.859-3.599-1.682-5.433-2.45
						c-3.954-1.657-8.425-3.097-13.049-4.095l0,0l-18.991,8.349l-20.852-5.18l0,0c-7.527,2.782-14.591,7.044-20.963,12.179
						l-2.072,27.268c-2.362,20.015-3.424,40.183-3.514,61.463c33.118,2.722,66.664,0.173,99.766-7.519
						C656.34,268.063,652.835,248.007,646.159,229.064z"/>
					<path style="fill:#D17162;" d="M597.711,206.492c6.564,2.157,14.401,1.116,19.379-3.675c3.112-2.995,4.81-7.022,6.021-11.23
						c-7.6-1.641-15.614-2.086-22.435-0.317c-6,0.173-11.831,1.425-17.409,3.487C586.382,199.934,591.51,204.454,597.711,206.492z"
						/>
					<path style="fill:#FFFFFF;" d="M622.939,232.728c-3.953-8.48-13.66-13.885-22.951-12.777
						c-9.29,1.106-17.456,8.64-19.306,17.812c-1.849,9.171,2.758,19.281,10.894,23.902c8.134,4.622,19.177,3.402,26.108-2.883
						C624.615,252.497,627.054,241.557,622.939,232.728z"/>
				</g>
			</g>
		</g>
	</g>
	<g>
		<g style="opacity:0.15;">
			<path style="fill:#2E2854;" d="M304.755,219.846c-0.724-0.586-1.772,0.059-2.448,0.698c-1.829,1.73-3.493,3.656-5.8,5.545
				c2.19-3.873,4.346-7.827,5.974-11.968c0.257-0.656,0.505-1.351,0.404-2.048c-0.101-0.697-0.67-1.377-1.374-1.352
				c-0.595,0.022-1.056,0.507-1.439,0.962c-3.008,3.567-5.012,7.08-7.783,11.207c2.12-4.197,3.294-8.177,4.716-12.66
				c0.156-0.494,0.311-1.008,0.252-1.523c-0.06-0.515-0.39-1.036-0.897-1.152c-0.725-0.165-1.342,0.515-1.768,1.125
				c-2.565,3.677-4.553,7.552-7.234,11.988c1.781-4.325,2.841-8.822,3.718-13.417c0.168-0.88,0.19-2.029-0.624-2.403
				c-0.493-0.226-1.096-0.021-1.489,0.351c-0.394,0.373-0.62,0.883-0.836,1.38c-1.949,4.499-3.713,9.089-5.43,13.868
				c-0.646-2.438-1.484-4.599-2.704-6.508c-0.214-0.335-0.446-0.669-0.768-0.9c-0.323-0.232-0.757-0.343-1.125-0.194
				c-0.383,0.156-0.617,0.564-0.679,0.973c-0.063,0.41,0.018,0.825,0.097,1.231c0.579,2.958,1.157,5.916,1.736,8.874
				c-5.103,13.917-12.559,26.992-21.977,38.459c-1.612,1.963-3.47,3.993-5.961,4.486c-2.599,0.515-5.29-0.848-7.043-2.834
				c-1.752-1.988-2.738-4.522-3.628-7.017c-2.298-6.441-4.196-13.025-5.679-19.701c-1.658-7.465-2.87-15.241-6.843-21.775
				c-3.459-5.689-8.786-9.977-14.779-12.981c-2.097-1.051-4.276-1.945-6.485-2.687c-3.86-1.296-7.83-2.164-11.848-2.814
				c-2.459-0.398-4.936-0.712-7.419-0.984c-0.097-3.91-0.195-7.821-0.292-11.732c1.151-0.184,2.29-0.454,3.407-0.823
				c5.323-1.76,9.807-5.525,12.973-10.184c0.741,0.409,1.576,0.643,2.439,0.732c0.028,0.701,0.326,1.395,0.853,1.861
				c0.833,0.735,2.159,0.838,3.095,0.24c1.038-0.663,1.316-1.896,1.08-2.845c-0.036-0.145-0.091-0.284-0.154-0.418
				c2.047-1.277,3.574-3.335,4.671-5.511c1.027-2.035,1.758-4.281,1.655-6.558c-0.103-2.278-1.144-4.589-3.051-5.837
				c-0.39-0.255-0.823-0.44-1.269-0.583c1.534-3.561,2.305-7.452,2.193-11.328c-0.044-1.526-0.229-3.079-0.873-4.463
				c-0.644-1.385-1.808-2.589-3.284-2.982c-0.312-5.157-2.623-10.127-6.264-13.588c-3.641-3.461-8.506-5.48-13.479-6.182
				c-4.975-0.703-10.064-0.15-14.943,1.042c-2.847,0.696-5.664,1.624-8.22,3.047c0.06-3.305-0.813-6.573-1.931-9.254
				c-1.568-3.755-4.779-6.767-8.591-8.188c-3.813-1.422-8.17-1.26-11.909,0.345c-6.042,2.593-10.203,9.053-10.066,15.627
				c0.138,6.573,4.565,12.854,10.71,15.192c0.241,0.092,0.488,0.166,0.734,0.246c-0.205,0.301-0.4,0.609-0.582,0.925
				c-2.697,4.675-2.762,10.295-1.558,15.941c-0.984,0.509-1.873,1.179-2.613,1.997c-2.779,3.075-3.391,7.842-1.718,11.636
				c1.612,3.655,5.18,6.29,9.102,7.06c-0.243,0.924,0.051,1.987,0.772,2.624c0.833,0.735,2.159,0.838,3.095,0.24
				c1.028-0.657,1.309-1.872,1.085-2.818c1.758-0.304,3.458-0.941,5.011-1.836c1.62,2.929,3.56,5.571,5.794,7.646
				c2.859,2.656,6.327,4.689,10.035,5.925l-0.961,10.433c-3.205-0.693-6.488-1.059-9.812-1.156l0,0
				c-8.653-0.25-17.584,1.328-26.131,3.734c-1.23,0.346-2.455,0.71-3.675,1.087c0.001,0.002,0.002,0.003,0.003,0.005l-0.005-0.004
				c-12.508,3.868-24.523,9.23-36.85,13.673c-6.972,2.512-14.524,4.752-21.689,2.867c-7.984-2.099-13.927-9.043-17.205-16.62
				c-3.279-7.577-4.368-15.882-5.954-23.984c2.794-2.875,5.085-5.792,7.041-8.919c0.223-0.356,0.434-0.85,0.15-1.162
				c-0.267-0.292-0.746-0.165-1.107-0.004c-2.147,0.958-4.063,2.426-5.549,4.249c-0.264-0.071-0.53-0.124-0.798-0.165
				c0.219-5.843,0.295-11.441,0.113-17.026c-0.019-0.542-0.042-1.099-0.271-1.59c-0.228-0.491-0.715-0.904-1.257-0.874
				c-0.894,0.049-1.296,1.126-1.463,2.006c-0.872,4.595-1.613,9.495-1.545,14.171c-0.864-5.111-1.215-9.772-2.252-14.134
				c-0.172-0.724-0.497-1.584-1.232-1.696c-0.513-0.078-1.012,0.285-1.257,0.742c-0.245,0.458-0.289,0.992-0.325,1.51
				c-0.324,4.69-0.559,9.414-0.128,14.096c-1.063-4.856-1.772-9.45-3.26-13.872c-0.19-0.565-0.439-1.185-0.985-1.425
				c-0.645-0.282-1.424,0.143-1.774,0.754c-0.349,0.612-0.375,1.349-0.376,2.054c-0.006,4.449,0.86,9.717,1.474,14.123
				c-1.453-2.603-2.605-5.804-3.67-8.085c-0.394-0.844-1.132-1.828-2.02-1.548c-0.873,0.273-0.936,1.47-0.82,2.377
				c0.585,4.644,1.288,9.274,2.628,15.094c1.997,12.689,2.987,25.657,7.191,37.796c4.204,12.138,12.273,23.693,24.206,28.449
				c12.301,4.903,26.214,1.822,38.913-1.936c10.209-3.021,20.727-6.472,31.227-6.463c-1.683,6.253-3.59,12.456-4.423,18.869
				c-1.241,9.55,0.099,19.523,4.019,30.096c-4.889,22.642-2.77,45.276-11.019,66.921c-0.957,2.51-2.07,5.011-3.819,7.052
				c-1.749,2.039-4.227,3.585-6.911,3.681c-4.961,0.177-8.708-4.321-11.319-8.543c-4.544-7.344-8.209-15.191-11.865-23.016
				l-12.683-27.151c0,0,0,0,0,0l0,0l-5.51-11.796l-7.823-16.747l-36.373,14.615c0,0,25.981,10.206,26.396,11.126
				c1.227,3.35,2.454,6.7,3.681,10.05c-7.756,3.736-15.14,8.388-22.005,13.862c7.539,24.128,19.684,46.808,35.589,66.457
				c3.873,4.785,8.155,9.487,12.896,13.483c-4.911,0.503-9.826,0.985-14.746,1.445c-6.096,0.57-7.018,0.637-13.125,1.181
				c-4.211,0.375-8.423,0.748-12.637,1.128l-2.636,37.52c0,0,15.531-15.818,15.983-16.399c3.619-0.019,7.86-0.256,12.156-0.617
				c0.002,5.069,0.055,10.322,0.193,15.881c27.152,0.551,54.357-1.53,81.109-6.208c19.445-3.401,39.933-8.911,52.993-23.714
				c10.906-12.362,14.882-29.375,16.241-45.805c2.438-29.461-1.189-56.533-12.796-83.722c3.317-4.975,6.09-10.511,7.962-16.291
				c1.853,4.364,3.897,8.636,6.434,12.635c4.101,6.463,9.614,12.243,16.573,15.434c6.957,3.191,15.481,3.486,22.089-0.379
				c4.942-2.891,8.387-7.733,11.533-12.518c9.384-14.268,17.515-29.359,24.271-45.044c3.541-4.81,5.895-8.857,8.145-12.962
				C305.085,221.557,305.466,220.422,304.755,219.846z M160.174,385.682c-2.976,2.435-6.431,4.071-10.09,5.267
				c4.637-5.972,8.393-12.687,11.56-19.573c3.31-7.196,6.032-14.659,8.163-22.288c0.177,1.127,0.341,2.255,0.472,3.389
				C171.674,364.472,169.519,378.034,160.174,385.682z"/>
			<polygon style="fill:#2E2854;" points="134.914,197.378 134.915,197.377 134.915,197.377 			"/>
		</g>
		<g>
			<g>
				<g>
					<g>
						<path style="fill:#9E4950;" d="M91.71,402.084c-6.037,1.021-6.951,1.156-13.001,2.152l0,0l-3.663,13.432l6.022,8.703
							c8.026-0.64,19.038-2.577,26.894-4.343L91.71,402.084z"/>
						<path style="fill:#2E2854;" d="M78.709,404.236c-4.172,0.686-8.344,1.371-12.519,2.063l0.155,37.612
							c0,0,14.315-16.926,14.723-17.539C81.068,426.371,79.553,410.912,78.709,404.236z"/>
					</g>
					<g>
						<path style="fill:#7B478F;" d="M219.853,271.462c13.592,26.253,19.217,52.981,18.973,82.542
							c-0.136,16.486-2.839,33.747-12.798,46.884c-11.925,15.731-31.948,22.746-51.087,27.58
							c-26.331,6.65-53.307,10.744-80.425,12.209c-1.412-14.181-2.126-26.433-2.806-38.593c22.743-3.846,45.372-8.028,67.667-13.701
							c7.493-1.906,15.271-4.16,20.875-9.487c8.752-8.32,9.895-22.005,7.614-33.863c-2.281-11.859-7.359-23.091-9.037-35.05
							l1.356-42.17c0,0,17.905-1.062,27.136-0.007C216.552,268.86,219.853,271.462,219.853,271.462z"/>
						<path style="fill:none;stroke:#2E2854;stroke-linecap:round;stroke-linejoin:round;stroke-miterlimit:10;" d="
							M213.335,279.636c-0.214,3.02,0.76,6.107,2.667,8.458c1.908,2.35,4.729,3.938,7.728,4.351"/>
						<path style="opacity:0.15;fill:#2E2854;" d="M196.585,293.424c-5.885,0.604-11.783,12.69-13.844,17.789
							c-0.943,2.332-1.625,4.748-2.219,7.193c2.244,8.91,5.604,17.586,7.343,26.626c2.281,11.858,1.138,25.543-7.614,33.863
							c-5.604,5.327-13.382,7.581-20.875,9.487c-20.257,5.155-40.79,9.074-61.433,12.633c7.428,6.175,16.614,10.864,26.478,12.745
							c11.185,2.132,46.043,2.817,60.19-29.253C195.89,358.941,199.311,321.236,196.585,293.424z"/>
					</g>
				</g>
				<g>
					<g>
						<path style="fill:#2E2854;" d="M85.607,287.932l-9.044-16.12l-35.188,17.273c0,0,26.667,8.25,27.149,9.137h11.017
							L85.607,287.932z"/>
						<path style="fill:#9E4950;" d="M85.607,287.932l-17.083,10.29c2.536,5.598,5.072,11.195,7.608,16.792l15.845-15.727
							L85.607,287.932z"/>
					</g>
					<g>
						<path style="fill:#7B478F;" d="M148.029,276.119c-3.196,22.942,0.597,45.357-6.024,67.554
							c-0.768,2.574-1.692,5.151-3.285,7.316c-1.593,2.163-3.949,3.889-6.619,4.184c-4.934,0.545-9.005-3.663-11.922-7.68
							c-5.076-6.987-9.314-14.54-13.54-22.072l-14.663-26.135c-14.679,5.035-28.265,13.308-39.952,24.141
							c9.308,23.502,23.103,45.218,40.422,63.633c9.806,10.427,21.761,20.263,36.016,21.558
							c12.208,1.108,24.383-4.461,33.224-12.954c8.84-8.492,14.687-19.655,18.969-31.143c7.031-18.862,10.21-39.151,9.3-59.26
							l0,0.001c2.172-0.347,4.122-1.954,5.193-3.928c1.294-2.383,1.519-5.2,1.436-7.911c-0.082-2.711-0.444-5.425-0.215-8.127
							l0.23-16.701c0,0-20.005-1.78-29.895,0C156.816,270.377,148.029,276.119,148.029,276.119z"/>
						<path style="fill:none;stroke:#2E2854;stroke-linecap:round;stroke-linejoin:round;stroke-miterlimit:10;" d="
							M162.837,282.764c-2.113,6.218-6.01,11.817-11.105,15.959"/>
						<path style="fill:none;stroke:#2E2854;stroke-linecap:round;stroke-linejoin:round;stroke-miterlimit:10;" d="
							M128.463,408.618c12.208,1.108,24.383-4.461,33.224-12.954c8.84-8.492,14.687-19.655,18.969-31.143
							c7.031-18.862,10.21-39.151,9.3-59.26l0,0.001c2.172-0.347,4.122-1.954,5.193-3.928c1.294-2.383,1.519-5.2,1.436-7.911
							c-0.082-2.711-0.444-5.425-0.215-8.127"/>
					</g>
				</g>
			</g>
			<g>
				<g>
					<g>
						<path style="fill:#9E4950;" d="M287,208.751c-4.056,14.257-10.522,27.849-19.063,39.984c-1.462,2.077-3.164,4.24-5.612,4.916
							c-2.554,0.706-5.338-0.453-7.234-2.304c-1.895-1.852-3.066-4.306-4.139-6.728c-2.77-6.253-5.151-12.678-7.125-19.225
							c-2.207-7.322-3.993-14.986-8.44-21.207c-3.872-5.417-9.503-9.298-15.702-11.849c0,0-6.716,12.426-6.243,25.419
							c0.473,12.993,9.27,29,9.27,29c3.314,6.901,6.657,13.849,11.226,19.992c4.569,6.141,10.496,11.496,17.672,14.162
							c7.175,2.666,15.697,2.328,22-2.017c4.714-3.25,7.79-8.334,10.573-13.339c8.299-14.925,15.288-30.578,20.862-46.721
							c3.174-5.059,5.222-9.27,7.161-13.531c0.379-0.832,0.675-1.992-0.076-2.513c-0.765-0.531-1.763,0.19-2.389,0.878
							c-1.696,1.861-3.212,3.905-5.373,5.96c1.897-4.025,3.754-8.128,5.07-12.378c0.208-0.673,0.403-1.385,0.251-2.072
							c-0.152-0.688-0.77-1.324-1.47-1.246c-0.592,0.066-1.015,0.584-1.364,1.066c-2.735,3.78-4.472,7.432-6.93,11.754
							c1.803-4.343,2.678-8.399,3.763-12.975c0.119-0.504,0.235-1.028,0.138-1.537c-0.098-0.509-0.466-1.004-0.98-1.082
							c-0.735-0.111-1.3,0.613-1.68,1.253c-2.285,3.857-3.98,7.869-6.325,12.492c1.455-4.445,2.179-9.009,2.712-13.656
							c0.102-0.89,0.039-2.038-0.801-2.35c-0.508-0.189-1.095,0.06-1.459,0.461c-0.365,0.401-0.553,0.926-0.731,1.438
							c-1.785,5.137-3.341,10.353-4.832,15.831L287,208.751z"/>
						<g>
							<path style="fill:none;stroke:#2E2854;stroke-linecap:round;stroke-linejoin:round;stroke-miterlimit:10;" d="
								M292.725,204.501c5.103,0.719,9.945,3.174,13.541,6.866"/>
							<path style="fill:none;stroke:#2E2854;stroke-linecap:round;stroke-linejoin:round;stroke-miterlimit:10;" d="
								M305.045,218.834c3.174-5.059,5.222-9.27,7.161-13.531c0.379-0.832,0.675-1.992-0.076-2.513
								c-0.765-0.531-1.763,0.19-2.389,0.878c-1.696,1.861-3.212,3.905-5.373,5.96c1.897-4.025,3.754-8.128,5.07-12.378
								c0.208-0.673,0.403-1.385,0.251-2.072c-0.152-0.688-0.77-1.324-1.47-1.246c-0.592,0.066-1.015,0.584-1.364,1.066
								c-2.735,3.78-4.472,7.432-6.93,11.754c1.803-4.343,2.678-8.399,3.763-12.975c0.119-0.504,0.235-1.028,0.138-1.537
								c-0.098-0.509-0.466-1.004-0.98-1.082c-0.735-0.111-1.3,0.613-1.68,1.253c-2.285,3.857-3.98,7.869-6.325,12.492
								c1.455-4.445,2.179-9.009,2.712-13.656c0.102-0.89,0.039-2.038-0.801-2.35c-0.508-0.189-1.095,0.06-1.459,0.461
								c-0.365,0.401-0.553,0.926-0.731,1.438c-1.785,5.137-3.341,10.353-4.832,15.831"/>
						</g>
						<path style="opacity:0.15;fill:#2E2854;" d="M294.568,244.975c-3.916,5.113-7.289,10.696-11.447,15.632
							c-5.859,6.955-14.34,12.864-23.365,11.746c-7.712-0.955-13.999-6.9-17.869-13.638c-3.869-6.738-5.846-14.366-8.655-21.611
							c-2.809-7.245-6.747-14.463-13.141-17.615c-0.929,6.049-1.444,12.16-1.576,18.279c2.164,5.285,4.197,8.989,4.197,8.989
							c3.314,6.901,6.657,13.849,11.226,19.992c4.569,6.141,10.496,11.496,17.672,14.162c7.175,2.666,15.697,2.328,22-2.017
							c4.714-3.25,7.79-8.334,10.573-13.339C287.918,258.837,291.373,251.966,294.568,244.975z"/>
					</g>
					<g>
						<path style="fill:#9E4950;" d="M287,208.751c-0.797-2.907-1.593-5.814-2.39-8.721c-0.109-0.399-0.22-0.807-0.188-1.22
							c0.032-0.413,0.235-0.837,0.605-1.021c0.356-0.176,0.797-0.097,1.136,0.11c0.339,0.207,0.595,0.523,0.833,0.841
							c1.531,2.043,2.616,4.418,3.496,7.193c3.552,1.054,6.434,4.11,7.28,7.717"/>
						<path style="fill:none;stroke:#2E2854;stroke-linecap:round;stroke-linejoin:round;stroke-miterlimit:10;" d="M287,208.751
							c-0.797-2.907-1.593-5.814-2.39-8.721c-0.109-0.399-0.22-0.807-0.188-1.22c0.032-0.413,0.235-0.837,0.605-1.021
							c0.356-0.176,0.797-0.097,1.136,0.11c0.339,0.207,0.595,0.523,0.833,0.841c1.531,2.043,2.616,4.418,3.496,7.193
							c3.552,1.054,6.434,4.11,7.28,7.717"/>
					</g>
				</g>
				<g>
					<g>
						<path style="fill:#9E4950;" d="M152.499,227.363c-13.165-1.43-25.977,3.97-38.361,8.659
							c-12.385,4.69-26.031,8.795-38.662,4.818c-12.253-3.858-21.157-14.782-26.25-26.575s-7.042-24.652-9.975-37.158
							c-1.768-5.704-2.813-10.269-3.741-14.857c-0.182-0.896-0.208-2.094,0.642-2.431c0.864-0.345,1.674,0.582,2.129,1.394
							c1.232,2.196,2.618,5.302,4.26,7.79c-0.94-4.348-2.194-9.537-2.518-13.974c-0.051-0.703-0.08-1.44,0.223-2.076
							c0.303-0.635,1.049-1.116,1.713-0.883c0.562,0.199,0.857,0.799,1.088,1.348c1.812,4.299,2.861,8.827,4.281,13.591
							c-0.777-4.637-0.894-9.365-0.919-14.066c-0.003-0.519,0.002-1.055,0.212-1.53c0.21-0.474,0.681-0.873,1.198-0.833
							c0.741,0.057,1.129,0.891,1.354,1.6c1.357,4.273,2.053,8.895,3.294,13.928c-0.415-4.658-0.04-9.6,0.489-14.247
							c0.101-0.89,0.422-1.994,1.31-2.109c0.538-0.07,1.054,0.305,1.318,0.778c0.264,0.473,0.329,1.027,0.388,1.566
							c0.613,5.709,0.957,11.448,1.171,17.467c0.124,1.176,0.247,2.352,0.371,3.528l0.316,1.957
							c2.183,7.962,3.885,16.163,7.717,23.476c3.831,7.313,10.273,13.797,18.391,15.298c7.286,1.348,14.651-1.446,21.417-4.468
							c11.964-5.346,23.547-11.585,35.734-16.37l16.195,12.953L152.499,227.363z"/>
						<g>
							<path style="fill:none;stroke:#2E2854;stroke-linecap:round;stroke-linejoin:round;stroke-miterlimit:10;" d="
								M40.489,170.278c4.181-2.926,9.342-4.424,14.44-4.192"/>
							<path style="fill:none;stroke:#2E2854;stroke-linecap:round;stroke-linejoin:round;stroke-miterlimit:10;" d="
								M39.251,177.107c-1.768-5.704-2.813-10.269-3.741-14.857c-0.182-0.896-0.208-2.094,0.642-2.431
								c0.864-0.345,1.674,0.582,2.129,1.394c1.232,2.196,2.618,5.302,4.26,7.79c-0.94-4.348-2.194-9.537-2.518-13.974
								c-0.051-0.703-0.08-1.44,0.223-2.076c0.303-0.635,1.049-1.116,1.713-0.883c0.562,0.199,0.857,0.799,1.088,1.348
								c1.812,4.299,2.861,8.827,4.281,13.591c-0.777-4.637-0.894-9.365-0.919-14.066c-0.003-0.519,0.002-1.055,0.212-1.53
								c0.21-0.474,0.681-0.873,1.198-0.833c0.741,0.057,1.129,0.891,1.354,1.6c1.357,4.273,2.053,8.895,3.294,13.928
								c-0.415-4.658-0.04-9.6,0.489-14.247c0.101-0.89,0.422-1.994,1.31-2.109c0.538-0.07,1.054,0.305,1.318,0.778
								c0.264,0.473,0.329,1.027,0.388,1.566c0.613,5.709,0.957,11.448,1.171,17.467c0.061,0.577,0.121,1.153,0.182,1.73"/>
						</g>
						<path style="opacity:0.15;fill:#2E2854;" d="M121.525,221.985c-8.788,3.169-17.404,7.27-26.693,8.261
							c-13.164,1.404-26.601-3.838-36.338-12.809c-6.506-5.994-11.424-13.527-15.08-21.546c1.494,6.273,3.257,12.458,5.812,18.373
							c5.093,11.793,13.997,22.717,26.25,26.575c12.631,3.977,26.277-0.128,38.662-4.818c10.973-4.155,22.283-8.857,33.875-8.883
							c0.387-3.011,0.716-5.749,0.905-7.822C139.997,216.55,130.313,218.817,121.525,221.985z"/>
					</g>
					<g>
						<path style="fill:#9E4950;" d="M47.965,174.857c1.82-3.853,6.07-6.418,9.966-5.668c1.346-1.928,3.148-3.534,5.218-4.649
							c0.348-0.187,0.816-0.349,1.104-0.078c0.307,0.29,0.133,0.798-0.063,1.17c-1.719,3.264-3.787,6.343-6.36,9.417"/>
						<path style="fill:none;stroke:#2E2854;stroke-linecap:round;stroke-linejoin:round;stroke-miterlimit:10;" d="M47.965,174.857
							c1.82-3.853,6.07-6.418,9.966-5.668c1.346-1.928,3.148-3.534,5.218-4.649c0.348-0.187,0.816-0.349,1.104-0.078
							c0.307,0.29,0.133,0.798-0.063,1.17c-1.719,3.264-3.787,6.343-6.36,9.417"/>
					</g>
				</g>
				<g>
					<g>
						<polygon style="fill:#F7A145;" points="141.089,192.984 141.091,192.984 141.091,192.984 						"/>
						<path style="fill:#F7A145;" d="M227.403,234.42c-1.515-7.999-4.799-15.553-6.813-23.441
							c-1.549-6.069-2.288-12.618-0.905-18.641c-2.169-0.893-4.409-1.622-6.666-2.198c-3.945-1.007-7.969-1.577-12.024-1.927l0,0
							l-12.904,6.604l-17.635-8.852l0,0c-8.648,0.392-17.437,2.629-25.782,5.663c-1.201,0.437-2.395,0.89-3.584,1.356
							c5.249,7.078,6.101,16.714,5.102,25.553c-1.058,9.351-3.889,18.471-4.405,27.868c-0.529,9.616,1.547,19.462,6.241,29.714
							c23.946-3.904,46.673-5.592,71.824-4.657C226.113,260.371,229.775,246.933,227.403,234.42z"/>
					</g>
					<path style="fill:#9E4950;" d="M190.708,225.972c2.015-12.916,5.475-25.606,10.288-37.759
						c-4.897-0.423-9.841-0.519-14.758-0.599c-5.113-1.43-10.42-1.892-15.78-1.649C179.845,197.712,186.348,211.361,190.708,225.972
						z"/>
				</g>
			</g>
			<g>
				<g>
					<path style="fill:#4C2E6D;" d="M165.494,123.065c-4.103,5.138-11.436,7.437-17.738,5.561
						c-6.302-1.876-11.183-7.811-11.808-14.356c-0.624-6.546,3.046-13.297,8.879-16.331c3.61-1.878,7.943-2.363,11.851-1.228
						c3.907,1.134,7.333,3.9,9.175,7.528C168.485,109.426,170.31,117.034,165.494,123.065z"/>
					<path style="opacity:0.15;fill:#2E2854;" d="M165.494,123.065c3.303-4.136,3.481-9.013,2.419-13.342
						c-3.42,2.405-6.131,5.853-7.747,10.068c-4.219,0.666-8.245,2.521-11.31,5.321c-4.582-1.324-8.751-4.002-12.119-7.228
						c1.728,5.025,5.905,9.22,11.019,10.742C154.058,130.502,161.391,128.203,165.494,123.065z"/>
				</g>
				<path style="fill:#4C2E6D;" d="M212.766,150.429c3.417-5.106,4.984-11.423,4.35-17.534c-0.157-1.519-0.457-3.054-1.202-4.386
					c-0.745-1.333-1.995-2.448-3.496-2.73c-0.694-5.12-3.367-9.905-7.255-13.086s-8.889-4.834-13.901-5.165
					c-5.013-0.332-10.047,0.597-14.825,2.148c-3.113,1.011-6.171,2.303-8.818,4.229c-2.648,1.926-4.876,4.53-5.955,7.621
					c-5.622-0.485-11.174,3.075-13.67,8.257c-2.92,6.06-1.659,13.281,1.034,20.083c1.15,2.115,3.183,3.643,5.387,4.609
					c2.205,0.966,4.593,1.425,6.962,1.845c8.572,1.517,17.271,2.618,25.966,2.21C196.037,158.121,207.3,158.597,212.766,150.429z"/>
				<g>
					<path style="fill:#9E4950;" d="M180.548,173.855l-0.363,20.604c0,0,13.78,0.494,14.011,0.077
						c-0.684-6.87-1.367-13.74-2.051-20.611L180.548,173.855z"/>
					<path style="opacity:0.15;fill:#2E2854;" d="M180.548,173.855l-0.101,5.725c3.554,2.107,8.197,2.391,12.359,0.988
						c-0.22-2.214-0.44-4.428-0.661-6.643L180.548,173.855z"/>
				</g>
				<g>
					<g>
						<path style="fill:#9E4950;" d="M210.839,145.769c1.461-1.75,4.245-2.03,6.24-0.927c1.995,1.103,3.204,3.33,3.476,5.594
							c0.272,2.263-0.291,4.557-1.164,6.663c-1.086,2.622-2.759,5.134-5.253,6.487c-2.495,1.354-5.92,1.245-7.878-0.809
							L210.839,145.769z"/>
						<path style="fill:#F7A145;" d="M214.46,166.265c-0.889,0.665-2.219,0.661-3.104-0.01c-0.884-0.671-1.247-1.951-0.846-2.986
							s1.532-1.737,2.637-1.637c0.975,0.088,1.872,0.787,2.179,1.716C215.632,164.277,215.446,165.527,214.46,166.265z"/>
					</g>
					<g>
						<g>
							<path style="fill:#9E4950;" d="M165.691,161.987c-3.002,2.858-7.201,4.502-11.331,4.155
								c-4.131-0.346-8.095-2.773-10.044-6.43c-1.95-3.659-1.693-8.458,0.85-11.731c2.543-3.274,7.318-4.696,11.732-2.751
								C157.781,151.578,161.215,157.533,165.691,161.987z"/>
							<g>
								<path style="fill:none;stroke:#2E2854;stroke-linecap:round;stroke-linejoin:round;stroke-miterlimit:10;" d="
									M147.226,155.285c1.421-2.701,4.425-4.49,7.477-4.454"/>
								<path style="fill:none;stroke:#2E2854;stroke-linecap:round;stroke-linejoin:round;stroke-miterlimit:10;" d="
									M150.921,151.724c0.47,2.31,1.75,4.45,3.58,5.94"/>
							</g>
						</g>
						<path style="fill:#F7A145;" d="M157.985,168.647c-0.889,0.665-2.219,0.661-3.104-0.01c-0.884-0.671-1.247-1.951-0.846-2.986
							c0.401-1.035,1.532-1.737,2.638-1.637c0.974,0.089,1.871,0.787,2.178,1.716C159.158,166.659,158.971,167.909,157.985,168.647z
							"/>
					</g>
					<g>
						<g>
							<path style="fill:#9E4950;" d="M211.884,138.356c-6.865,5.275-15.631,8.021-24.278,7.603
								c-8.648-0.418-17.608-1.496-23.932-7.409c0.232,4.82,0.166,8.647-0.027,12.562c-0.032,0.646-0.128,1.309-0.445,1.873
								c-0.317,0.565-0.945,1.005-1.584,0.903c-0.59-0.095-1.018-0.601-1.359-1.092c-1.277-1.836-2.887-5.961-3.361-7.566
								c1.131,9.019,6.066,19.844,13.166,25.519c7.1,5.675,17.24,7.768,25.634,4.281c6.655-2.763,11.692-8.721,14.246-15.459
								C212.497,152.833,212.737,145.381,211.884,138.356z"/>
							<g>
								<path style="fill:#B35B62;" d="M167.644,160.262c-1.719,0.712-2.998,2.358-3.33,4.18c1.677,2.413,3.585,4.56,5.687,6.253
									c1.411-0.133,2.777-0.8,3.663-1.909c1.363-1.705,2.499-5.039,0.06-7.37C172.147,159.908,169.66,159.427,167.644,160.262z"/>
								<path style="fill:#B35B62;" d="M209.482,160.262c-2.017-0.835-4.503-0.354-6.081,1.154c-2.438,2.331-1.302,5.665,0.06,7.37
									c0.137,0.172,0.294,0.326,0.453,0.477c2.431-2.573,4.371-5.641,5.72-8.923C209.582,160.316,209.534,160.284,209.482,160.262
									z"/>
							</g>
						</g>
						<g>
							<path style="fill:#2E2854;" d="M177.356,150.475c-0.727-0.32-1.676,0.015-2.041,0.721c-0.364,0.706-0.089,1.674,0.592,2.082
								c0.682,0.408,1.665,0.195,2.115-0.46C178.473,152.163,178.444,150.954,177.356,150.475z"/>
							<path style="fill:#2E2854;" d="M204.606,149.141c-0.727-0.32-1.676,0.016-2.041,0.721c-0.364,0.706-0.089,1.674,0.592,2.082
								c0.682,0.408,1.665,0.195,2.115-0.46C205.723,150.829,205.694,149.62,204.606,149.141z"/>
							<path style="fill:none;stroke:#2E2854;stroke-linecap:round;stroke-linejoin:round;stroke-miterlimit:10;" d="
								M192.972,152.163c1.162,0.705,2.438,1.221,3.764,1.521c-0.898,0.996-1.917,1.882-3.026,2.635"/>
						</g>
						<g>
							<path style="fill:#2E2854;" d="M197.843,159.911c-5.678,0.456-11.355,0.913-17.414,1.761
								c0.982,4.101,5.227,7.149,9.427,6.769C194.056,168.06,197.684,164.298,197.843,159.911z"/>
							<g>
								<path style="fill:#FFFFFF;" d="M181.401,164.004c5.533-0.163,10.881-0.833,16.097-2.032
									c0.194-0.664,0.319-1.353,0.345-2.062c-5.678,0.456-11.355,0.913-17.414,1.761
									C180.628,162.5,180.964,163.281,181.401,164.004z"/>
								<path style="fill:#D14B56;" d="M189.856,168.441c2.16-0.196,4.165-1.291,5.629-2.901c-3.65-0.105-7.318,0.417-10.806,1.676
									C186.239,168.131,188.051,168.604,189.856,168.441z"/>
							</g>
						</g>
					</g>
				</g>
			</g>
		</g>
	</g>
	<g>
		<path style="opacity:0.15;fill:#2E2854;" d="M502.847,195.638c-0.052-0.543-0.361-1.098-0.876-1.277
			c-0.84-0.292-1.642,0.491-2.165,1.21c-1.929,2.655-3.661,5.605-4.981,8.919c1.358-4.998,2.448-10.141,2.902-15.301
			c0.045-0.516,0.084-1.048-0.076-1.541c-0.159-0.493-0.565-0.942-1.082-0.991c-0.788-0.074-1.341,0.737-1.694,1.447
			c-2.077,4.19-3.894,9.052-5.001,14.241c0.772-4.779,1.266-10.054,0.932-14.884c-0.071-1.011-0.406-2.287-1.412-2.407
			c-1.009-0.12-1.636,1.047-1.936,2.019c-1.351,4.358-2.214,9.37-3.091,14.081c0.167-4.064,0.034-8.635-0.455-12.671
			c-0.072-0.596-0.156-1.206-0.441-1.735c-0.284-0.53-0.816-0.966-1.417-0.969c-0.635-0.001-1.191,0.485-1.464,1.06
			c-0.273,0.574-0.318,1.227-0.361,1.861c-0.334,5.02-0.668,10.041-1.001,15.062c-0.691-1.188-1.468-2.327-2.346-3.384
			c-0.281-0.338-0.58-0.676-0.969-0.884c-0.387-0.208-0.886-0.263-1.26-0.031c-0.728,0.452-0.539,1.545-0.263,2.355
			c1.074,3.136,2.147,6.273,2.429,10.031c0.023,0.661,0.039,1.322,0.049,1.984c0.175,12.193-1.924,24.416-6.163,35.85
			c-1.392,3.752-3.606,7.915-7.549,8.593c-1.596,0.274-3.213-0.112-4.653-0.882c-0.842-0.45-1.623-1.031-2.303-1.688
			c-0.692-0.668-1.301-1.409-1.857-2.191c-0.927-1.304-1.711-2.723-2.501-4.119c-7.317-12.938-16.308-25.154-26.456-36.314
			c-1.625-1.787-3.285-3.543-4.968-5.275c-0.793-3.195-1.863-6.321-3.204-9.286c-2.508-5.548-5.944-10.538-10.186-14.394
			c0.427-1.103,0.854-2.205,1.281-3.308c4.12,0.626,8.375,0.31,12.301-1.105c1.969-0.71,3.82-1.693,5.534-2.879
			c1.728,1.215,3.802,1.943,5.915,2.016c3.378,0.117,6.774-1.442,8.886-4.081c2.19-2.735,2.922-6.677,1.51-9.883
			c-0.448-1.018-1.125-1.931-1.948-2.682c7.08-6.808,11.637-17.239,11.808-25.058c0.153-7.027-2.354-14.013-6.609-19.608
			c-4.254-5.596-10.19-9.822-16.719-12.423c-9.388-3.74-20.223-4.104-29.577-0.276c-9.353,3.826-16.995,11.987-19.491,21.78
			c-1.406,5.514-1.059,11.467,0.858,16.823c-0.469,0.088-0.933,0.201-1.385,0.357c-3.199,1.106-5.759,3.9-6.582,7.182
			c-0.784,3.126,0.08,6.703,2.467,8.868c1.859,1.686,4.475,2.409,6.978,2.222c1.67-0.126,3.285-0.638,4.784-1.394
			c0.847,4.268,2.693,8.325,5.523,11.627c1.352,1.578,2.914,2.952,4.616,4.129c-0.216,0.41-0.432,0.819-0.645,1.231
			c-5.243-2.087-10.909-3.06-16.503-2.795c-1.357,0.064-2.708,0.21-4.048,0.419c-10.788-7.501-20.32-16.82-28.021-27.467l0,0
			c-1.427-1.974-2.793-3.992-4.092-6.052l-0.001-0.002h0c-3.271-5.186-6.125-10.634-8.506-16.289
			c-5.266-12.502-8.214-27.003-2.921-39.494c1.616-2.923,3.86-5.363,6.105-7.803c0.579-0.63,1.19-1.555,0.706-2.262
			c-0.249-0.363-0.726-0.514-1.165-0.479c-0.439,0.034-0.849,0.223-1.243,0.421c-1.23,0.614-2.399,1.343-3.509,2.154
			c1.714-4.731,3.428-9.462,5.142-14.192c0.217-0.599,0.437-1.214,0.418-1.85c-0.019-0.637-0.332-1.306-0.915-1.56
			c-0.551-0.239-1.213-0.054-1.686,0.316c-0.474,0.37-0.796,0.896-1.102,1.412c-2.071,3.5-4.057,7.624-5.538,11.41
			c1.092-4.665,2.341-9.594,2.857-14.126c0.115-1.011,0.012-2.332-0.961-2.627c-0.97-0.295-1.79,0.738-2.261,1.635
			c-2.248,4.287-4.066,9.301-5.281,13.986c1.074-5.195,1.512-10.363,1.297-15.035c-0.037-0.792-0.217-1.757-0.969-2.006
			c-0.491-0.164-1.045,0.084-1.389,0.472c-0.344,0.388-0.522,0.89-0.689,1.381c-1.659,4.906-2.795,10.059-3.563,15.181
			c0.125-3.566-0.209-6.969-0.907-10.176c-0.189-0.869-0.609-1.908-1.496-1.979c-0.544-0.043-1.05,0.34-1.316,0.817
			c-0.266,0.476-0.342,1.032-0.412,1.573c-0.779,5.964-1.558,11.927-3.061,18.609c-5.73,25.8-2.467,53.479,8.927,77.308
			c-2.217,2.063-4.382,4.219-6.484,6.484c2.043,3.454,4.373,6.736,6.946,9.815c-1.306,1.81-2.579,3.645-3.787,5.529
			c6.14,7.427,13.537,13.811,21.294,19.557c-16.689,20.312-29.44,44.026-37.119,69.167c-0.88,2.099,0.593,4.451,2.305,5.952
			c2.971,2.606,6.809,4.062,10.701,4.747c3.235,0.571,6.531,0.64,9.821,0.608c3.301,3.615,7.319,6.566,11.748,8.653
			c-1.516,3.405-2.532,7.082-3.171,10.777l-2.537-2.729l-33.634,13.846l11.549,2.536l-26.617,19.139l22.257,2.733l9.911,10.655
			c-3.171,3.475-6.158,7.117-8.931,10.917c16.927,24.623,40.69,45.174,68.931,55.113c7.829,2.755,16.813,4.601,24.173,0.766
			c5.21-2.715,8.762-7.964,10.531-13.566c0.952-3.013,1.433-6.135,1.66-9.29c7.038,4.404,14.855,8.205,22.767,6.383
			c7.142-1.644,12.655-7.813,15.006-14.755c2.349-6.942,1.933-14.542,0.475-21.724c-4.268-21.027-17.71-39.92-32.108-49.964
			c1.036-0.467,1.954-1.129,2.351-2.163c0.153-0.398,0.212-0.802,0.197-1.205c-1.191-12.493-1.331-24.872-0.696-37.238
			c2.086,3.012,4.296,5.938,6.653,8.742c1.662-1.259,3.299-2.531,4.926-3.809c1.621,2.271,3.55,4.322,5.739,6.054
			c1.502-1.404,2.996-2.84,4.49-4.276c2.402,2.553,5.455,4.594,8.564,6.266c7.08,3.809,15.519,6.281,23.144,3.733
			c6.562-2.192,11.513-7.839,14.441-14.106c2.929-6.27,4.107-13.188,5.255-20.013c2.051-12.194,4.102-24.389,6.154-36.584
			c1.885-6.528,3.57-12.301,5.255-18.074C502.745,196.719,502.9,196.18,502.847,195.638z M312.137,314.404l4.074,0.895
			c4.314,4.706,9.428,9.856,13.964,14.217c2.01,1.921,4.049,3.802,6.099,5.664c0.33,0.874,0.671,1.742,1.036,2.602
			c-4.43-4.114-7.356-6.831-7.356-6.831l0,0l-11.538-10.715L312.137,314.404z M418.594,305.975c0.025,0.127,0.036,0.255,0.047,0.383
			C418.63,306.263,418.615,306.138,418.594,305.975z"/>
		<g>
			<path style="fill:#5767BF;" d="M423.885,193.782c-4.049-7.964-10.035-14.641-17.501-18.219
				c-6.436-3.085-13.69-4.363-20.729-3.706l-3.484,5.168l41.177,23.147L423.885,193.782z"/>
			<g>
				<path style="fill:#46539E;" d="M336.616,279.741c-3.943,0.249-7.916,0.468-11.834-0.04c-3.919-0.507-7.82-1.786-10.907-4.253
					c-1.779-1.421-3.358-3.703-2.575-5.84c0,0,4.933-14.362,17.79-16.835C341.948,250.301,336.616,279.741,336.616,279.741z"/>
				<path style="fill:#46539E;" d="M410.534,307.831c5.362,0.391,10.801-0.329,15.876-2.102c1.539-0.537,3.211-1.341,3.725-2.887
					c0.134-0.405,0.175-0.811,0.142-1.213c0,0-2.045-13.054-6.171-17.9c-4.126-4.846-11.84-5.539-11.84-5.539L410.534,307.831z"/>
				<path style="fill:#C1C4D9;" d="M347.979,288.477c-6.624-2.48-12.515-6.884-16.77-12.533c-0.954-1.268-1.847-2.91-1.556-4.376
					c0,0,0.551-5.522,4.494-8.153c3.943-2.631,22.042,14.776,22.042,14.776L347.979,288.477z"/>
			</g>
			<g>
				<g>
					<g>
						<path style="fill:#F7A145;" d="M342.893,328.004l0.039,0.617c24.266,21.151,51.079,38.087,79.156,54.812
							c8.062,4.804,17.321,9.79,26.361,7.268c7.059-1.969,12.284-8.384,14.315-15.426c2.029-7.042,1.266-14.615-0.519-21.723
							c-5.475-21.803-20.902-40.812-36.487-49.73c0,0-5.317-10.394-14.943-10.76c-9.626-0.366-18.132-1.553-18.132-1.553
							l-33.433,22.258l-12.326,3.324L342.893,328.004z"/>
						<path style="opacity:0.15;fill:#2E2854;" d="M427.24,339.932c-5.318-14.745-13.693-28.175-23.521-39.676
							c1.401-0.045,2.802-0.078,4.203-0.077c5.825,0.007,11.785,0.587,17.216,2.576c-1.657-2.659-6.602-9.398-14.322-9.692
							c-9.626-0.366-18.132-1.553-18.132-1.553l-12.818,8.534c1.878,0.269,3.77,0.459,5.669,0.563
							c4.051,0.222,8.106,0.073,12.162-0.107c-0.958,27.462,5.499,55.165,18.6,79.327l0.273,0.306
							c1.834,1.102,3.673,2.203,5.518,3.302c2.941,1.752,6.042,3.525,9.232,4.952C434.841,372.421,432.812,355.38,427.24,339.932z"
							/>
					</g>
					<g>
						<path style="fill:#E8614E;" d="M359.251,313.768L348.8,303.511l-14.566,2.152l-5.901,9.396
							c4.525,4.504,9.869,9.415,14.6,13.563L359.251,313.768z"/>
						<polygon style="fill:#2E2854;" points="341.418,296.268 308.453,311.638 328.332,315.059 348.8,303.511 						"/>
					</g>
				</g>
				<g>
					<g>
						<g>
							<polygon style="fill:#E8614E;" points="318.719,325.4 316.752,335.692 331.767,350.42 342.778,330.065 330.762,319.889 
															"/>
							<polygon style="fill:#2E2854;" points="321.802,312.302 294.393,333.98 316.752,335.692 330.762,319.889 							"/>
						</g>
						<path style="fill:#F7A145;" d="M424.181,394.723c-1.511,5.677-4.819,11.083-9.899,14.034
							c-7.177,4.168-16.236,2.735-24.183,0.341c-28.666-8.637-53.344-28.079-71.38-51.902c6.693-10.113,14.819-19.277,24.059-27.131
							c0,0,52.115,44.133,52.115,44.133L424.181,394.723z"/>
					</g>
					<g>
						<path style="fill:#F7A145;" d="M424.181,394.723c1.512-5.677,1.412-11.654,0.994-17.514
							c-2.16-30.183-12.704-59.724-30.145-84.453l-41.391-15.357c-6.296,5.963-8.999,14.854-9.783,23.49
							c-1.735,19.102,5.093,38.821,18.268,52.76L424.181,394.723z"/>
						<path style="opacity:0.15;fill:#2E2854;" d="M395.03,292.756l-41.391-15.357c-2.438,2.309-4.332,5.061-5.79,8.063
							c9.806,8.952,23.587,14.375,37.686,15.144c4.844,0.265,9.692,0.003,14.542-0.212
							C398.459,297.806,396.789,295.25,395.03,292.756z"/>
						<path style="fill:none;stroke:#2E2854;stroke-linecap:round;stroke-linejoin:round;stroke-miterlimit:10;" d="
							M368.115,295.941c-1.21,4.286-3.186,8.479-6.446,11.513c-3.26,3.035-7.963,4.747-12.281,3.653"/>
						<path style="fill:none;stroke:#2E2854;stroke-linecap:round;stroke-linejoin:round;stroke-miterlimit:10;" d="
							M353.639,277.398c-6.296,5.963-8.999,14.854-9.783,23.49c-1.735,19.102,5.093,38.821,18.268,52.76"/>
					</g>
				</g>
			</g>
			<g>
				<g>
					<path style="fill:#FFFFFF;" d="M422.885,198.68l-24.266,0.522l-14.651-25.274l-14.984,5.412
						c-20.225,26.457-34.072,59.344-39.331,92.228c0.056-0.284,0.157-0.561,0.31-0.827c0.714-1.24,2.358-1.683,3.764-1.419
						c1.406,0.263,2.635,1.084,3.824,1.879c18.011,12.05,37.824,22.905,59.443,24.41c5.707,0.397,11.502,0.138,17.078,1.414
						c4.469,1.021,8.911,3.256,11.688,6.797c0,0-0.594-13.862-1.654-27.609c-1.06-13.747,1.654-68.259,1.654-68.259L422.885,198.68z
						"/>
					<path style="opacity:0.15;fill:#2E2854;" d="M422.885,198.68l-2.27,0.049c-12.63,27.836-18.974,58.51-17.92,89.34
						c9.055,1.528,17.405,6.682,22.984,13.957c-0.196-4.179-0.741-15.03-1.572-25.813c-1.06-13.747,1.654-68.259,1.654-68.259
						L422.885,198.68z"/>
					<path style="opacity:0.15;fill:#2E2854;" d="M383.967,173.928l-14.984,5.412c-19.594,25.632-33.176,57.299-38.788,89.151
						c5.067-1.313,10.429-1.503,15.659-0.994c6.665,0.65,13.175,2.363,19.65,4.071c4.12-32.834,10.345-64.669,19.675-95.549
						L383.967,173.928z"/>
				</g>
				<g>
					<path style="fill:#E8614E;" d="M403.122,183.044c-6.659-2.423-13.073-5.488-19.155-9.116l-2.704,0.977
						c-1.012,7.243-1.159,14.612,1.147,21.461c2.776,8.245,9.886,15.553,18.565,16.164c5.719,0.403,11.339-2.102,15.8-5.704
						c2.434-1.965,4.571-4.246,6.572-6.654l-0.463-1.492C416.564,193.071,409.945,187.841,403.122,183.044z"/>
					<path style="fill:#D15046;" d="M383.967,173.928l-2.704,0.977c-0.731,5.235-1.005,10.535-0.233,15.658
						c1.416-5.269,2.913-10.511,4.503-15.725C385.009,174.536,384.486,174.237,383.967,173.928z"/>
					<path style="fill:#D15046;" d="M423.347,200.171l-0.463-1.492c-0.532-0.472-1.079-0.926-1.615-1.393
						c-1.385,2.989-2.705,6.008-3.942,9.062C419.53,204.492,421.502,202.392,423.347,200.171z"/>
				</g>
			</g>
			<g>
				<g>
					<g>
						<g>
							<path style="fill:#E8614E;" d="M467.824,250.704c1.474,0.703,3.107,1.015,4.689,0.668c3.908-0.857,5.929-5.117,7.148-8.929
								c3.712-11.616,5.249-23.922,4.516-36.095l1.827-6.73c0.127-6.177,0.254-12.354,0.382-18.53
								c0.013-0.636,0.029-1.29,0.275-1.876c0.246-0.587,0.78-1.098,1.414-1.126c0.601-0.025,1.152,0.387,1.46,0.903
								c0.309,0.515,0.421,1.121,0.52,1.713c0.673,4.01,1.015,8.57,1.034,12.637c0.661-4.746,1.294-9.792,2.444-14.207
								c0.256-0.984,0.828-2.179,1.842-2.105c1.011,0.074,1.404,1.333,1.521,2.34c0.555,4.809,0.303,10.102-0.25,14.911
								c0.869-5.234,2.462-10.174,4.345-14.455c0.32-0.725,0.835-1.561,1.626-1.523c0.518,0.025,0.945,0.455,1.126,0.94
								c0.182,0.485,0.167,1.019,0.146,1.536c-0.217,5.175-1.071,10.363-2.199,15.418c1.167-3.371,2.762-6.398,4.568-9.138
								c0.489-0.742,1.255-1.561,2.107-1.308c0.523,0.156,0.857,0.696,0.934,1.236c0.077,0.539-0.053,1.085-0.182,1.615
								c-1.419,5.844-2.839,11.689-4.423,18.296c-1.492,12.276-2.983,24.552-4.474,36.827c-0.835,6.87-1.695,13.835-4.334,20.232
								c-2.639,6.395-7.326,12.262-13.781,14.752c-7.501,2.894-16.044,0.811-23.291-2.67c-5.224-2.509-10.354-6.008-12.753-11.282
								L467.824,250.704z"/>
							<g>
								<path style="fill:none;stroke:#2E2854;stroke-linecap:round;stroke-linejoin:round;stroke-miterlimit:10;" d="
									M504.155,197.574c-4.595-2.894-10.047-4.405-15.475-4.29"/>
								<path style="fill:none;stroke:#2E2854;stroke-linecap:round;stroke-linejoin:round;stroke-miterlimit:10;" d="
									M486.003,199.618c0.127-6.177,0.254-12.354,0.382-18.53c0.013-0.636,0.029-1.29,0.275-1.876
									c0.246-0.587,0.78-1.098,1.414-1.126c0.601-0.025,1.152,0.387,1.46,0.903c0.309,0.515,0.421,1.121,0.52,1.713
									c0.673,4.01,1.015,8.57,1.034,12.637c0.661-4.746,1.294-9.792,2.444-14.207c0.256-0.984,0.828-2.179,1.842-2.105
									c1.011,0.074,1.404,1.333,1.521,2.34c0.555,4.809,0.303,10.102-0.25,14.911c0.869-5.234,2.462-10.174,4.345-14.455
									c0.32-0.725,0.835-1.561,1.626-1.523c0.518,0.025,0.945,0.455,1.126,0.94c0.182,0.485,0.167,1.019,0.146,1.536
									c-0.217,5.175-1.071,10.363-2.199,15.418c1.167-3.371,2.762-6.398,4.568-9.138c0.489-0.742,1.255-1.561,2.107-1.308
									c0.523,0.156,0.857,0.696,0.934,1.236c0.077,0.539-0.053,1.085-0.182,1.615c-1.419,5.844-2.839,11.689-4.423,18.296"/>
							</g>
							<path style="fill:#D15046;" d="M495.885,263.954c1.883-4.565,2.855-9.42,3.564-14.323c-2.658,4.221-5.628,8.207-9.279,11.593
								c-6.695,6.207-16.172,10.172-25.036,7.985c-5.168-1.276-9.478-4.401-13.321-8.169l-5.753,3.714
								c2.399,5.274,7.529,8.773,12.753,11.282c7.247,3.481,15.79,5.564,23.291,2.67
								C488.559,276.216,493.246,270.349,495.885,263.954z"/>
						</g>
						<g>
							<path style="fill:#E8614E;" d="M484.177,206.348c-0.04-0.66-0.086-1.32-0.139-1.979c-0.453-3.741-1.669-6.825-2.885-9.909
								c-0.313-0.797-0.551-1.88,0.155-2.365c0.363-0.249,0.864-0.217,1.26-0.027c0.398,0.19,0.712,0.514,1.008,0.839
								c1.57,1.723,2.895,3.67,3.921,5.763c4.458-0.416,9.109,2.147,11.37,6.178"/>
							<path style="fill:none;stroke:#2E2854;stroke-linecap:round;stroke-linejoin:round;stroke-miterlimit:10;" d="
								M484.177,206.348c-0.04-0.66-0.086-1.32-0.139-1.979c-0.453-3.741-1.669-6.825-2.885-9.909
								c-0.313-0.797-0.551-1.88,0.155-2.365c0.363-0.249,0.864-0.217,1.26-0.027c0.398,0.19,0.712,0.514,1.008,0.839
								c1.57,1.723,2.895,3.67,3.921,5.763c4.458-0.416,9.109,2.147,11.37,6.178"/>
						</g>
					</g>
					<g>
						<path style="fill:#FFFFFF;" d="M438.366,267.095c1.964,2.924,4.454,5.494,7.315,7.551c7.477-7.66,14.811-15.794,22.143-23.941
							c-0.861-0.411-1.668-0.956-2.378-1.581c-0.722-0.636-1.364-1.348-1.956-2.104L438.366,267.095z"/>
						<path style="opacity:0.15;fill:#2E2854;" d="M455.484,264.28c-2.221-1.738-4.278-3.758-6.223-5.891l-10.895,8.705
							c1.964,2.924,4.454,5.494,7.315,7.551C448.973,271.273,452.235,267.798,455.484,264.28z"/>
					</g>
					<g>
						<path style="fill:#5767BF;" d="M432.714,207.954c10.648,10.684,20.188,22.476,28.089,35.065c0.853,1.358,1.7,2.74,2.686,4
							l0.02,0.025c-9.252,8.751-18.537,17.485-28.586,25.847c-3.936-4.269-7.555-8.83-10.818-13.632c0,0,1.968-24.057,4.13-34.475
							C430.398,214.367,432.714,207.954,432.714,207.954z"/>
						<path style="opacity:0.15;fill:#2E2854;" d="M450.241,259.447c-1.942-2.048-3.77-4.227-5.539-6.368
							c-5.364-6.495-9.858-14.511-15.069-20.926c-1.563,4.948-3.592,10.948-4.546,16.454c-0.225,2.253-0.418,4.297-0.572,5.986
							c-0.025,1.939,0.104,3.882,0.389,5.797c3.056,4.385,6.396,8.573,10.02,12.502
							C440.207,268.496,445.275,263.996,450.241,259.447z"/>
					</g>
				</g>
				<g>
					<path style="fill:#5767BF;" d="M430.277,301.629c-0.121-1.477-1.236-2.899-2.35-4.001c-5.704-5.649-12.836-9.593-19.868-13.463
						c0,0,0.053-15.861,3.515-37.058c3.461-21.197,11.31-48.427,11.31-48.427c3.366,2.987,6.647,6.081,9.83,9.274l-3.081,24.198
						C427.354,255.468,426.988,278.434,430.277,301.629z"/>
					<path style="opacity:0.15;fill:#2E2854;" d="M422.757,199.127c-1.01,3.551-7.976,28.345-11.183,47.98
						c-3.462,21.197-3.515,37.058-3.515,37.058s10.482-48.076,21.784-66.388L422.757,199.127z"/>
					<path style="fill:#6476DB;" d="M408.059,284.165c-0.887-30.952,3.947-61.816,15.825-90.384
						c2.472,4.863,4.223,10.205,5.147,15.614C418.16,232.815,410.963,257.935,408.059,284.165z"/>
				</g>
			</g>
			<g>
				<path style="fill:#E8614E;" d="M438.836,154.695c3.41-0.803,7.167,1.195,8.724,4.333c1.557,3.138,1.007,7.11-1.056,9.942
					c-1.989,2.733-5.31,4.446-8.69,4.483c-3.38,0.038-6.737-1.601-8.788-4.289L438.836,154.695z"/>
				<path style="fill:#2E2854;" d="M438.741,161.737c10.706-5.777,17.642-20.711,17.399-30.872
					c-0.169-7.027-2.993-13.891-7.499-19.285c-4.506-5.395-10.629-9.345-17.27-11.645c-9.549-3.307-20.39-3.174-29.559,1.077
					c-9.168,4.25-16.429,12.752-18.474,22.649c-2.046,9.896,1.491,20.924,9.332,27.33
					C408.753,152.476,418.831,158.304,438.741,161.737z"/>
				<g>
					<path style="fill:#E8614E;" d="M393.271,141.993c-2.766-1.95-6.529-2.396-9.674-1.146c-3.145,1.251-5.575,4.159-6.247,7.476
						c-0.64,3.159,0.387,6.692,2.87,8.746c1.934,1.599,4.581,2.202,7.072,1.9c2.492-0.304,4.829-1.454,6.802-3.004L393.271,141.993z
						"/>
					<g>
						<path style="fill:none;stroke:#2E2854;stroke-linecap:round;stroke-linejoin:round;stroke-miterlimit:10;" d="
							M382.182,148.046c1.624-1.959,4.451-2.828,6.895-2.117"/>
						<path style="fill:none;stroke:#2E2854;stroke-linecap:round;stroke-linejoin:round;stroke-miterlimit:10;" d="
							M386.791,151.525c-0.97-1.68-1.42-3.66-1.29-5.59"/>
					</g>
				</g>
				<g>
					<path style="fill:#E8614E;" d="M403.619,170.999c-2.504,5.175-4.717,10.491-6.623,15.914c0,0,11.246,5.936,11.664,6.04
						c2.013-5.999,4.026-11.997,6.039-17.996L403.619,170.999z"/>
					<path style="fill:#D15046;" d="M414.699,174.957l-11.08-3.958c-0.754,1.559-1.473,3.135-2.174,4.719
						c3.091,2.84,7.209,4.539,11.402,4.761C413.464,178.637,414.081,176.797,414.699,174.957z"/>
				</g>
				<g>
					<g>
						<path style="fill:#E8614E;" d="M442.192,150.489c0.301,10.281-6.27,20.422-15.775,24.349
							c-9.507,3.927-21.319,1.379-28.361-6.118c-7.042-7.496-8.847-19.444-4.578-28.741c2.951,0.897,6.252,0.58,8.978-0.863
							c2.725-1.443,4.843-3.994,5.715-6.795c1.204,2.787,4.49,4.261,7.518,4.05c3.028-0.21,5.798-1.807,8.434-3.412
							c-0.89,3.142,0.862,6.661,3.654,8.355c2.791,1.694,6.364,1.749,10.18,1.251C437.362,146.117,439.844,149.916,442.192,150.489z
							"/>
						<g>
							<path style="fill:#D15046;" d="M403.995,160.202c-0.388-2.655-2.598-4.941-5.237-5.419c-2.542-0.46-5.284,0.799-6.64,2.991
								c0.935,3.55,2.572,6.9,4.889,9.733c1.099,0.112,2.22-0.028,3.23-0.479C402.686,165.936,404.428,163.172,403.995,160.202z"/>
							<path style="fill:#D15046;" d="M433.072,170.696c-0.125-0.583-0.317-1.151-0.606-1.675c-1.293-2.35-4.165-3.716-6.805-3.238
								c-2.639,0.478-4.849,2.764-5.236,5.419c-0.273,1.866,0.315,3.65,1.396,4.99c1.569-0.303,3.112-0.74,4.595-1.353
								C428.851,173.833,431.089,172.415,433.072,170.696z"/>
						</g>
					</g>
					<g>
						<path style="fill:#2E2854;" d="M409.362,144.49c-0.728-0.32-1.676,0.015-2.041,0.721c-0.365,0.706-0.09,1.674,0.592,2.082
							c0.681,0.408,1.664,0.195,2.115-0.46C410.478,146.178,410.45,144.969,409.362,144.49z"/>
						<path style="fill:#2E2854;" d="M433.862,151.647c-0.728-0.32-1.676,0.016-2.041,0.721c-0.365,0.706-0.09,1.674,0.592,2.082
							c0.681,0.408,1.664,0.195,2.115-0.46C434.978,153.335,434.95,152.126,433.862,151.647z"/>
						<path style="fill:none;stroke:#2E2854;stroke-linecap:round;stroke-linejoin:round;stroke-miterlimit:10;" d="
							M423.136,148.964c0.897,1.991,1.573,4.081,1.813,6.49c-0.829,0.169-1.658,0.338-2.487,0.506"/>
						<path style="fill:none;stroke:#2E2854;stroke-linecap:round;stroke-linejoin:round;stroke-miterlimit:10;" d="
							M410.133,154.927c4.258,3.232,9.579,5.039,14.925,5.067"/>
					</g>
				</g>
			</g>
			<g>
				<g>
					<g>
						<path style="fill:#E8614E;" d="M329.471,165.339c-15.545-24.653-21.564-55.149-16.553-83.861
							c1.195-6.744,1.701-12.737,2.206-18.73c0.046-0.544,0.096-1.102,0.34-1.59c0.244-0.488,0.732-0.894,1.277-0.876
							c0.889,0.03,1.356,1.049,1.585,1.908c0.844,3.171,1.333,6.555,1.371,10.123c0.533-5.152,1.432-10.351,2.865-15.328
							c0.144-0.498,0.299-1.008,0.625-1.411c0.326-0.403,0.868-0.676,1.366-0.535c0.763,0.215,0.987,1.171,1.06,1.96
							c0.429,4.657,0.228,9.839-0.607,15.079c0.999-4.736,2.585-9.829,4.635-14.214c0.43-0.918,1.202-1.987,2.184-1.737
							c0.985,0.25,1.149,1.565,1.08,2.58c-0.308,4.551-1.331,9.532-2.208,14.242c1.306-3.85,3.101-8.06,5.01-11.651
							c0.282-0.53,0.579-1.07,1.036-1.461c0.456-0.391,1.109-0.607,1.67-0.393c0.594,0.227,0.937,0.881,0.985,1.516
							c0.048,0.634-0.144,1.259-0.333,1.867c-1.837,5.898-3.674,11.797-5.51,17.696l0.493,4.718
							c-4.716,12.72-1.107,27.071,4.725,39.319c2.638,5.541,5.738,10.853,9.244,15.884L329.471,165.339z"/>
						<g>
							<path style="fill:none;stroke:#2E2854;stroke-linecap:round;stroke-linejoin:round;stroke-miterlimit:10;" d="
								M316.987,72.833c5.274-1.289,10.924-0.995,16.037,0.834"/>
							<path style="fill:none;stroke:#2E2854;stroke-linecap:round;stroke-linejoin:round;stroke-miterlimit:10;" d="
								M312.918,81.478c1.195-6.744,1.701-12.737,2.206-18.73c0.046-0.544,0.096-1.102,0.34-1.59
								c0.244-0.488,0.732-0.894,1.277-0.876c0.889,0.03,1.356,1.049,1.585,1.908c0.844,3.171,1.333,6.555,1.371,10.123
								c0.533-5.152,1.432-10.351,2.865-15.328c0.144-0.498,0.299-1.008,0.625-1.411c0.326-0.403,0.868-0.676,1.366-0.535
								c0.763,0.215,0.987,1.171,1.06,1.96c0.429,4.657,0.228,9.839-0.607,15.079c0.999-4.736,2.585-9.829,4.635-14.214
								c0.43-0.918,1.202-1.987,2.184-1.737c0.985,0.25,1.149,1.565,1.08,2.58c-0.308,4.551-1.331,9.532-2.208,14.242
								c1.306-3.85,3.101-8.06,5.01-11.651c0.282-0.53,0.579-1.07,1.036-1.461c0.456-0.391,1.109-0.607,1.67-0.393
								c0.594,0.227,0.937,0.881,0.985,1.516c0.048,0.634-0.144,1.259-0.333,1.867c-1.837,5.898-3.674,11.797-5.51,17.696"/>
						</g>
						<path style="fill:#D15046;" d="M333.598,159.799c-11.684-18.522-19.409-39.503-22.362-61.233
							c-0.587,23.393,5.746,46.969,18.234,66.774L333.598,159.799z"/>
					</g>
					<g>
						<path style="fill:#E8614E;" d="M319.697,81.408c3.422-3.107,8.646-4.064,12.743-2.256c1.635-1.661,3.508-3.088,5.544-4.224
							c0.384-0.215,0.785-0.423,1.222-0.477c0.437-0.055,0.921,0.074,1.186,0.425c0.516,0.684-0.052,1.636-0.602,2.292
							c-2.131,2.54-4.261,5.08-5.742,8.074"/>
						<path style="fill:none;stroke:#2E2854;stroke-linecap:round;stroke-linejoin:round;stroke-miterlimit:10;" d="M319.697,81.408
							c3.422-3.107,8.646-4.064,12.743-2.256c1.635-1.661,3.508-3.088,5.544-4.224c0.384-0.215,0.785-0.423,1.222-0.477
							c0.437-0.055,0.921,0.074,1.186,0.425c0.516,0.684-0.052,1.636-0.602,2.292c-2.131,2.54-4.261,5.08-5.742,8.074"/>
					</g>
				</g>
				<g>
					<path style="fill:#FFFFFF;" d="M329.655,177.729c-3.941-3.817-7.457-8.07-10.463-12.659
						c8.484-10.023,18.093-18.305,28.823-24.627l0.001,0.002c1.392,1.998,2.848,3.952,4.364,5.858L329.655,177.729z"/>
					<path style="opacity:0.15;fill:#2E2854;" d="M330.014,153.823c-3.787,3.461-7.4,7.205-10.822,11.247
						c3.006,4.589,6.522,8.842,10.463,12.659l8.274-11.441C335.093,162.26,332.45,158.1,330.014,153.823z"/>
				</g>
				<g>
					<path style="fill:#5767BF;" d="M383.967,173.928c-12.074-7.202-22.834-16.621-31.586-27.625
						c-11.791,9.237-21.738,20.826-29.331,33.95c6.473,7.138,14.155,13.177,22.166,18.562
						c-15.742,21.054-27.395,45.327-33.916,70.793c0.431-1.176,1.485-2.001,2.552-2.656c5.942-3.65,13.328-3.841,20.295-3.537
						c9.101,0.396,18.173,1.451,27.122,3.152c0,0,4.515-51.588,10.646-69.048C374.75,189.444,383.967,173.928,383.967,173.928z"/>
					<path style="opacity:0.15;fill:#2E2854;" d="M382.356,176.699l-15.881,4.039c-3.165,25.086-5.206,85.829-5.206,85.829
						s4.515-51.588,10.646-69.048C374.01,191.552,379.585,181.53,382.356,176.699z"/>
					<path style="fill:#6476DB;" d="M361.269,266.567c3.231-32.704,11.804-64.362,24.385-94.711
						c-4.622,0.432-9.151,1.698-13.296,3.836C365.885,205.339,362.291,235.614,361.269,266.567z"/>
					<path style="opacity:0.15;fill:#2E2854;" d="M323.05,180.253c6.473,7.138,14.155,13.177,22.166,18.562
						c2.811-4.092,6.634-8.432,10.407-11.659c-7.577-7.441-14.331-15.671-20.173-24.494
						C330.825,168.124,326.663,174.008,323.05,180.253z"/>
				</g>
			</g>
		</g>
	</g>
</g>
</svg>
