<?xml version="1.0" encoding="utf-8"?>
<!-- Generator: Adobe Illustrator 27.5.0, SVG Export Plug-In . SVG Version: 6.00 Build 0)  -->
<svg version="1.1" xmlns="http://www.w3.org/2000/svg" xmlns:xlink="http://www.w3.org/1999/xlink" x="0px" y="0px"
	 viewBox="0 0 750 500" style="enable-background:new 0 0 750 500;" xml:space="preserve">
<g id="BACKGROUND">
	<rect style="fill:#FFFFFF;" width="750" height="500"/>
</g>
<g id="OBJECTS">
	<path style="fill:#FFFADB;" d="M238.269,85.879c-46.25,9.809-94.836,29.969-128.31,62.932
		c-34.053,33.533-51.914,85.862-33.124,129.266c18.096,41.799,63.744,65.264,107.581,80.955
		c92.392,33.071,192.208,46.455,290.381,38.936c57.816-4.428,119.037-18.113,158.508-59.344
		c70.917-74.08,36.68-192.589-48.974-239.225c-50.173-27.317-114.352-28.966-170.523-29.885
		c-57.524-0.941-115.125,4.278-171.475,15.529C240.98,85.313,239.625,85.592,238.269,85.879z"/>
	<g>
		<g>
			<g>
				<path style="fill:#FFB13B;" d="M212.415,406.059c-2.56,7.702-5.981,13.796-9.964,20.868l-9.508-0.107l-2.312-0.028
					l-25.155-0.281c-6.459-1.362-12.237-5.683-15.36-11.5c-3.128-5.818-3.545-13.019-1.108-19.158c1.35-3.409,3.5-6.431,5.187-9.688
					c1.682-3.258,2.92-6.954,2.228-10.555c-0.788-4.102-3.882-7.292-6.617-10.442c-2.729-3.151-5.367-6.96-4.94-11.106
					c0.456-4.355,4.09-7.573,7.309-10.532c3.224-2.965,6.515-6.78,5.953-11.118c-0.568-4.411-4.9-7.41-6.279-11.635
					c-1.693-5.193,1.817-11.089,6.808-13.306c0.596-0.264,1.204-0.484,1.823-0.664c1.457-0.428,2.971-0.625,4.495-0.63
					c3.252-0.017,6.566,0.827,9.553,2.172c6.853,3.089,12.507,8.754,15.574,15.613c3.066,6.858,3.528,14.853,1.26,22.016
					c-0.748,2.357-1.778,4.636-2.228,7.072c-0.45,2.43-0.231,5.131,1.3,7.072c1.952,2.481,5.39,3.055,8.355,4.147
					c7.612,2.802,13.109,9.987,15.169,17.835C216.011,389.951,214.97,398.356,212.415,406.059z"/>
			</g>
			<path style="fill:#FFDEAB;" d="M196.922,398.711c-1.271,5.514-3.348,10.819-4.383,16.389c-0.675,3.646-0.911,7.517-0.107,11.157
				l-2.313-0.028c-2.07-10.319,3.235-20.317,5.086-30.298c0.861-4.636,0.866-9.57-0.923-13.993
				c-0.833-2.048-2.093-3.899-3.742-5.367c-1.8-1.609-4.04-2.695-6.268-3.584c-4.439-1.783-9.103-3.094-12.766-6.33
				c-1.671-1.48-3.033-3.359-3.674-5.514c-0.731-2.436-0.433-5.035,0.394-7.404c0.872-2.492,2.2-4.782,3.449-7.1
				c1.243-2.307,2.29-4.687,3.055-7.196c1.525-5.002,1.992-10.392,0.889-15.529c-1.733-8.085-7.624-15.343-15.652-17.672
				c1.457-0.428,2.971-0.624,4.495-0.63c7.545,3.832,12.592,11.618,13.723,19.99c0.709,5.272,0.028,10.69-1.699,15.714
				c-0.878,2.549-2.042,4.951-3.331,7.309c-1.249,2.296-2.566,4.608-3.19,7.162c-0.563,2.29-0.332,4.636,0.9,6.673
				c1.12,1.862,2.864,3.275,4.704,4.388c4.197,2.532,9.131,3.449,13.385,5.868c4.27,2.425,7.1,6.375,8.304,11.112
				C198.503,388.736,198.047,393.827,196.922,398.711z"/>
		</g>
		<g>
			<path style="fill:#FFD059;" d="M264.325,369.499c0.962,4.366-1.992,8.749-5.66,11.314c-3.668,2.566-8.046,3.888-11.95,6.071
				c-3.91,2.183-7.567,5.694-7.944,10.15c-0.309,3.635,1.632,7.078,3.882,9.947c2.251,2.864,4.906,5.48,6.476,8.777
				c1.564,3.291,2.173,8.496-0.303,11.168l-41.106-0.197l-2.335,0.039l-9.16,0.158c-6.273-9.531-5.812-23,1.086-32.081
				c3.184-4.18,7.466-7.365,11.219-11.044c3.753-3.68,7.117-8.192,7.624-13.424c0.506-5.289-1.992-10.51-1.547-15.804
				c0.259-3.055,1.525-6.02,3.561-8.316c2.2-2.481,5.182-4.118,8.096-5.705c6.059-3.303,12.119-6.605,18.178-9.908
				c3.59-1.958,7.331-3.955,11.41-4.192c1.57-0.09,3.201,0.157,4.687,0.726c0.928,0.354,1.8,0.827,2.56,1.418
				c1.193,0.923,2.121,2.132,2.582,3.595c1.333,4.231-1.53,8.552-4.344,11.984c-2.813,3.426-5.936,7.41-5.187,11.787
				C257.056,361.223,263.172,364.289,264.325,369.499z"/>
			<path style="fill:#FFDEAB;" d="M263.099,328.596c-3.325,1.227-6.577,2.65-9.734,4.265c-2.256,1.159-4.462,2.402-6.611,3.741
				c-1.834,1.142-3.635,2.346-5.109,3.944c-1.294,1.401-2.34,3.213-2.093,5.187c0.253,2.02,1.716,3.697,2.757,5.362
				c1.159,1.857,1.891,3.899,1.75,6.116c-0.141,2.166-0.928,4.259-2.104,6.065c-2.605,4.012-6.864,6.302-10.971,8.496
				c-3.916,2.099-7.584,4.473-10.848,7.511c-6.448,6.009-11.151,13.818-13.272,22.381c-2.037,8.203-1.738,17.008,0.855,25.065
				l-2.335,0.039c-2.819-9.188-2.813-19.281,0.079-28.441c2.712-8.58,7.927-16.361,14.803-22.156
				c1.716-1.446,3.528-2.785,5.429-3.978c2.025-1.272,4.169-2.346,6.262-3.5c3.944-2.172,8.012-4.884,9.435-9.401
				c0.63-2.003,0.579-4.085-0.394-5.964c-1.001-1.924-2.453-3.561-3.235-5.604c-1.75-4.523,1.519-8.518,4.929-11.101
				c1.907-1.446,4.006-2.661,6.082-3.843c2.273-1.288,4.608-2.481,6.988-3.573c1.575-0.72,3.168-1.401,4.777-2.031
				C261.467,327.533,262.339,328.005,263.099,328.596z"/>
		</g>
		<g>
			<path style="fill:#FFD059;" d="M579.337,396.365c-1.823,5.519-6.74,9.492-11.956,12.074c-5.21,2.582-10.898,4.096-16.142,6.611
				c-5.244,2.515-10.352,6.29-12.389,11.736h-49.146c2.436-4.912-0.613-9.514-3.955-13.863c-3.348-4.349-7.798-7.815-10.763-12.428
				c-2.386-3.708-3.573-8.676-2.082-12.637c0.287-0.771,0.681-1.508,1.187-2.183c0.129-0.18,0.265-0.349,0.411-0.518
				c2.402-2.768,6.256-3.747,9.897-4.186c3.646-0.433,7.427-0.501,10.769-2.02c3.336-1.519,6.144-5.047,5.384-8.636
				c-1.086-5.148-8.169-6.757-10.307-11.562c-1.733-3.882,0.501-8.58,3.888-11.146c1.401-1.063,2.954-1.851,4.58-2.498
				c0.934-0.377,1.89-0.703,2.858-1.007c1.429-0.444,2.875-0.838,4.298-1.26c4.073-1.204,8.293-2.83,10.909-6.172
				c2.903-3.702,3.252-8.704,4.079-13.334c1.418-7.916,4.929-15.939,11.641-20.367c3.443-2.267,7.843-3.201,11.917-2.678
				c0.805,0.107,1.598,0.27,2.369,0.49c2.931,0.833,5.531,2.509,7.252,5.086c4.203,6.279,1.935,14.747-1.159,21.633
				c-1.361,3.027-2.852,6.594-1.238,9.492c1.378,2.47,4.535,3.365,7.365,3.348c2.83-0.023,5.654-0.72,8.473-0.405
				c2.937,0.321,5.565,1.834,7.545,3.995c0.512,0.551,0.979,1.142,1.395,1.772c1.71,2.566,2.633,5.699,2.38,8.777
				c-0.551,6.78-6.043,12.609-12.586,14.46c-2.138,0.602-4.394,0.844-6.425,1.738c-2.031,0.9-3.893,2.684-4,4.901
				c-0.174,3.438,3.758,5.666,7.196,5.885c3.432,0.225,6.993-0.658,10.262,0.422c2.796,0.928,4.788,3.207,5.84,5.953
				c0.293,0.754,0.512,1.553,0.653,2.363C580.102,392.246,579.984,394.407,579.337,396.365z"/>
			<path style="fill:#FFDEAB;" d="M534.343,326.424c-0.951,4.344-0.996,8.732-0.315,13.126c0.714,4.636,1.896,9.244,1.879,13.965
				c-0.011,3.122-0.518,6.15-1.3,9.115c-0.202,0.748-0.416,1.485-0.647,2.228c-1.502,4.799-3.623,9.452-5.458,14.099
				c-2.121,5.373-3.758,10.926-4.855,16.592c-0.152,0.765-0.293,1.536-0.416,2.307c-0.411,2.431-0.72,4.884-0.928,7.348
				c-0.602,7.196-0.371,14.454,0.72,21.582h-2.279c-1.142-7.708-1.322-15.551-0.534-23.304c0.051-0.49,0.107-0.973,0.163-1.463
				c0.034-0.264,0.062-0.529,0.101-0.793c0.54-4.287,1.356-8.535,2.481-12.71c1.193-4.428,2.768-8.721,4.512-12.963
				c0.399-0.968,0.799-1.941,1.198-2.909c0.298-0.737,0.596-1.468,0.895-2.206c0.979-2.453,1.891-4.934,2.622-7.472
				c1.255-4.405,1.755-8.85,1.238-13.407c-0.54-4.715-1.823-9.317-2.087-14.066c-0.242-4.366,0.428-8.755,1.693-12.924
				c2.436-8.034,6.87-15.264,11.388-22.28c0.805,0.107,1.598,0.27,2.369,0.49c-0.467,0.72-0.934,1.435-1.39,2.155
				C540.746,310.226,536.211,317.889,534.343,326.424z"/>
			<path style="fill:#FFDEAB;" d="M520.587,403.403c-0.124,0.028-0.253,0.056-0.377,0.079c-4.197,0.878-8.518,0.895-12.732,0.067
				c-3.753-0.731-7.399-2.155-10.639-4.186c-3.528-2.217-6.498-5.21-10.06-7.376c-4.186-2.543-9.002-3.95-13.874-4.13
				c0.287-0.771,0.681-1.508,1.187-2.183c1.041,0.079,2.076,0.203,3.111,0.377c3.77,0.647,7.444,2.003,10.712,3.989
				c3.561,2.172,6.532,5.165,10.06,7.382c6.487,4.068,14.538,5.463,22.016,3.809c0.174-0.039,0.338-0.039,0.484-0.006
				C521.521,401.428,521.825,403.127,520.587,403.403z"/>
			<path style="fill:#FFDEAB;" d="M579.736,390.198c-0.799,0.63-1.631,1.215-2.492,1.755c-7.528,4.732-16.558,5.857-25.279,5.846
				c-9.57-0.006-19.208-1.316-28.733,0.056c-0.141,0.017-0.287,0.039-0.428,0.062c-0.602,0.096-1.204-0.141-1.384-0.782
				c-0.146-0.54,0.186-1.294,0.788-1.39c0.478-0.073,0.962-0.141,1.44-0.197c4.901-0.625,9.846-0.63,14.78-0.45
				c9.306,0.332,18.831,1.243,27.974-1.035c4.58-1.142,9.069-3.184,12.682-6.228C579.376,388.589,579.595,389.388,579.736,390.198z"
				/>
			<path style="fill:#FFDEAB;" d="M529.353,372.667c-0.231,0-0.456-0.011-0.686-0.022c-3.837-0.174-7.612-1.508-10.69-3.826
				c-3.01-2.262-5.035-5.3-6.69-8.642c-1.649-3.331-3.066-6.83-5.536-9.666c-1.969-2.256-4.377-4.09-7.038-5.401
				c0.934-0.377,1.89-0.703,2.858-1.007c2.16,1.3,4.124,2.926,5.772,4.816c2.509,2.875,4.028,6.301,5.683,9.7
				c1.587,3.258,3.449,6.363,6.442,8.518c2.886,2.071,6.329,3.246,9.885,3.28c0.073,0,0.141,0.006,0.208,0.022
				C530.799,370.647,530.731,372.678,529.353,372.667z"/>
			<path style="fill:#FFDEAB;" d="M576.417,345.7c-0.585,0.371-1.159,0.748-1.733,1.131c-3.235,2.161-6.352,4.484-9.357,6.954
				c-2.869,2.357-5.694,4.811-8.85,6.78c-3.258,2.031-6.819,3.336-10.617,3.888c-3.899,0.563-7.832,0.512-11.765,0.416
				c-0.045,0-0.096-0.006-0.135-0.011c-1.311-0.169-1.266-2.273,0.135-2.239c0.169,0.006,0.343,0.006,0.512,0.011
				c4.135,0.096,8.327,0.18,12.4-0.647c3.64-0.743,6.892-2.307,9.936-4.417c2.982-2.076,5.683-4.518,8.524-6.78
				c3.072-2.442,6.256-4.732,9.553-6.859C575.533,344.479,576,345.07,576.417,345.7z"/>
		</g>
		<g>
			<path style="fill:#FFB13B;" d="M607.356,381.309c-1.879,2.712-5.053,4.287-8.265,5.03c-3.218,0.743-6.549,0.765-9.84,1.013
				c-1.463,0.113-2.959,0.281-4.254,0.973c-1.288,0.692-2.335,2.025-2.273,3.488c0.073,1.845,1.851,3.218,3.646,3.629
				c1.8,0.411,3.674,0.135,5.519,0.18c3.933,0.09,7.899,1.795,10.274,4.929c1.243,1.632,1.98,3.663,2.104,5.711
				c0.051,0.771,0.011,1.542-0.124,2.296c-0.186,1.075-0.557,2.116-1.131,3.055c-2.481,4.062-7.776,5.413-12.535,5.413
				c-4.76,0-9.57-0.979-14.24-0.051c-4.67,0.928-10.049,5.058-9.852,9.812h-37.927c2.217-4.929,2.622-10.791-0.371-15.303
				c-1.558-2.357-3.742-4.304-4.974-6.847c-1.795-3.697-1.193-8.355,1.249-11.658c0.169-0.225,0.343-0.445,0.523-0.653
				c0.36-0.411,0.743-0.799,1.153-1.148c2.881-2.515,6.965-3.612,10.752-2.965c3.297,0.563,6.926,2.251,9.734,0.439
				c2.903-1.874,2.717-6.296,1.142-9.368c-1.581-3.072-4.164-5.621-5.261-8.895c-1.311-3.927-0.096-8.58,2.965-11.365
				c0.118-0.107,0.236-0.208,0.354-0.304c0.658-0.546,1.378-0.996,2.144-1.362c2.824-1.345,6.24-1.469,9.104-0.197
				c2.43,1.08,5.002,3.111,7.427,2.02c2.403-1.075,2.633-4.293,3.094-6.887c1.429-8.029,9.103-14.471,17.261-14.488
				c0.658,0,1.328,0.045,1.992,0.146c1.21,0.18,2.402,0.54,3.443,1.103c1.187,0.636,2.189,1.542,2.819,2.746
				c1.339,2.549,0.647,5.722-0.681,8.276c-1.328,2.554-3.235,4.782-4.484,7.376c-1.243,2.594-1.727,5.846-0.158,8.259
				c1.947,2.993,6.076,3.471,9.649,3.522c3.078,0.045,6.51,0.152,8.901,1.896c0.394,0.281,0.754,0.608,1.08,0.985
				c0.225,0.259,0.428,0.535,0.596,0.821C609.415,375.423,609.044,378.878,607.356,381.309z"/>
			<path style="fill:#FFDEAB;" d="M590.19,339.055c-6.318,1.716-11.264,7.083-14.128,12.85c-3.545,7.134-4.597,15.168-6.133,22.888
				c-0.107,0.54-0.219,1.075-0.326,1.615c-0.163,0.759-0.326,1.519-0.501,2.273c-0.625,2.689-1.362,5.345-2.335,7.928
				c-1.39,3.685-3.286,7.112-5.559,10.324c-2.149,3.021-4.546,5.84-6.937,8.676c-0.67,0.793-1.339,1.587-1.997,2.386
				c-1.891,2.29-3.719,4.619-5.345,7.106c-2.307,3.539-4.304,7.522-5.255,11.686h-2.295c1.097-5.261,3.747-10.279,6.836-14.617
				c0.219-0.304,0.439-0.608,0.658-0.911c0.456-0.613,0.917-1.221,1.384-1.817c4.135-5.294,8.839-10.15,12.479-15.821
				c2.194-3.421,3.832-7.089,4.996-10.982c0.056-0.197,0.118-0.388,0.169-0.585c0.214-0.72,0.411-1.446,0.591-2.172
				c0.816-3.201,1.423-6.459,2.037-9.705c1.485-7.866,3.072-16.091,7.579-22.876c2.644-3.972,6.313-7.399,10.639-9.345
				C587.956,338.133,589.149,338.493,590.19,339.055z"/>
			<path style="fill:#FFDEAB;" d="M548.167,411.809c-0.45-0.152-0.878-0.338-1.294-0.551c-2.059-1.03-3.702-2.695-5.126-4.529
				c-1.519-1.958-2.869-4.017-4.58-5.817c-1.57-1.637-3.314-3.095-5.21-4.338c-2.346-1.536-4.912-2.757-7.595-3.595
				c0.169-0.225,0.343-0.445,0.523-0.653c0.36-0.411,0.743-0.799,1.153-1.148c0.366,0.124,0.726,0.259,1.086,0.4
				c4.31,1.688,8.259,4.259,11.478,7.584c1.789,1.845,3.201,3.961,4.754,5.998c1.317,1.722,2.875,3.426,4.901,4.282
				c0.169,0.073,0.332,0.141,0.506,0.197C550.131,410.109,549.54,412.281,548.167,411.809z"/>
			<path style="fill:#FFDEAB;" d="M604.143,408.557c-3.573,0.602-7.185,0.968-10.808,0.94c-4.479-0.034-8.923-0.653-13.351-1.232
				c-4.45-0.579-8.901-1.046-13.391-1.108c-4.563-0.056-9.137,0.231-13.655,0.883c-0.231,0.034-0.456,0.017-0.664-0.045
				c-0.338-0.101-0.613-0.338-0.726-0.743c-0.146-0.529,0.186-1.294,0.788-1.384c0.641-0.09,1.289-0.18,1.935-0.259
				c4.45-0.551,8.935-0.793,13.419-0.681c8.957,0.225,17.762,2.436,26.725,2.312c3.32-0.045,6.6-0.411,9.852-0.979
				C604.318,407.032,604.278,407.803,604.143,408.557z"/>
			<path style="fill:#FFDEAB;" d="M566.104,382.113c-0.068-0.017-0.135-0.039-0.203-0.062c-2.526-0.737-4.467-2.599-5.874-4.771
				c-1.424-2.189-2.228-4.709-3.224-7.106c-0.99-2.386-2.307-4.535-4.118-6.38c-2.037-2.076-4.428-3.691-6.96-5.075
				c0.658-0.546,1.378-0.996,2.144-1.362c0.231,0.129,0.456,0.264,0.681,0.399c4.433,2.695,8.057,6.273,10.116,11.089
				c1.699,3.972,3.134,9.638,7.826,11.033c0.068,0.023,0.141,0.045,0.208,0.062C568.101,380.313,567.505,382.484,566.104,382.113z"
				/>
			<path style="fill:#FFDEAB;" d="M607.913,372.937c-12.383,4.45-25.757,5.148-38.81,5.744c-0.242,0.011-0.478,0.023-0.72,0.034
				c-1.451,0.068-1.446-2.183,0-2.251c0.405-0.017,0.816-0.039,1.221-0.056c3.786-0.174,7.573-0.354,11.354-0.641
				c8.518-0.641,17.177-1.879,25.279-4.636c0.394,0.281,0.754,0.608,1.08,0.985C607.541,372.374,607.744,372.65,607.913,372.937z"/>
		</g>
	</g>
	<g>
		<g>
			<g>
				<g>
					<path style="fill:#FFA41B;" d="M116.592,424.33l0.032,0.249l0,0.008c0,0.017,0,0.042,0.016,0.058
						c0.008,0.108,0.015,0.216,0.031,0.324c0.008,0.116,0.024,0.241,0.048,0.365c0.008,0.116,0.032,0.241,0.056,0.357
						c0.032,0.166,0.065,0.324,0.105,0.507c0.024,0.166,0.048,0.349,0.097,0.523l38.283,0.205c0,0,0.052-0.39,0.055-1.02
						c-0.008-0.108-0.007-0.241-0.023-0.365c-0.008-0.116-0.015-0.232-0.023-0.365c-0.016-0.124-0.032-0.249-0.056-0.39
						c-0.008-0.075-0.024-0.166-0.04-0.249c-0.412-2.168-1.964-5.138-7.186-6.129c-0.249-0.059-0.522-0.102-0.804-0.129
						c-0.423-0.069-0.837-0.104-1.285-0.14c-0.249-0.018-0.498-0.036-0.738-0.07c-10.251-0.901-14.771-4.377-14.771-4.377
						s-6.088,1.187-11.765-0.063c0,0-0.544,0.877-1.084,2.45c-0.16,0.464-0.321,0.986-0.465,1.549
						c-0.008,0.025-0.008,0.041-0.017,0.066c-0.025,0.074-0.034,0.149-0.068,0.224c-0.034,0.158-0.06,0.315-0.086,0.481
						c-0.009,0.05-0.034,0.116-0.034,0.158c0,0.033-0.025,0.05-0.025,0.091c-0.162,0.779-0.266,1.65-0.329,2.579
						C116.471,422.197,116.474,423.234,116.592,424.33z"/>
					<path style="fill:#FFFFFF;" d="M116.672,424.969c0.008,0.116,0.024,0.241,0.048,0.365c0.008,0.116,0.032,0.241,0.056,0.357
						c0.032,0.166,0.065,0.324,0.105,0.507c0.024,0.166,0.048,0.349,0.097,0.523l38.283,0.205c0,0,0.052-0.39,0.055-1.02
						c-0.008-0.108-0.007-0.241-0.023-0.365c-0.008-0.116-0.015-0.232-0.023-0.365L116.672,424.969z"/>
					<path style="fill:#FFFFFF;" d="M134.181,414.019c-0.13-0.121-0.3-0.21-0.483-0.203c-0.193,0.008-0.334,0.079-0.485,0.198
						c-0.106,0.083-0.212,0.165-0.318,0.246c-0.507,0.386-1.022,0.762-1.546,1.124c-0.149,0.103-0.266,0.228-0.317,0.407
						c-0.046,0.164-0.027,0.382,0.066,0.528c0.186,0.292,0.62,0.468,0.935,0.251c0.731-0.505,1.444-1.035,2.143-1.583
						c0.129-0.101,0.202-0.327,0.203-0.483C134.38,414.336,134.306,414.136,134.181,414.019z"/>
					<path style="fill:#FFFFFF;" d="M136.884,415.253c-0.255-0.237-0.717-0.294-0.967-0.005c-0.504,0.58-1.066,1.107-1.674,1.576
						c-0.098,0.072-0.195,0.145-0.295,0.215c-0.149,0.104-0.266,0.227-0.317,0.407c-0.046,0.164-0.027,0.382,0.066,0.528
						c0.185,0.29,0.621,0.47,0.935,0.251c0.826-0.577,1.586-1.242,2.247-2.003c0.121-0.139,0.202-0.293,0.203-0.483
						C137.083,415.57,137.009,415.369,136.884,415.253z"/>
					<path style="fill:#FFFFFF;" d="M139.37,416.15c-0.13-0.12-0.3-0.21-0.483-0.203c-0.168,0.007-0.376,0.059-0.485,0.198
						l-1.563,1.987c-0.117,0.149-0.202,0.284-0.203,0.483c-0.001,0.168,0.072,0.368,0.198,0.485c0.13,0.12,0.3,0.21,0.483,0.203
						c0.168-0.007,0.376-0.059,0.485-0.198l1.563-1.987c0.117-0.149,0.202-0.284,0.203-0.483
						C139.569,416.467,139.496,416.266,139.37,416.15z"/>
					<path style="fill:#FFFFFF;" d="M142.13,416.81c-0.327-0.175-0.743-0.089-0.937,0.24c-0.349,0.59-0.698,1.179-1.047,1.769
						c-0.182,0.308-0.085,0.763,0.24,0.937c0.327,0.175,0.743,0.089,0.937-0.24c0.349-0.59,0.698-1.179,1.047-1.769
						C142.552,417.439,142.456,416.984,142.13,416.81z"/>
				</g>
				<g>
					<path style="fill:#FFA41B;" d="M85.323,424.33l-0.032,0.249l0,0.008c0,0.017,0,0.042-0.016,0.058
						c-0.008,0.108-0.015,0.216-0.031,0.324c-0.008,0.116-0.024,0.241-0.048,0.365c-0.008,0.116-0.032,0.241-0.056,0.357
						c-0.032,0.166-0.065,0.324-0.105,0.507c-0.024,0.166-0.048,0.349-0.097,0.523l-38.283,0.205c0,0-0.052-0.39-0.055-1.02
						c0.008-0.108,0.007-0.241,0.023-0.365c0.008-0.116,0.015-0.232,0.023-0.365c0.016-0.124,0.032-0.249,0.056-0.39
						c0.008-0.075,0.024-0.166,0.04-0.249c0.411-2.168,1.964-5.138,7.186-6.129c0.249-0.059,0.522-0.102,0.804-0.129
						c0.423-0.069,0.838-0.104,1.285-0.14c0.249-0.018,0.498-0.036,0.738-0.07c10.251-0.901,14.771-4.377,14.771-4.377
						s6.088,1.187,11.765-0.063c0,0,0.544,0.877,1.084,2.45c0.16,0.464,0.321,0.986,0.465,1.549
						c0.008,0.025,0.009,0.041,0.017,0.066c0.025,0.074,0.034,0.149,0.068,0.224c0.034,0.158,0.06,0.315,0.086,0.481
						c0.009,0.05,0.034,0.116,0.034,0.158c0,0.033,0.025,0.05,0.025,0.091c0.162,0.779,0.266,1.65,0.329,2.579
						C85.444,422.197,85.442,423.234,85.323,424.33z"/>
					<path style="fill:#FFFFFF;" d="M85.244,424.969c-0.008,0.116-0.024,0.241-0.048,0.365c-0.008,0.116-0.032,0.241-0.056,0.357
						c-0.032,0.166-0.065,0.324-0.105,0.507c-0.024,0.166-0.048,0.349-0.097,0.523l-38.283,0.205c0,0-0.052-0.39-0.055-1.02
						c0.008-0.108,0.007-0.241,0.023-0.365c0.008-0.116,0.015-0.232,0.023-0.365L85.244,424.969z"/>
					<path style="fill:#FFFFFF;" d="M67.735,414.019c0.13-0.121,0.3-0.21,0.483-0.203c0.193,0.008,0.334,0.079,0.485,0.198
						c0.106,0.083,0.212,0.165,0.318,0.246c0.507,0.386,1.022,0.762,1.546,1.124c0.149,0.103,0.266,0.228,0.317,0.407
						c0.046,0.164,0.027,0.382-0.066,0.528c-0.186,0.292-0.62,0.468-0.935,0.251c-0.731-0.505-1.444-1.035-2.143-1.583
						c-0.129-0.101-0.202-0.327-0.203-0.483C67.536,414.336,67.609,414.136,67.735,414.019z"/>
					<path style="fill:#FFFFFF;" d="M65.032,415.253c0.255-0.237,0.717-0.294,0.967-0.005c0.504,0.58,1.066,1.107,1.674,1.576
						c0.098,0.072,0.195,0.145,0.295,0.215c0.149,0.104,0.266,0.227,0.317,0.407c0.046,0.164,0.027,0.382-0.066,0.528
						c-0.185,0.29-0.621,0.47-0.935,0.251c-0.826-0.577-1.586-1.242-2.247-2.003c-0.121-0.139-0.202-0.293-0.203-0.483
						C64.833,415.57,64.906,415.369,65.032,415.253z"/>
					<path style="fill:#FFFFFF;" d="M62.545,416.15c0.13-0.12,0.3-0.21,0.483-0.203c0.168,0.007,0.376,0.059,0.485,0.198
						l1.563,1.987c0.117,0.149,0.202,0.284,0.203,0.483c0.001,0.168-0.072,0.368-0.198,0.485c-0.13,0.12-0.3,0.21-0.483,0.203
						c-0.168-0.007-0.376-0.059-0.485-0.198l-1.562-1.987c-0.117-0.149-0.202-0.284-0.203-0.483
						C62.347,416.467,62.42,416.266,62.545,416.15z"/>
					<path style="fill:#FFFFFF;" d="M59.786,416.81c0.327-0.175,0.743-0.089,0.937,0.24c0.349,0.59,0.698,1.179,1.047,1.769
						c0.182,0.308,0.085,0.763-0.24,0.937c-0.327,0.175-0.743,0.089-0.937-0.24c-0.349-0.59-0.698-1.179-1.047-1.769
						C59.363,417.439,59.46,416.984,59.786,416.81z"/>
				</g>
				<path style="fill:#F08F6A;" d="M102.957,245.829c4.698,42.689,15.644,167.8,15.644,167.8c7.209,1.337,11.765,0.063,11.765,0.063
					c7.736-97.921,5.116-167.863,5.116-167.863H102.957z"/>
				<path style="fill:#F08F6A;" d="M77.03,245.829c-1.332,9.596-5.505,167.863-5.505,167.863s4.637,1.801,11.765-0.063l26.543-167.8
					H77.03z"/>
			</g>
			<g>
				<path style="fill:#2C3560;" d="M132.698,406.841c-1.522,1.577-15.686,0.966-17.026-0.064
					c-1.34-1.039-10.099-129.882-10.099-129.882S89.732,405.319,88.602,406.614c-0.656,0.747-6.635,0.911-11.794,0.611
					c-0.091,0-0.182-0.009-0.273-0.009c-0.219-0.009-0.428-0.027-0.638-0.036c-0.091-0.009-0.182-0.009-0.273-0.018
					c-3.254-0.246-5.934-0.674-6.398-1.249c-1.212-1.54-0.009-141.402,8.44-163.505l57.403-0.629
					C141.521,268.766,134.22,405.255,132.698,406.841z"/>
				<path style="fill:#FFFFFF;" d="M82.769,258.713c-0.009,0.1-0.018,0.191-0.018,0.292l-2.233,32.502
					c-1.194,19.487-2.124,38.992-2.789,58.506c-0.647,19.058-1.048,38.126-1.194,57.203c-0.219-0.009-0.428-0.027-0.638-0.036
					c-0.091-0.009-0.182-0.009-0.273-0.018c0.073-10.482,0.237-20.982,0.474-31.463c0.428-19.523,1.13-39.028,2.096-58.533
					c0.948-19.277,2.151-38.545,3.618-57.795c0.009-0.219,0.027-0.438,0.046-0.656C81.903,258.129,82.815,258.129,82.769,258.713z"
					/>
				<path style="fill:#FFFFFF;" d="M84.439,257.47c-0.018,0.219-0.036,0.438-0.046,0.656c-1.467,19.25-2.67,38.518-3.618,57.795
					c-0.966,19.505-1.668,39.01-2.096,58.533c-0.237,10.536-0.401,22.299-0.474,32.835c0.301,0.018,0.602,0.036,0.911,0.046
					c0.146-19.122,0.547-39.461,1.194-58.565c0.665-19.514,1.595-39.019,2.789-58.506l2.233-32.502c0-0.1,0.009-0.191,0.018-0.292
					C85.396,256.887,84.485,256.887,84.439,257.47z"/>
				<path style="fill:#FFFFFF;" d="M94.688,247.793c-3.525,5.743-9.322,9.929-15.876,11.487c-0.57,0.136-0.329,1.015,0.242,0.879
					c6.78-1.612,12.777-5.968,16.42-11.906C95.782,247.752,94.994,247.294,94.688,247.793z"/>
			</g>
		</g>
		<g>
			<g>
				<path style="fill:#F08F6A;" d="M179.756,160.967c0,0,4.023,1.205,6.681-1.372c2.612-2.533,2.257-5.353,2.257-5.353
					s5.447,1.281,6.257,0.343c0.811-0.938-5.174-3.019-5.174-3.019s6.482-0.952,6.404-2.025c-0.078-1.073-7.072-0.563-7.072-0.563
					s5.981-3.992,5.173-5.212c-0.808-1.219-8.214,3.689-8.214,3.689s1.471-6.158,0.178-6.499c-1.86-0.49-6.17,10.717-6.295,10.647
					c-0.125-0.071-3.578-4.689-5.171-2.979c-1.538,1.65,1.414,2.673,1.965,5.31C177.003,155.161,177.218,159.854,179.756,160.967z"
					/>
				<path style="fill:#F08F6A;" d="M127.073,169.228c14.649,6.547,32.607,22.346,33.872,22.039
					c2.596-0.629,16.44-33.813,16.44-33.813c2.001-1.336,8.111,0.653,8.227,2.799c0,0-10.067,43.587-21.098,45.777
					c-11.647,2.312-36.317-14.04-36.317-14.04L127.073,169.228z"/>
				<path style="fill:#00A8CC;" d="M127.073,169.228c7.47,2.301,32.613,20.378,33.137,20.32c0.524-0.058,5.469-11.054,5.469-11.054
					s9.192,2.502,13.439,9.192c0,0-6.458,17.744-14.661,19.431c-8.203,1.687-36.128-13.497-36.128-13.497L127.073,169.228z"/>
			</g>
			<g>
				<g>
					<g>
						<g>
							<g>
								<g>
									<g>
										<g>
											<g>
												<g>
													<g>
														<g>
															<g>
																<path style="fill:#FFA41B;" d="M128.201,208.002l6.868,33.777c-23.973,7.315-56.737,1.325-57.405,0.624
																	c-0.419-0.433,9.783-33.259,12.673-42.525c0.162-0.503,0.299-0.924,0.408-1.277
																	c0.227-0.732,0.353-1.139,0.353-1.139l0.338-2.72l0.153-1.261l0.472-3.785l0.162-1.288l2.548-20.588l0-0.077
																	l11.018-3.048l10.741,0.512l10.749,4.076c5.774,8.189,2.313,21.732,0.354,27.666
																	c-0.151,0.488-0.313,0.914-0.445,1.283c-0.378,1.066-0.626,1.673-0.626,1.673l0.425,2.118l0.256,1.245l0.713,3.474
																	L128.201,208.002z"/>
															</g>
														</g>
													</g>
												</g>
											</g>
										</g>
									</g>
								</g>
							</g>
						</g>
					</g>
				</g>
			</g>
			<path style="fill:#F08F6A;" d="M94.769,167.821c-14.205,4.142-21.728,28.728-21.728,28.728l-18.024-29.645
				c-1.359-0.195-8.248,1.722-8.896,3.83c0,0,15.842,44.443,26.251,45.684c11.229,1.338,20.684-23.853,20.684-23.853L94.769,167.821
				z"/>
			<path style="fill:#00A8CC;" d="M94.769,167.821c-13.972,4.099-21.884,25.819-21.884,25.819l-5.042-9.851
				c0,0-10.007,3.103-13.73,11.17c0,0,8.843,22.263,18.384,22.883c9.541,0.621,22.272-24.667,22.272-24.667V167.821z"/>
			<path style="fill:#F08F6A;" d="M55.017,166.903c0.696-1.653-0.675-3.529-0.367-5.383c0.308-1.854,2.559-5.42,0.835-6.56
				c-1.926-1.274-4.891,4.33-4.891,4.33s-7.605-10.159-9.544-9.18c-1.673,0.844,3.335,8.702,3.335,8.702s-3.814,1.552-3.392,5.64
				c0.392,3.794,5.127,6.281,5.127,6.281L55.017,166.903z"/>
			<g>
				<path style="fill:#00A8CC;" d="M99.895,240.62c-0.283,1.185-0.592,2.379-0.902,3.582c-0.902,3.427-1.923,6.927-3.072,10.482
					c0,0-17.217,0.62-27.307-8.066l3.682-8.595l1.422-3.318l13.189-30.752l7.866-36.13l7.146-2.06
					C101.919,165.763,110.486,196.944,99.895,240.62z"/>
				<path style="fill:#008BA8;" d="M99.895,240.62c-0.283,1.185-0.592,2.379-0.902,3.582c-9.178-0.629-18.174-2.725-26.696-6.18
					l1.422-3.318C82.049,238.086,90.926,240.083,99.895,240.62z"/>
			</g>
			<g>
				<path style="fill:#00A8CC;" d="M121.979,241.213c0.52-33.979-4.338-75.587-4.338-75.587l9.634,3.655
					c7.966,8.531,0.647,30.798,0.647,30.798l8.868,38.791l0.811,3.555l2.188,9.552c-5.004,2.324-18.348,2.716-18.348,2.716
					c0.219-3.145,0.374-6.444,0.465-9.835C121.943,243.655,121.97,242.434,121.979,241.213z"/>
				<path style="fill:#008BA8;" d="M137.602,242.425c-5.104,1.495-10.381,2.306-15.695,2.434c0.036-1.203,0.064-2.424,0.073-3.646
					c5.031-0.137,9.999-0.93,14.811-2.342L137.602,242.425z"/>
			</g>
			<g>
				<path style="fill:#0081B8;" d="M97.927,192.602c-1.155,0.546-2.31,1.092-3.465,1.639c0.86-1.354,1.714-2.711,2.558-4.075
					c0.31-0.5-0.479-0.958-0.787-0.46c-3.731,6.03-7.619,11.963-11.659,17.791c-0.335,0.483,0.455,0.939,0.787,0.46
					c2.81-4.053,5.541-8.159,8.201-12.311c0.049-0.009,0.097-0.02,0.143-0.042c1.561-0.738,3.121-1.476,4.682-2.214
					c0.222-0.105,0.28-0.424,0.163-0.624C98.417,192.538,98.15,192.497,97.927,192.602z"/>
				<path style="fill:#0081B8;" d="M129.798,171.775c-0.214-0.538-1.096-0.304-0.879,0.242c2.587,6.503,2.838,13.79,0.688,20.452
					c-0.18,0.56,0.699,0.799,0.879,0.242C132.68,185.913,132.44,178.413,129.798,171.775z"/>
			</g>
		</g>
		<g>
			
				<ellipse transform="matrix(0.7071 -0.7071 0.7071 0.7071 -63.8682 120.5583)" style="fill:#2C3560;" cx="113.593" cy="137.375" rx="19.16" ry="19.16"/>
			<path style="fill:#2C3560;" d="M109.745,118.673c-0.163-1.223-0.638-2.476-1.624-3.218c-0.986-0.742-2.562-0.769-3.347,0.183
				c0.009-1.068-0.849-2.077-1.905-2.24c-1.056-0.163-2.178,0.54-2.492,1.561c-0.745-1.227-2.173-2.008-3.609-1.974
				c-1.436,0.034-2.824,0.882-3.511,2.144c-0.686,1.262-0.643,2.888,0.108,4.112c-1.148,0.354-2.069,1.363-2.315,2.539
				c-0.246,1.176,0.193,2.47,1.103,3.254c-1.037,0.417-1.683,1.632-1.449,2.725c0.234,1.093,1.32,1.937,2.437,1.893
				c-0.248,1.721,1.137,3.504,2.866,3.69c1.728,0.186,3.461-1.263,3.584-2.997c0.772,0.676,1.926,0.88,2.883,0.509
				c0.956-0.37,1.673-1.299,1.788-2.318l1.236-1.213C108.445,125.614,110.195,122.049,109.745,118.673z"/>
			<g>
				<path style="fill:#F08F6A;" d="M128.883,146.238c-0.016,0.082-0.024,0.156-0.039,0.237c-0.688,4.021-2.3,6.496-4.447,8.284
					c-1.512,1.272-2.863,2.078-3.985,2.864c-0.217,0.147-0.419,0.301-0.621,0.455c-2.086,1.565-3.32,3.337-3.365,8.649
					c-1.844,4.509-8.759,5.081-10.944-0.094c0.129-6.418-1.042-11.971-2.088-15.554c-0.259-0.938-0.52-1.736-0.745-2.376
					c-0.428-1.222-0.734-1.901-0.734-1.901s0.418-14.113,2.478-17.84c5.025-9.007,22.369-5.767,23.659,1.451
					C129.315,137.437,129.48,142.498,128.883,146.238z"/>
				<path style="fill:#2C3560;" d="M130.235,134.496c-4.007-0.529-7.721-2.962-9.806-6.425c-1.106,2.445-3.032,4.51-5.394,5.785
					c-2.362,1.274-5.146,1.749-7.796,1.33c-0.074,1.999-0.834,3.965-2.124,5.494c-1.29,1.528-3.101,2.609-5.059,3.017
					c0.342-4.242,1.325-8.48,2.76-12.487c0.864-2.411,1.983-4.841,3.95-6.482c1.773-1.479,4.096-2.18,6.4-2.336
					c2.304-0.157,4.61,0.193,6.881,0.612c1.981,0.366,3.993,0.801,5.731,1.822C129.04,126.741,130.856,130.765,130.235,134.496z"/>
				<g>
					<g>
						<path d="M114.911,143.053c-0.005,0.608,0.483,1.105,1.091,1.11s1.105-0.483,1.11-1.091c0.005-0.608-0.483-1.105-1.091-1.11
							C115.414,141.956,114.917,142.445,114.911,143.053z"/>
						<path style="fill:#FFFFFF;" d="M116.015,142.761c-0.002,0.223,0.177,0.405,0.4,0.407c0.223,0.002,0.405-0.177,0.407-0.4
							c0.002-0.223-0.177-0.405-0.4-0.407C116.199,142.36,116.017,142.538,116.015,142.761z"/>
					</g>
					<g>
						<path d="M123.425,143.126c-0.005,0.608,0.483,1.105,1.091,1.11c0.608,0.005,1.105-0.483,1.11-1.091
							c0.005-0.608-0.483-1.105-1.091-1.11C123.928,142.029,123.431,142.518,123.425,143.126z"/>
						<path style="fill:#FFFFFF;" d="M124.529,142.834c-0.002,0.223,0.177,0.405,0.4,0.406c0.223,0.002,0.405-0.177,0.407-0.4
							c0.002-0.223-0.177-0.405-0.4-0.406C124.713,142.432,124.531,142.611,124.529,142.834z"/>
					</g>
					<path d="M122.726,138.81c1.391-0.951,3.187-0.88,4.48,0.258c0.242,0.213,0.281,0.638,0.093,0.911
						c-0.192,0.279-0.552,0.323-0.795,0.109c-0.531-0.467-1.211-0.682-1.876-0.638c-0.336,0.022-0.67,0.109-0.98,0.26
						c-0.275,0.134-0.543,0.368-0.849,0.189c-0.073-0.043-0.135-0.106-0.185-0.18C122.446,139.463,122.462,138.99,122.726,138.81z"
						/>
					<path d="M118.435,138.773c-1.577-0.976-3.637-0.938-5.141,0.176c-0.282,0.209-0.334,0.633-0.124,0.909
						c0.215,0.283,0.627,0.333,0.909,0.124c0.617-0.457,1.4-0.651,2.161-0.593c0.385,0.029,0.765,0.121,1.12,0.274
						c0.313,0.135,0.619,0.371,0.971,0.199c0.084-0.041,0.157-0.103,0.215-0.177C118.743,139.432,118.734,138.958,118.435,138.773z"
						/>
					<path style="fill:#C16B5B;" d="M122.032,146.099c0.062,0.001,0.12-0.04,0.139-0.103c0.28-0.936-0.036-1.258-0.351-1.363
						c-0.319-0.105-0.703-0.026-1.142,0.24c-0.068,0.041-0.089,0.13-0.048,0.198c0.042,0.067,0.131,0.088,0.198,0.048
						c0.362-0.219,0.666-0.291,0.902-0.212c0.282,0.094,0.338,0.433,0.166,1.007c-0.023,0.076,0.021,0.156,0.097,0.179
						C122.005,146.097,122.019,146.099,122.032,146.099z"/>
					<path style="fill:#C16B5B;" d="M121.281,149.337c0.647-0.033,1.314-0.208,1.946-0.583c0.295-0.174,0.393-0.555,0.218-0.85
						c-0.174-0.295-0.554-0.393-0.85-0.218c-1.528,0.902-3.321,0.144-3.856-0.516c-0.215-0.265-0.607-0.308-0.873-0.091
						c-0.266,0.216-0.307,0.607-0.091,0.873C118.404,148.726,119.79,149.412,121.281,149.337z"/>
				</g>
				<g>
					<path style="fill:#008BA8;" d="M110.195,147.868c0,0,5.381-0.678,7.475-0.798c1.915-0.11,7.637-0.029,7.637-0.029
						c2.001,0,3.525-1.372,3.525-3.744l0,0c0-2.372-1.622-4.294-3.623-4.294h-15.248c-2.001,0-3.623,1.923-3.623,4.294l0,0
						C106.339,145.67,108.194,147.868,110.195,147.868z"/>
					<path style="fill:#00A8CC;" d="M112.709,147.592c0,0,5.706-0.559,7.624-0.559s7.624,0.559,7.624,0.559
						c2.001,0,3.623-1.923,3.623-4.294l0,0c0-2.372-1.622-4.294-3.623-4.294h-15.247c-2.001,0-3.623,1.923-3.623,4.294l0,0
						C109.085,145.67,110.708,147.592,112.709,147.592z"/>
					<path style="fill:#1FBFE0;" d="M114.015,146.856c0,0,4.729-0.463,6.317-0.463s6.317,0.463,6.317,0.463
						c1.658,0,3.002-1.593,3.002-3.558l0,0c0-1.965-1.344-3.559-3.002-3.559h-12.634c-1.658,0-3.002,1.593-3.002,3.559l0,0
						C111.013,145.263,112.357,146.856,114.015,146.856z"/>
					<path style="fill:#008BA8;" d="M101.823,141.171c1.715-0.054,3.431-0.109,5.146-0.163c0.879-0.028,1.719,0.858,1.679,1.823
						c-0.042,1.012-0.738,1.793-1.679,1.823c-1.715,0.054-3.431,0.109-5.146,0.163c-0.879,0.028-1.719-0.858-1.679-1.823
						C100.185,141.982,100.881,141.201,101.823,141.171z"/>
				</g>
				<g>
					<path style="fill:#F08F6A;" d="M98.107,147.094c1.474,1.789,3.82,2.29,5.24,1.12c1.42-1.17,1.376-3.569-0.098-5.357
						c-1.474-1.789-3.82-2.29-5.24-1.12C96.589,142.907,96.633,145.305,98.107,147.094z"/>
					<path style="fill:#C16B5B;" d="M98.974,142.614c0.636-0.329,1.48-0.307,2.257,0.063c0.387,0.184,0.667,0.406,0.858,0.679
						c0.252,0.361,0.318,0.813,0.174,1.179c-0.128,0.328-0.393,0.539-0.626,0.726c-0.169,0.135-0.328,0.263-0.42,0.416
						c-0.139,0.235-0.108,0.567,0.075,0.771c0.182,0.204,0.508,0.272,0.757,0.159c0.147-0.066,0.319-0.001,0.385,0.146
						c0.066,0.146,0.001,0.319-0.145,0.385c-0.16,0.073-0.334,0.106-0.508,0.105c-0.346-0.003-0.691-0.146-0.924-0.408
						c-0.35-0.393-0.409-1.005-0.14-1.456c0.145-0.244,0.363-0.419,0.556-0.573c0.193-0.155,0.376-0.301,0.448-0.485
						c0.073-0.184,0.029-0.432-0.11-0.633c-0.056-0.081-0.134-0.154-0.219-0.225c-0.289-0.005-0.652,0.081-0.836,0.279
						c-0.208,0.224-0.308,0.549-0.261,0.85c0.025,0.159-0.084,0.307-0.243,0.332c-0.016,0.003-0.032,0.004-0.048,0.004
						c-0.14-0.001-0.262-0.103-0.284-0.246c-0.076-0.48,0.078-0.979,0.409-1.336c0.123-0.132,0.277-0.222,0.438-0.294
						c-0.48-0.134-0.956-0.112-1.326,0.079c-0.457,0.237-0.807,0.855-0.577,1.363c0.066,0.147,0.001,0.319-0.146,0.385
						c-0.147,0.066-0.318,0.001-0.385-0.146C97.8,143.994,98.185,143.023,98.974,142.614z"/>
				</g>
			</g>
		</g>
	</g>
	<g>
		<path style="fill:#2C3560;" d="M611.142,115.73c6.037-3.568,14.403-2.589,19.453,2.276c3.128,3.014,4.899,7.123,6.81,11.023
			c1.911,3.9,4.194,7.868,7.899,10.135c1.811,1.108,3.864,1.744,5.883,2.402c2.019,0.658,4.058,1.365,5.793,2.589
			c1.735,1.224,3.155,3.05,3.419,5.156c0.264,2.107-0.876,4.442-2.884,5.131c4.86,5.679,6.1,14.374,1.863,20.531
			c-4.236,6.158-12.799,8.928-19.839,6.419c-1.018,2.324-3.127,4.043-5.455,5.053c-2.328,1.01-4.879,1.381-7.406,1.617
			c-4.81,0.449-9.714,0.434-14.406-0.715c-4.692-1.148-9.181-3.497-12.335-7.156c-3.154-3.659-4.839-8.705-3.905-13.445
			c0.576-2.925,0.804-5.561,1.88-8.341c1.076-2.78,2.421-5.486,2.991-8.411c0.685-3.513,0.214-7.144-0.451-10.661
			c-0.665-3.516-1.525-7.022-1.617-10.6s0.662-7.315,2.9-10.108C603.971,115.833,607.776,114.515,611.142,115.73z"/>
		<g>
			<g>
				<g>
					<path style="fill:#2C3560;" d="M634.731,424.298l-0.031,0.246v0.008c0,0.016,0,0.041-0.016,0.058
						c-0.007,0.106-0.015,0.213-0.031,0.32c-0.007,0.115-0.023,0.238-0.047,0.361c-0.007,0.115-0.031,0.238-0.055,0.353
						c-0.032,0.164-0.063,0.32-0.103,0.5c-0.023,0.164-0.047,0.344-0.095,0.517l-37.792,0.267c0,0-0.052-0.385-0.056-1.007
						c0.007-0.106,0.006-0.238,0.022-0.361c0.007-0.115,0.015-0.229,0.022-0.361c0.016-0.123,0.031-0.246,0.055-0.385
						c0.008-0.074,0.023-0.164,0.039-0.246c0.403-2.141,1.93-5.076,7.084-6.062c0.245-0.059,0.515-0.102,0.794-0.129
						c0.417-0.068,0.827-0.104,1.269-0.14c0.246-0.018,0.491-0.036,0.729-0.071c10.118-0.907,14.574-4.346,14.574-4.346
						s6.012,1.162,11.615-0.082c0,0,0.539,0.865,1.074,2.417c0.159,0.458,0.318,0.973,0.461,1.529
						c0.008,0.024,0.008,0.041,0.017,0.065c0.025,0.074,0.034,0.147,0.067,0.221c0.034,0.155,0.06,0.311,0.085,0.475
						c0.008,0.049,0.033,0.115,0.034,0.155c0,0.033,0.025,0.049,0.025,0.09c0.161,0.769,0.266,1.628,0.329,2.545
						C634.847,422.192,634.846,423.216,634.731,424.298z"/>
					<path style="fill:#FFFFFF;" d="M634.653,424.929c-0.007,0.115-0.023,0.238-0.047,0.361c-0.007,0.115-0.031,0.238-0.055,0.353
						c-0.032,0.164-0.063,0.32-0.103,0.5c-0.023,0.164-0.047,0.344-0.095,0.517l-37.792,0.267c0,0-0.052-0.385-0.056-1.007
						c0.007-0.106,0.006-0.238,0.022-0.361c0.007-0.115,0.015-0.229,0.022-0.361L634.653,424.929z"/>
					<path style="fill:#FFFFFF;" d="M617.35,414.149c0.128-0.119,0.296-0.208,0.476-0.201c0.19,0.007,0.33,0.078,0.479,0.194
						c0.104,0.082,0.209,0.162,0.315,0.243c0.501,0.38,1.01,0.75,1.528,1.107c0.147,0.102,0.263,0.224,0.313,0.401
						c0.046,0.161,0.027,0.377-0.064,0.521c-0.183,0.288-0.611,0.463-0.922,0.249c-0.722-0.497-1.427-1.019-2.118-1.559
						c-0.127-0.1-0.2-0.323-0.201-0.476C617.155,414.463,617.227,414.264,617.35,414.149z"/>
					<path style="fill:#FFFFFF;" d="M614.684,415.371c0.251-0.234,0.707-0.291,0.955-0.007c0.498,0.572,1.054,1.091,1.655,1.553
						c0.096,0.071,0.193,0.143,0.291,0.212c0.147,0.103,0.263,0.223,0.313,0.401c0.046,0.161,0.027,0.377-0.064,0.521
						c-0.182,0.287-0.612,0.465-0.922,0.249c-0.816-0.569-1.567-1.223-2.221-1.974c-0.119-0.137-0.2-0.289-0.201-0.476
						C614.488,415.685,614.56,415.486,614.684,415.371z"/>
					<path style="fill:#FFFFFF;" d="M612.231,416.261c0.128-0.119,0.296-0.208,0.476-0.201c0.166,0.006,0.371,0.057,0.479,0.194
						l1.546,1.959c0.116,0.147,0.2,0.28,0.201,0.476c0.001,0.166-0.071,0.364-0.194,0.479c-0.128,0.119-0.296,0.208-0.476,0.201
						c-0.166-0.006-0.371-0.057-0.479-0.194l-1.546-1.959c-0.116-0.147-0.2-0.28-0.201-0.476
						C612.035,416.575,612.107,416.376,612.231,416.261z"/>
					<path style="fill:#FFFFFF;" d="M609.508,416.917c0.323-0.173,0.733-0.089,0.926,0.236c0.345,0.582,0.691,1.163,1.036,1.745
						c0.181,0.304,0.086,0.753-0.236,0.926c-0.322,0.173-0.733,0.089-0.926-0.236c-0.346-0.582-0.691-1.163-1.036-1.745
						C609.092,417.539,609.187,417.09,609.508,416.917z"/>
				</g>
				<g>
					<path style="fill:#2C3560;" d="M717.782,368.93l0.206,0.137l0.007,0.004c0.015,0.007,0.037,0.018,0.044,0.04
						c0.092,0.054,0.184,0.108,0.273,0.17c0.099,0.058,0.203,0.126,0.302,0.202c0.099,0.058,0.199,0.134,0.291,0.206
						c0.133,0.101,0.258,0.199,0.402,0.315c0.136,0.094,0.287,0.195,0.42,0.315l-16.609,33.948c0,0-0.367-0.125-0.927-0.399
						c-0.092-0.054-0.21-0.112-0.313-0.18c-0.099-0.058-0.199-0.115-0.313-0.18c-0.103-0.069-0.206-0.137-0.32-0.221
						c-0.063-0.04-0.136-0.094-0.203-0.145c-1.737-1.315-3.683-3.99-2.269-9.043c0.056-0.246,0.138-0.507,0.239-0.768
						c0.125-0.404,0.275-0.786,0.44-1.198c0.093-0.228,0.187-0.456,0.262-0.684c3.699-9.461,2.607-14.983,2.607-14.983
						s3.72-4.864,5.104-10.433c0,0,1.014-0.097,2.642,0.116c0.481,0.062,1.012,0.149,1.574,0.269
						c0.026,0.003,0.04,0.011,0.066,0.014c0.077,0.01,0.147,0.035,0.227,0.038c0.154,0.039,0.305,0.085,0.463,0.135
						c0.048,0.014,0.117,0.021,0.154,0.039c0.03,0.014,0.055,0,0.092,0.017c0.76,0.199,1.576,0.488,2.425,0.84
						C715.948,367.887,716.865,368.344,717.782,368.93z"/>
					<path style="fill:#FFFFFF;" d="M718.312,369.281c0.099,0.058,0.203,0.126,0.302,0.202c0.099,0.058,0.199,0.134,0.291,0.206
						c0.133,0.101,0.258,0.199,0.402,0.315c0.136,0.094,0.287,0.195,0.42,0.315l-16.609,33.948c0,0-0.367-0.125-0.927-0.399
						c-0.092-0.054-0.21-0.112-0.313-0.18c-0.099-0.058-0.199-0.115-0.313-0.18L718.312,369.281z"/>
					<path style="fill:#FFFFFF;" d="M700.949,379.963c-0.05-0.168-0.054-0.358,0.032-0.516c0.091-0.167,0.217-0.261,0.388-0.342
						c0.12-0.057,0.239-0.115,0.358-0.173c0.564-0.279,1.122-0.57,1.672-0.875c0.157-0.087,0.318-0.136,0.499-0.102
						c0.165,0.031,0.349,0.144,0.438,0.29c0.177,0.292,0.142,0.754-0.188,0.936c-0.767,0.425-1.548,0.823-2.34,1.201
						c-0.146,0.069-0.378,0.035-0.516-0.032C701.142,380.278,700.997,380.125,700.949,379.963z"/>
					<path style="fill:#FFFFFF;" d="M700.854,382.895c-0.097-0.329,0.055-0.763,0.42-0.858c0.734-0.191,1.446-0.457,2.128-0.789
						c0.107-0.055,0.214-0.109,0.319-0.167c0.158-0.086,0.317-0.136,0.499-0.101c0.165,0.031,0.349,0.144,0.438,0.29
						c0.176,0.291,0.143,0.755-0.188,0.936c-0.873,0.477-1.794,0.858-2.757,1.109c-0.176,0.046-0.348,0.05-0.516-0.032
						C701.047,383.21,700.902,383.057,700.854,382.895z"/>
					<path style="fill:#FFFFFF;" d="M700.557,385.487c-0.049-0.167-0.054-0.358,0.032-0.516c0.08-0.146,0.217-0.307,0.388-0.342
						l2.443-0.51c0.183-0.038,0.34-0.054,0.516,0.032c0.149,0.073,0.294,0.226,0.342,0.387c0.05,0.168,0.054,0.358-0.032,0.516
						c-0.079,0.146-0.217,0.306-0.388,0.342l-2.443,0.51c-0.183,0.038-0.34,0.054-0.516-0.032
						C700.751,385.802,700.605,385.649,700.557,385.487z"/>
					<path style="fill:#FFFFFF;" d="M699.93,388.217c-0.011-0.366,0.247-0.696,0.624-0.724c0.674-0.05,1.349-0.1,2.024-0.15
						c0.352-0.026,0.712,0.259,0.724,0.624c0.012,0.366-0.247,0.696-0.624,0.724c-0.675,0.05-1.349,0.1-2.024,0.15
						C700.302,388.867,699.942,388.582,699.93,388.217z"/>
				</g>
				<path style="fill:#FF9C75;" d="M621.092,413.819c0,0,5.559,2.24,11.615-0.082c0,0-7.751-67.452-8.497-83.267
					c-0.953-20.27,4.87-58.488,7.333-84.321h-32.109c-3.679,29.502-2.928,59.744-0.687,83.285
					C600.365,346.432,621.092,413.819,621.092,413.819z"/>
				<path style="fill:#FFB699;" d="M620.485,327.754c6.429,14.599,81.836,48.713,81.836,48.713
					c5.104-3.793,5.104-10.433,5.104-10.433s-50.493-39.979-57.948-50.975c-4.804-7.086,5.534-74.391,5.534-74.391l-30.937,6.96
					C624.076,247.628,612.036,308.568,620.485,327.754z"/>
			</g>
		</g>
		<g>
			<path style="fill:#FFA41B;" d="M655.451,294.697c-0.182,1.331-0.356,2.579-0.529,3.737c-0.146,0.993-0.292,1.923-0.419,2.771
				c-0.237,1.504-0.438,2.753-0.602,3.71c-0.237,1.404-0.383,2.178-0.383,2.178s-42.401,4.931-65.579-3.117
				c0,0,0.155-1.549,0.456-4.22c0.118-1.057,0.264-2.288,0.419-3.673c0.1-0.857,0.21-1.777,0.328-2.743
				c0.137-1.139,0.282-2.361,0.438-3.637c1.878-15.285,5.232-39.429,9.26-54.924l56.665,0.565
				C660.227,251.457,657.612,278.828,655.451,294.697z"/>
			<path style="fill:#FF891B;" d="M654.503,301.204c-0.237,1.504-0.438,2.753-0.602,3.71c-2.57,0.255-5.177,0.146-7.757-0.346
				c-5.195-0.984-9.971-4.484-15.358-4.293c-2.579,0.091-5.049,1.094-7.419,2.014c-2.543,0.993-5.058,1.932-7.766,2.352
				c-2.989,0.465-5.97,0.438-8.96-0.064c-2.743-0.456-5.314-1.458-7.884-2.479c-3.181-1.267-6.891-2.725-10.363-2.342
				c0.118-1.057,0.264-2.288,0.419-3.673c3.555-0.137,7.246,1.039,10.527,2.342c2.57,1.021,5.122,2.06,7.857,2.57
				c2.844,0.529,5.852,0.483,8.686-0.091c5.204-1.066,9.862-4.257,15.294-4.284c5.523-0.018,10.263,3.263,15.549,4.357
				C649.281,301.505,651.924,301.569,654.503,301.204z"/>
			<path style="fill:#FF891B;" d="M655.451,294.697c-0.182,1.331-0.356,2.579-0.529,3.737c-2.898,0.401-5.861,0.328-8.777-0.228
				c-5.195-0.984-9.971-4.475-15.358-4.293c-2.579,0.091-5.049,1.094-7.419,2.014c-2.543,0.993-5.058,1.932-7.766,2.352
				c-2.989,0.465-5.97,0.447-8.96-0.064c-2.743-0.456-5.314-1.458-7.884-2.479c-2.953-1.176-6.362-2.516-9.616-2.397
				c0.137-1.139,0.282-2.361,0.438-3.637c3.318,0.046,6.717,1.158,9.762,2.361c2.57,1.021,5.122,2.06,7.857,2.57
				c2.844,0.529,5.852,0.492,8.686-0.091c5.204-1.066,9.862-4.257,15.294-4.284c5.523-0.018,10.263,3.263,15.549,4.357
				C649.6,295.207,652.571,295.216,655.451,294.697z"/>
			<g>
				<path style="fill:#FFB699;" d="M565.781,170.528c0,0-0.736-8.463-4.622-9.948c-4.163-1.591-11.636-2.578-11.881-1.416
					c-0.189,0.899,6.371,3.565,6.371,3.565s-3.231,2.57-3.1,5.232c0.13,2.662,5.602,7.04,5.602,7.04L565.781,170.528z"/>
				<path style="fill:#FFB699;" d="M606.467,163.204c-10.985,4.053-20.984,36.822-20.984,36.822l-19.701-29.498L558.15,175
					c0,0,17.215,44.362,28.265,44.35c8.438-0.01,22.1-30.279,22.1-30.279L606.467,163.204z"/>
			</g>
			<g>
				<g>
					<g>
						<g>
							<g>
								<g>
									<g>
										<g>
											<g>
												<g>
													<g>
														<g>
															<g>
																<path style="fill:#FFA41B;" d="M605.589,201.427l-6.75,33.35c23.672,7.2,56.011,1.258,56.671,0.565
																	c0.413-0.428-9.687-32.824-12.549-41.969c-0.16-0.496-0.296-0.912-0.404-1.26c-0.225-0.723-0.35-1.124-0.35-1.124
																	l-0.336-2.685l-0.152-1.245l-0.469-3.736l-0.161-1.271l-2.533-20.322l0-0.076l-10.88-2.999l-10.603,0.514
																	l-10.607,4.033c-5.693,8.089-2.264,21.456-0.325,27.312c0.15,0.482,0.31,0.902,0.441,1.266
																	c0.374,1.052,0.619,1.651,0.619,1.651l-0.418,2.091l-0.252,1.229l-0.701,3.43L605.589,201.427z"/>
															</g>
														</g>
													</g>
												</g>
											</g>
										</g>
									</g>
								</g>
							</g>
						</g>
					</g>
				</g>
			</g>
			<g>
				<path style="fill:#FF891B;" d="M632.289,217.296c4.317-0.044,8.526-1.678,11.733-4.571c0.449-0.405,1.116,0.259,0.665,0.665
					c-3.393,3.061-7.827,4.8-12.399,4.847C631.683,218.242,631.683,217.302,632.289,217.296z"/>
				<path style="fill:#FF891B;" d="M632.602,222.544c4.206-1.199,8.111-3.307,11.413-6.177c0.455-0.396,1.123,0.267,0.665,0.665
					c-3.425,2.978-7.462,5.174-11.828,6.419C632.269,223.618,632.02,222.71,632.602,222.544z"/>
			</g>
			<g>
				<path style="fill:#FFB699;" d="M669.61,244.48c-0.611,0.759-0.019,1.868-0.907,3.195c-0.888,1.327-3.353,2.564-3.747,3.747
					c-0.394,1.183-1.096,10.347,0.946,10.335c2.042-0.013,1.355-5.069,1.467-5.143c0.112-0.074,0.623,6.287,2.294,6.109
					s0.132-7.393,0.3-7.459c0.167-0.066,1.814,5.443,3.309,4.921c1.495-0.523-0.642-5.704-0.52-5.822s1.983,3.74,2.943,3.171
					c0.96-0.569-1.33-5.412-1.147-5.589c0.183-0.177,2.545-0.989,3.599-2.626c1.053-1.638,0.161-5.755-1.236-6.337
					C675.513,242.397,670.405,243.493,669.61,244.48z"/>
				<path style="fill:#FFB699;" d="M638.556,161.731c17.1,4.939,32.015,32.764,33.354,40.133c1.292,7.108,5.712,41.853,5.712,41.853
					l-8.107,3.692c0,0-10.716-40.847-11.375-42.839c-0.659-1.992-17.551-21.74-17.551-21.74
					C632.105,173.812,638.556,161.731,638.556,161.731z"/>
			</g>
		</g>
		<g>
			<path style="fill:#FFB699;" d="M604.676,140.594c0.014,0.081,0.021,0.154,0.035,0.235c0.624,3.979,2.18,6.445,4.275,8.238
				c1.474,1.277,2.797,2.091,3.893,2.882c0.212,0.148,0.409,0.303,0.606,0.458c2.038,1.574,3.231,3.34,3.202,8.585
				c1.758,4.477,8.575,5.138,10.804,0.06c-0.038-6.337,1.195-11.802,2.278-15.324c0.269-0.923,0.537-1.706,0.768-2.335
				c0.439-1.201,0.751-1.866,0.751-1.866s-0.216-13.937-2.198-17.645c-4.835-8.96-22-6.004-23.374,1.103
				C604.372,131.901,604.139,136.895,604.676,140.594z"/>
			<path style="fill:#2C3560;" d="M603.504,128.985c3.963-0.467,7.662-2.817,9.769-6.206c1.058,2.429,2.93,4.494,5.244,5.785
				c2.314,1.29,5.055,1.798,7.677,1.422c0.045,1.974,0.768,3.926,2.02,5.452c1.252,1.527,3.025,2.618,4.951,3.049
				c-0.279-4.192-1.19-8.389-2.551-12.364c-0.819-2.392-1.89-4.807-3.809-6.453c-1.729-1.485-4.013-2.209-6.285-2.395
				c-2.272-0.187-4.553,0.126-6.8,0.509c-1.961,0.334-3.953,0.736-5.682,1.719C604.792,121.346,602.943,125.294,603.504,128.985z"/>
			<g>
				<g>
					<path d="M618.512,137.644c-0.003,0.6-0.492,1.084-1.093,1.081c-0.6-0.003-1.084-0.492-1.081-1.093
						c0.003-0.6,0.493-1.084,1.093-1.081C618.031,136.555,618.515,137.044,618.512,137.644z"/>
					<path style="fill:#FFFFFF;" d="M617.427,137.341c-0.001,0.22-0.18,0.397-0.4,0.396s-0.397-0.18-0.396-0.4
						c0.001-0.22,0.18-0.397,0.4-0.396C617.251,136.942,617.428,137.122,617.427,137.341z"/>
				</g>
				<g>
					<path d="M610.106,137.598c-0.003,0.6-0.492,1.084-1.093,1.081c-0.6-0.003-1.084-0.493-1.081-1.093
						c0.003-0.6,0.493-1.084,1.093-1.081C609.626,136.509,610.11,136.998,610.106,137.598z"/>
					<path style="fill:#FFFFFF;" d="M609.021,137.295c-0.001,0.22-0.18,0.397-0.4,0.396c-0.22-0.001-0.397-0.18-0.396-0.4
						c0.001-0.22,0.18-0.397,0.4-0.396C608.845,136.896,609.022,137.075,609.021,137.295z"/>
				</g>
				<path d="M610.857,133.347c-1.36-0.958-3.133-0.913-4.426,0.193c-0.242,0.207-0.286,0.626-0.105,0.898
					c0.185,0.278,0.54,0.326,0.783,0.119c0.531-0.454,1.204-0.656,1.861-0.604c0.332,0.026,0.66,0.117,0.964,0.271
					c0.27,0.136,0.531,0.371,0.836,0.198c0.073-0.041,0.135-0.102,0.185-0.175C611.124,133.996,611.115,133.529,610.857,133.347z"/>
				<path d="M615.093,133.371c1.57-0.941,3.603-0.876,5.072,0.245c0.275,0.21,0.321,0.629,0.109,0.899
					c-0.216,0.276-0.623,0.32-0.899,0.11c-0.603-0.46-1.373-0.661-2.125-0.616c-0.38,0.023-0.757,0.109-1.109,0.255
					c-0.311,0.129-0.617,0.357-0.961,0.182c-0.083-0.042-0.154-0.104-0.21-0.177C614.78,134.017,614.795,133.549,615.093,133.371z"
					/>
				<path style="fill:#C16B5B;" d="M611.44,140.552c-0.062,0-0.118-0.041-0.136-0.103c-0.264-0.928,0.053-1.241,0.365-1.34
					c0.317-0.099,0.695-0.016,1.124,0.252c0.066,0.041,0.086,0.129,0.045,0.196c-0.043,0.066-0.131,0.085-0.196,0.045
					c-0.354-0.221-0.653-0.297-0.887-0.222c-0.28,0.088-0.34,0.422-0.178,0.992c0.021,0.075-0.022,0.154-0.098,0.175
					C611.467,140.551,611.453,140.553,611.44,140.552z"/>
				<path style="fill:#C16B5B;" d="M612.137,143.759c-0.638-0.041-1.294-0.224-1.913-0.603c-0.289-0.176-0.38-0.553-0.203-0.842
					c0.176-0.288,0.553-0.38,0.842-0.204c1.496,0.912,3.276,0.188,3.813-0.456c0.216-0.258,0.603-0.295,0.863-0.078
					c0.26,0.217,0.294,0.603,0.078,0.863C614.985,143.196,613.607,143.853,612.137,143.759z"/>
			</g>
			<g>
				<path style="fill:#008BA8;" d="M624.495,142.601c0,0-5.381-0.678-7.475-0.798c-1.915-0.11-7.638-0.029-7.638-0.029
					c-2.001,0-3.525-1.372-3.525-3.744l0,0c0-2.372,1.622-4.294,3.623-4.294h15.247c2.001,0,3.623,1.923,3.623,4.294l0,0
					C628.351,140.402,626.496,142.601,624.495,142.601z"/>
				<path style="fill:#00A8CC;" d="M621.981,142.325c0,0-5.707-0.559-7.624-0.559c-1.917,0-7.624,0.559-7.624,0.559
					c-2.001,0-3.623-1.923-3.623-4.294l0,0c0-2.372,1.622-4.294,3.623-4.294h15.247c2.001,0,3.623,1.923,3.623,4.294l0,0
					C625.604,140.402,623.982,142.325,621.981,142.325z"/>
				<path style="fill:#1FBFE0;" d="M620.674,141.589c0,0-4.729-0.463-6.317-0.463c-1.589,0-6.317,0.463-6.317,0.463
					c-1.658,0-3.002-1.593-3.002-3.558l0,0c0-1.965,1.344-3.558,3.002-3.558h12.634c1.658,0,3.002,1.593,3.002,3.558l0,0
					C623.677,139.996,622.333,141.589,620.674,141.589z"/>
				<path style="fill:#008BA8;" d="M632.867,135.904c-1.715-0.054-3.431-0.109-5.146-0.163c-0.879-0.028-1.719,0.858-1.679,1.823
					c0.042,1.012,0.738,1.793,1.679,1.823c1.715,0.054,3.431,0.109,5.146,0.163c0.879,0.028,1.719-0.858,1.679-1.823
					C634.505,136.715,633.809,135.933,632.867,135.904z"/>
			</g>
			<g>
				<path style="fill:#FFB699;" d="M635.043,141.867c-1.48,1.745-3.803,2.208-5.188,1.033c-1.385-1.175-1.308-3.542,0.172-5.287
					c1.48-1.745,3.803-2.208,5.188-1.033C636.599,137.755,636.523,140.122,635.043,141.867z"/>
				<path style="fill:#C16B5B;" d="M634.25,137.433c-0.623-0.334-1.457-0.323-2.229,0.031c-0.385,0.176-0.664,0.391-0.856,0.658
					c-0.253,0.353-0.325,0.798-0.188,1.161c0.122,0.326,0.38,0.538,0.608,0.726c0.165,0.136,0.321,0.264,0.409,0.416
					c0.134,0.234,0.099,0.561-0.084,0.76c-0.182,0.199-0.505,0.262-0.75,0.147c-0.144-0.068-0.315-0.005-0.382,0.138
					c-0.067,0.143-0.006,0.315,0.138,0.382c0.157,0.074,0.328,0.11,0.5,0.111c0.341,0.002,0.684-0.135,0.918-0.389
					c0.351-0.382,0.418-0.986,0.159-1.436c-0.139-0.243-0.353-0.418-0.541-0.573c-0.189-0.155-0.367-0.302-0.435-0.485
					c-0.069-0.183-0.023-0.427,0.118-0.623c0.056-0.079,0.134-0.15,0.219-0.219c0.286-0.001,0.642,0.089,0.821,0.287
					c0.202,0.224,0.296,0.547,0.246,0.843c-0.027,0.157,0.078,0.305,0.235,0.331c0.016,0.003,0.031,0.004,0.047,0.004
					c0.138,0.001,0.26-0.098,0.284-0.239c0.081-0.473-0.063-0.968-0.385-1.325c-0.12-0.132-0.271-0.223-0.428-0.296
					c0.476-0.126,0.945-0.098,1.308,0.097c0.448,0.24,0.784,0.855,0.55,1.353c-0.067,0.144-0.005,0.315,0.138,0.382
					c0.144,0.067,0.314,0.006,0.382-0.138C635.389,138.811,635.023,137.848,634.25,137.433z"/>
			</g>
		</g>
	</g>
	<g>
		<g>
			<g>
				<g>
					<path style="fill:#005082;" d="M438.478,406.331l-0.082,0.258c-0.139,0.375-0.263,0.739-0.38,1.143
						c-0.077,0.342-0.184,0.706-0.286,1.081l36.773,18.043c0,0,0.244-0.35,0.538-0.948c0.136-0.313,0.289-0.681,0.427-1.129
						c0.021-0.08,0.057-0.171,0.067-0.266c0.615-2.267,0.508-5.865-4.064-9.247c-0.212-0.176-0.453-0.331-0.712-0.503l-0.022-0.011
						c-0.365-0.251-0.741-0.481-1.146-0.725c-0.135-0.075-0.266-0.158-0.401-0.233c-9.673-5.723-12.47-11.283-12.47-11.283
						s-6.404-1.695-11.298-5.543c0,0-1.164,0.75-2.641,2.322c-0.241,0.27-0.5,0.559-0.763,0.874
						c-0.054,0.055-0.104,0.121-0.166,0.19c-0.104,0.121-0.212,0.267-0.32,0.413c-0.029,0.04-0.072,0.091-0.093,0.135
						c-0.018,0.036-0.047,0.04-0.061,0.069c-0.518,0.687-1.035,1.464-1.518,2.339C439.359,404.222,438.877,405.224,438.478,406.331z
						"/>
					<path style="fill:#FFFFFF;" d="M460.225,404.601c-0.069-0.177-0.191-0.342-0.37-0.421c-0.189-0.082-0.359-0.079-0.559-0.035
						c-0.14,0.031-0.281,0.06-0.421,0.089c-0.668,0.136-1.34,0.257-2.013,0.362c-0.192,0.03-0.363,0.095-0.495,0.245
						c-0.121,0.136-0.204,0.355-0.182,0.539c0.043,0.368,0.379,0.74,0.783,0.677c0.939-0.146,1.873-0.323,2.802-0.526
						c0.171-0.037,0.347-0.221,0.421-0.37C460.269,404.999,460.292,404.772,460.225,404.601z"/>
					<path style="fill:#FFFFFF;" d="M462.254,407.049c-0.135-0.347-0.553-0.617-0.929-0.456c-0.756,0.324-1.542,0.569-2.347,0.737
						c-0.128,0.024-0.255,0.049-0.384,0.07c-0.192,0.031-0.362,0.094-0.495,0.245c-0.121,0.136-0.204,0.355-0.182,0.539
						c0.043,0.366,0.379,0.742,0.783,0.677c1.065-0.171,2.106-0.457,3.098-0.882c0.181-0.077,0.331-0.188,0.421-0.37
						C462.298,407.447,462.32,407.22,462.254,407.049z"/>
					<path style="fill:#FFFFFF;" d="M464.23,409.073c-0.069-0.176-0.191-0.342-0.37-0.421c-0.165-0.072-0.389-0.118-0.559-0.036
						l-2.431,1.185c-0.182,0.089-0.327,0.18-0.421,0.37c-0.079,0.161-0.102,0.389-0.036,0.559c0.069,0.176,0.191,0.343,0.37,0.421
						c0.165,0.072,0.389,0.118,0.559,0.036l2.431-1.185c0.182-0.089,0.327-0.18,0.421-0.37
						C464.274,409.471,464.297,409.243,464.23,409.073z"/>
					<path style="fill:#FFFFFF;" d="M466.581,410.995c-0.233-0.321-0.674-0.432-1.015-0.206c-0.611,0.405-1.222,0.811-1.833,1.216
						c-0.319,0.212-0.438,0.695-0.206,1.015c0.233,0.321,0.674,0.432,1.015,0.206c0.611-0.405,1.222-0.811,1.833-1.216
						C466.694,411.798,466.813,411.314,466.581,410.995z"/>
					<path style="fill:#FFFFFF;" d="M438.39,406.592c-0.128,0.368-0.259,0.742-0.365,1.138c-0.093,0.35-0.199,0.71-0.288,1.088
						l36.765,18.039c0,0,0.248-0.344,0.543-0.945c0.139-0.318,0.294-0.69,0.422-1.128L438.39,406.592z"/>
				</g>
				<g>
					<path style="fill:#005082;" d="M409.339,424.297l0.041,0.268c0.041,0.398,0.089,0.78,0.162,1.194
						c0.081,0.341,0.146,0.715,0.219,1.096h40.961c0,0,0.065-0.422,0.065-1.088c-0.016-0.341-0.041-0.739-0.114-1.202
						c-0.016-0.081-0.024-0.179-0.057-0.268c-0.447-2.306-2.127-5.489-7.721-6.512c-0.268-0.065-0.552-0.097-0.861-0.138h-0.024
						c-0.439-0.065-0.877-0.106-1.348-0.146c-0.154-0.008-0.309-0.024-0.463-0.033c-11.204-0.877-16.165-4.636-16.165-4.636
						s-6.495,1.299-12.585,0c0,0-0.715,1.185-1.348,3.248c-0.097,0.349-0.203,0.723-0.3,1.12c-0.024,0.073-0.041,0.154-0.065,0.244
						c-0.041,0.154-0.073,0.333-0.106,0.512c-0.008,0.049-0.024,0.114-0.024,0.162c0,0.041-0.024,0.057-0.024,0.089
						c-0.162,0.844-0.284,1.77-0.333,2.769C409.201,422.016,409.209,423.128,409.339,424.297z"/>
					<path style="fill:#FFFFFF;" d="M428.101,413.165c-0.139-0.128-0.323-0.223-0.518-0.215c-0.206,0.009-0.357,0.087-0.518,0.214
						c-0.112,0.089-0.226,0.177-0.339,0.266c-0.54,0.416-1.089,0.821-1.648,1.212c-0.159,0.111-0.284,0.245-0.336,0.438
						c-0.048,0.175-0.027,0.409,0.074,0.564c0.2,0.311,0.666,0.497,1.001,0.263c0.779-0.545,1.539-1.116,2.284-1.706
						c0.137-0.109,0.214-0.351,0.215-0.517C428.315,413.503,428.235,413.289,428.101,413.165z"/>
					<path style="fill:#FFFFFF;" d="M431,414.469c-0.274-0.252-0.769-0.31-1.035,0c-0.536,0.624-1.134,1.19-1.782,1.696
						c-0.104,0.078-0.208,0.156-0.314,0.231c-0.159,0.112-0.283,0.244-0.336,0.438c-0.048,0.175-0.027,0.409,0.074,0.564
						c0.2,0.31,0.667,0.499,1.001,0.263c0.88-0.622,1.689-1.338,2.393-2.156c0.128-0.149,0.214-0.315,0.214-0.518
						C431.215,414.807,431.135,414.593,431,414.469z"/>
					<path style="fill:#FFFFFF;" d="M433.666,415.415c-0.139-0.128-0.323-0.223-0.518-0.215c-0.18,0.008-0.402,0.065-0.518,0.214
						l-1.66,2.135c-0.125,0.16-0.215,0.305-0.215,0.518c0,0.18,0.08,0.394,0.214,0.518c0.139,0.128,0.323,0.223,0.518,0.215
						c0.18-0.008,0.402-0.065,0.518-0.214l1.66-2.135c0.125-0.16,0.214-0.305,0.215-0.518
						C433.88,415.754,433.8,415.539,433.666,415.415z"/>
					<path style="fill:#FFFFFF;" d="M436.622,416.105c-0.351-0.185-0.795-0.091-1.002,0.263c-0.37,0.633-0.74,1.266-1.11,1.899
						c-0.193,0.331-0.087,0.817,0.263,1.002c0.351,0.185,0.795,0.091,1.002-0.262c0.37-0.633,0.74-1.266,1.11-1.899
						C437.078,416.776,436.972,416.29,436.622,416.105z"/>
					<path style="fill:#FFFFFF;" d="M409.374,424.57c0.047,0.386,0.095,0.781,0.173,1.183c0.071,0.355,0.134,0.725,0.221,1.104
						h40.952c0,0,0.071-0.418,0.071-1.088c-0.016-0.347-0.039-0.749-0.118-1.198H409.374z"/>
				</g>
				<path style="fill:#FFA785;" d="M411.45,412.833c0,0-2.228-98.138-7.098-158.195l36.793,1.189c0,0-3.425,73.238-17.111,157.006
					C424.034,412.833,418.676,414.336,411.45,412.833z"/>
				<path style="fill:#FFA785;" d="M466.956,254.638c3.115,12.109,14.968,63.439,14.985,73.209
					c0.028,15.994-25.22,74.665-25.22,74.665s-8.801,0.033-11.071-5.543c0,0,9.546-64.863,9.499-69.122
					c-0.037-3.368-23.277-73.209-23.277-73.209H466.956z"/>
			</g>
			<g>
				<path style="fill:#005082;" d="M463.401,394.031c-1.965,1.736-10.179,0.21-15.139-1.86c-0.305-0.124-0.601-0.258-0.878-0.391
					c-1.402-0.649-2.442-1.345-2.833-2.003c-1.727-2.9,9.682-60.652,8.891-62.235c-0.792-1.584-13.088-46.028-13.088-46.028
					s-11.142,121.59-12.85,123.059c-1.211,1.04-7.918,1.297-13.098,0.849c-0.334-0.029-0.649-0.057-0.964-0.095
					c-0.839-0.086-1.612-0.191-2.299-0.315c-0.344-0.067-0.668-0.134-0.964-0.2c-0.296-0.076-0.572-0.153-0.811-0.238
					c-3.997-1.383-6.22-151.258-6.22-151.258h65.679c0,0,14.576,69.352,15.063,76.163
					C484.379,336.28,466.111,391.656,463.401,394.031z"/>
				<g>
					<path style="fill:#2C3560;" d="M411.85,300.106c-0.296,18.077-0.21,36.164,0.248,54.241
						c0.429,17.028,1.202,34.066,2.308,51.074c-0.334-0.029-0.649-0.057-0.964-0.095c-0.591-9.063-1.087-18.116-1.479-27.178
						c-0.792-18.068-1.202-36.145-1.24-54.222c-0.038-17.896,0.305-35.783,1.011-53.66c-0.716,0.305-1.45,0.563-2.213,0.754
						c-0.401,9.997-0.677,19.985-0.839,29.992c-0.305,18.077-0.219,36.155,0.238,54.232c0.42,16.608,1.164,33.197,2.223,49.768
						c-0.344-0.067-0.668-0.134-0.964-0.2c-0.553-8.586-1.011-17.181-1.393-25.766c-0.792-18.068-1.202-36.145-1.24-54.222
						c-0.029-17.867,0.305-35.735,1.011-53.583c-0.439,0.076-0.887,0.143-1.345,0.191c-0.611,0.057-0.601-0.897,0-0.954
						c0.534-0.048,1.059-0.143,1.574-0.258c0.114-0.067,0.239-0.095,0.372-0.076c5.438-1.316,9.692-5.8,10.675-11.419
						c0.105-0.601,1.03-0.344,0.925,0.258c-0.84,4.77-3.921,8.71-8.051,10.827C412.308,279.911,412.022,290.004,411.85,300.106z"/>
					<path style="fill:#2C3560;" d="M457.821,346.067c-0.448,8.767-1.965,17.448-3.997,25.976
						c-1.622,6.773-3.558,13.46-5.562,20.128c-0.305-0.124-0.601-0.258-0.878-0.391c2.299-7.613,4.493-15.254,6.22-23.019
						c1.908-8.586,3.224-17.324,3.377-26.138c0.143-8.528-0.963-16.98-2.814-25.299c-1.822-8.223-4.283-16.274-6.697-24.335
						c-2.385-7.937-4.731-15.912-6.401-24.04c-0.353,0.181-0.715,0.343-1.107,0.458c0.115,2.642,0.172,5.294,0.143,7.937
						c-0.01,0.62-0.964,0.62-0.954,0c0.086-7.135-0.353-14.271-1.297-21.349c-0.076-0.611,0.878-0.601,0.954,0
						c0.553,4.121,0.906,8.261,1.116,12.411c2.042-0.696,3.32-2.614,3.768-4.684c0.544-2.557-0.057-5.171-0.62-7.66
						c-0.134-0.601,0.782-0.849,0.916-0.248c0.639,2.795,1.269,5.724,0.525,8.566c-0.42,1.583-1.316,3.043-2.595,4.026
						c0.21,1.011,0.429,2.022,0.649,3.034c1.86,8.271,4.341,16.379,6.773,24.488c2.442,8.118,4.837,16.274,6.477,24.602
						C457.477,328.953,458.25,337.491,457.821,346.067z"/>
				</g>
			</g>
		</g>
		<g>
			<g>
				<path style="fill:#FFA785;" d="M535.794,144.682c-0.16-1.788,1.719-3.159,1.99-5.02c0.271-1.862-0.788-5.947,1.203-6.509
					c2.224-0.627,3.344,5.619,3.344,5.619s10.347-7.368,11.897-5.844c1.338,1.315-5.832,7.28-5.832,7.28s3.164,2.642,1.515,6.411
					c-1.53,3.497-6.802,4.426-6.802,4.426L535.794,144.682z"/>
				<path style="fill:#FFA785;" d="M456.422,160.708c19.858,5.73,39.945,10.153,40.758,10.104
					c0.814-0.049,37.485-25.527,38.614-26.13l7.315,6.363c-0.225,1.11-34.619,39.474-42.657,41.016
					c-8.935,1.715-40.78-7.037-40.78-7.037L456.422,160.708z"/>
				<path style="fill:#2C3560;" d="M456.422,160.708c14.437,3.952,36.033,8.58,36.033,8.58s2.354,9.661-0.568,27.604l-31.825-9.012
					L456.422,160.708z"/>
			</g>
			<g>
				<g>
					<g>
						<g>
							<g>
								<g>
									<g>
										<g>
											<g>
												<path style="fill:#2C3560;" d="M471.448,261.128c-15.44,7.52-68.887,3.701-70.118,1.276
													c-1.003-1.978,3.491-28.036,8.185-53.329c1.394-7.529,2.807-14.984,4.092-21.72c2.953-15.422,5.268-27.052,5.268-27.052
													l12.797-3.473l12.305-0.073l12.441,3.947c0,0,1.859,11.466,4.266,26.651c1.076,6.736,2.251,14.2,3.418,21.72
													C468.103,234.641,472.031,260.845,471.448,261.128z"/>
											</g>
										</g>
									</g>
								</g>
							</g>
						</g>
					</g>
				</g>
			</g>
			<path style="fill:#00A8CC;" d="M464.101,209.075h-54.587c1.394-7.529,2.807-14.984,4.092-21.72h47.076
				C461.759,194.091,462.935,201.555,464.101,209.075z"/>
			<g>
				<g>
					<g>
						<path style="fill:#FFA785;" d="M408.415,259.314c0.891,0.454,0.802,1.741,2.192,2.611c1.389,0.869,4.217,0.993,5.083,1.935
							c0.866,0.942,5.371,9.229,3.454,10.075c-1.917,0.846-3.398-4.178-3.534-4.2c-0.136-0.022,2.057,6.149,0.418,6.684
							c-1.639,0.535-3.229-6.867-3.413-6.859c-0.184,0.008,0.587,5.859-1.032,5.998s-1.794-5.611-1.958-5.67
							c-0.164-0.059-0.286,4.334-1.424,4.205c-1.138-0.129-1.027-5.626-1.273-5.715c-0.246-0.089-2.799,0.143-4.473-0.948
							c-1.674-1.091-2.568-5.321-1.505-6.454C402.013,259.842,407.256,258.723,408.415,259.314z"/>
					</g>
				</g>
				<path style="fill:#FFA785;" d="M418.873,160.304c-13.612,6.63-28.389,41.865-28.632,50.851
					c-0.16,5.89,10.249,52.047,10.249,52.047l8.885-2.649c0,0-2.754-46.997-2.815-47.728c-0.061-0.731,9.864-20.642,9.864-20.642
					L418.873,160.304z"/>
				<path style="fill:#2C3560;" d="M418.873,160.304c-17.915,5.575-31.555,45.397-31.555,45.397s9.742,6.82,24.965,7.429
					l10.187-28.494L418.873,160.304z"/>
			</g>
			<g>
				<path style="fill:#005082;" d="M457.541,163.784c-0.11-0.603-1.03-0.348-0.92,0.254c1.169,6.386,2.187,12.798,3.055,19.232
					c0.082,0.605,1.001,0.348,0.92-0.254C459.729,176.582,458.71,170.17,457.541,163.784z"/>
			</g>
		</g>
		<g>
			<path style="fill:#FF891B;" d="M457.072,110.868c-0.986-2.406-2.692-4.554-4.949-5.845c-3.644-2.085-8.141-1.734-12.305-1.201
				c-4.358,0.558-8.816,1.287-12.611,3.501c-3.794,2.215-6.389,6.255-6.212,10.645c-1.245,0.155-2.224,1.24-2.591,2.44
				c-0.368,1.2-0.232,2.493,0.003,3.726c1.014,5.332,3.855,10.299,7.938,13.876c5.442,4.767,14.692,1.957,20.921-1.72
				c6.23-3.678,10.454-10.549,10.922-17.768C458.356,115.926,458.058,113.274,457.072,110.868z"/>
			<path style="fill:#FFA785;" d="M426.687,139.152c0,0,4.849,9.201,5.424,21.667c2.807,5.559,10.408,4.431,12.103-0.71
				c-0.276-4.739,0.473-6.994,1.924-8.681c0.118-0.142,0.237-0.268,0.363-0.402c0.087-0.095,0.173-0.181,0.268-0.268
				c0.173-0.173,0.37-0.331,0.56-0.505c1.309-1.128,2.957-2.192,4.825-3.982c2.192-2.081,3.777-4.896,4.273-9.256
				c0.008-0.063,0.016-0.126,0.024-0.189c0.008-0.11,0.016-0.213,0.024-0.323c0.008-0.047,0.008-0.095,0.016-0.142
				c0.347-4.171-0.229-9.706-2.121-17.306c-1.963-7.884-21.391-10.171-26.279,0.181
				C426.079,123.509,426.687,139.152,426.687,139.152z"/>
			<path style="fill:#FF891B;" d="M454.418,116.601c-0.324,1.039-1.028,1.933-1.879,2.612c-0.851,0.679-1.845,1.157-2.862,1.543
				c-5.175,1.964-11.198,1.557-16.062-1.086c0.289,0.919-0.033,2.029-0.613,2.798s-1.546,1.232-2.509,1.205
				c0.534,2.472,0.409,5.099-0.449,7.478c-0.858,2.379-2.396,4.509-4.385,6.072c-0.707-2.786-1.328-5.41-1.607-8.27
				c-0.279-2.86-0.111-5.808,0.894-8.5c1.331-3.563,4.108-6.512,7.466-8.299c3.358-1.787,7.26-2.448,11.051-2.146
				c2.312,0.184,4.621,0.727,6.659,1.833C452.162,112.947,453.476,114.482,454.418,116.601z"/>
			<g>
				<g>
					<g>
						<path d="M440.732,133.976c0.04,0.681,0.624,1.2,1.305,1.16c0.681-0.04,1.2-0.624,1.16-1.305c-0.04-0.68-0.624-1.2-1.305-1.16
							C441.211,132.712,440.692,133.296,440.732,133.976z"/>
						<path style="fill:#FFFFFF;" d="M441.944,133.567c0.015,0.249,0.229,0.439,0.478,0.425c0.249-0.015,0.439-0.229,0.424-0.478
							c-0.015-0.249-0.229-0.439-0.478-0.424C442.119,133.104,441.929,133.318,441.944,133.567z"/>
					</g>
					<g>
						<path d="M450.262,133.415c0.04,0.68,0.624,1.2,1.305,1.16c0.68-0.04,1.2-0.624,1.159-1.305c-0.04-0.68-0.624-1.2-1.305-1.16
							C450.741,132.15,450.222,132.734,450.262,133.415z"/>
						<path style="fill:#FFFFFF;" d="M451.475,133.005c0.015,0.249,0.229,0.439,0.478,0.425c0.249-0.015,0.439-0.229,0.425-0.478
							c-0.015-0.249-0.229-0.439-0.478-0.425C451.65,132.542,451.46,132.756,451.475,133.005z"/>
					</g>
					<g>
						<path style="fill:#8E4136;" d="M444.419,139.408c0.334-0.618,1.388-0.081,2.594-0.081s2.26-0.537,2.594,0.081
							c0.423,0.782-0.618,2.726-2.594,2.726C445.037,142.134,443.996,140.19,444.419,139.408z"/>
						<path style="fill:#C16B5B;" d="M444.588,140.701c0.378-0.048,0.78-0.079,1.206-0.079c1.404,0,2.606,0.288,3.167,0.702
							c-0.461,0.458-1.115,0.809-1.947,0.809C445.826,142.134,444.985,141.431,444.588,140.701z"/>
						<path style="fill:#FFFFFF;" d="M447.013,140.005c-1.077,0-1.992-0.255-2.326-0.837c0.477-0.192,1.352,0.159,2.326,0.159
							c0.975,0,1.85-0.35,2.326-0.159C449.005,139.75,448.09,140.005,447.013,140.005z"/>
					</g>
					<path style="fill:#CC7656;" d="M448.928,136.846c0.07-0.004,0.131-0.054,0.148-0.125c0.243-1.069-0.135-1.405-0.495-1.498
						c-0.365-0.093-0.789,0.024-1.26,0.354c-0.073,0.051-0.09,0.152-0.039,0.225c0.052,0.072,0.154,0.089,0.225,0.039
						c0.388-0.273,0.723-0.376,0.993-0.306c0.323,0.083,0.411,0.458,0.262,1.115c-0.02,0.086,0.035,0.173,0.122,0.193
						C448.898,136.846,448.914,136.847,448.928,136.846z"/>
				</g>
				<path d="M453.383,128.336c-1.537-0.689-3.334-0.633-4.784,0.259c-0.355,0.218-0.523,0.723-0.286,1.09
					c0.229,0.356,0.71,0.52,1.09,0.286c0.146-0.09,0.296-0.166,0.449-0.243c0.015-0.007,0.012-0.006,0.022-0.01
					c0.027-0.011,0.055-0.022,0.083-0.032c0.06-0.022,0.12-0.043,0.181-0.062c0.162-0.052,0.327-0.094,0.495-0.126
					c0.042-0.008,0.311-0.075,0.104-0.02c0.069-0.018,0.152-0.015,0.223-0.02c0.159-0.01,0.319-0.012,0.479-0.005
					c0.085,0.004,0.17,0.013,0.255,0.019c0.009,0.001,0.012,0.001,0.019,0.001c0.012,0.002,0.029,0.006,0.054,0.01
					c0.157,0.027,0.313,0.063,0.466,0.108c0.082,0.024,0.163,0.051,0.242,0.08c0.032,0.012,0.063,0.024,0.095,0.036
					c0.006,0.003,0.003,0.001,0.01,0.005c0.002,0.001,0.005,0.001,0.007,0.002c0.002,0.001,0.005,0.002,0.007,0.003
					c-0.003-0.001-0.002-0.001-0.005-0.002c0.378,0.166,0.867,0.117,1.081-0.288C453.853,129.078,453.789,128.518,453.383,128.336z"
					/>
				<path d="M444.061,128.336c-1.537-0.689-3.334-0.633-4.783,0.259c-0.355,0.218-0.523,0.723-0.286,1.09
					c0.229,0.356,0.71,0.52,1.09,0.286c0.146-0.09,0.296-0.166,0.449-0.243c0.015-0.007,0.012-0.006,0.021-0.01
					c0.028-0.011,0.055-0.022,0.083-0.032c0.06-0.022,0.12-0.043,0.181-0.062c0.162-0.052,0.328-0.094,0.495-0.126
					c0.042-0.008,0.311-0.075,0.104-0.02c0.069-0.018,0.151-0.015,0.223-0.02c0.159-0.01,0.319-0.012,0.479-0.005
					c0.085,0.004,0.17,0.013,0.255,0.019c0.009,0.001,0.012,0.001,0.019,0.001c0.012,0.002,0.029,0.006,0.054,0.01
					c0.157,0.027,0.313,0.063,0.466,0.108c0.082,0.024,0.162,0.051,0.242,0.08c0.032,0.012,0.063,0.024,0.095,0.036
					c0.006,0.003,0.003,0.001,0.01,0.005c0.002,0.001,0.005,0.001,0.007,0.002c0.002,0.001,0.005,0.002,0.007,0.003
					c-0.003-0.001-0.002-0.001-0.005-0.002c0.378,0.166,0.867,0.117,1.081-0.288C444.531,129.078,444.467,128.518,444.061,128.336z"
					/>
			</g>
			<g>
				<path style="fill:#008BA8;" d="M437.182,138.831c0,0,5.381-0.678,7.475-0.798c1.914-0.11,7.638-0.029,7.638-0.029
					c2.001,0,3.525-1.372,3.525-3.744l0,0c0-2.372-1.622-4.294-3.623-4.294h-15.247c-2.001,0-3.623,1.923-3.623,4.294l0,0
					C433.326,136.632,435.181,138.831,437.182,138.831z"/>
				<path style="fill:#00A8CC;" d="M439.695,138.555c0,0,5.707-0.559,7.624-0.559s7.624,0.559,7.624,0.559
					c2.001,0,3.623-1.923,3.623-4.294l0,0c0-2.372-1.622-4.294-3.623-4.294h-15.247c-2.001,0-3.623,1.923-3.623,4.294l0,0
					C436.072,136.632,437.694,138.555,439.695,138.555z"/>
				<path style="fill:#1FBFE0;" d="M441.002,137.819c0,0,4.728-0.463,6.317-0.463c1.589,0,6.317,0.463,6.317,0.463
					c1.658,0,3.002-1.593,3.002-3.558l0,0c0-1.965-1.344-3.558-3.002-3.558h-12.634c-1.658,0-3.002,1.593-3.002,3.558l0,0
					C438,136.226,439.344,137.819,441.002,137.819z"/>
				<path style="fill:#008BA8;" d="M425.613,132.133c1.715-0.054,6.627-0.109,8.342-0.163c0.879-0.028,1.719,0.858,1.679,1.823
					c-0.042,1.011-0.738,1.793-1.679,1.823c-1.715,0.054-6.627,0.109-8.342,0.163c-0.879,0.028-1.719-0.858-1.679-1.823
					C423.975,132.945,424.671,132.163,425.613,132.133z"/>
			</g>
			<g>
				<path style="fill:#FFA785;" d="M422.495,139.758c1.765,1.869,4.398,2.248,5.881,0.848c1.483-1.401,1.255-4.051-0.509-5.92
					c-1.765-1.869-4.398-2.249-5.881-0.848C420.502,135.238,420.73,137.889,422.495,139.758z"/>
				<path style="fill:#CC7656;" d="M423.119,134.736c0.679-0.412,1.615-0.45,2.502-0.099c0.442,0.174,0.768,0.399,1,0.687
					c0.305,0.381,0.413,0.876,0.281,1.291c-0.117,0.372-0.394,0.626-0.639,0.85c-0.177,0.162-0.344,0.315-0.433,0.492
					c-0.137,0.271-0.077,0.635,0.14,0.848c0.216,0.212,0.582,0.263,0.85,0.12c0.158-0.085,0.353-0.025,0.437,0.132
					c0.084,0.157,0.025,0.353-0.132,0.437c-0.172,0.092-0.362,0.143-0.554,0.154c-0.383,0.023-0.775-0.11-1.052-0.382
					c-0.417-0.408-0.528-1.081-0.264-1.601c0.142-0.281,0.371-0.49,0.573-0.675c0.202-0.186,0.393-0.361,0.46-0.57
					c0.067-0.209,0-0.48-0.17-0.692c-0.068-0.085-0.159-0.16-0.259-0.232c-0.32,0.016-0.715,0.138-0.904,0.371
					c-0.213,0.263-0.299,0.631-0.225,0.96c0.039,0.174-0.07,0.346-0.244,0.386c-0.017,0.004-0.035,0.006-0.053,0.008
					c-0.155,0.009-0.298-0.095-0.333-0.251c-0.119-0.525,0.013-1.089,0.353-1.509c0.127-0.156,0.29-0.266,0.463-0.358
					c-0.542-0.112-1.066-0.053-1.461,0.187c-0.488,0.296-0.828,1.006-0.536,1.551c0.084,0.157,0.025,0.353-0.132,0.437
					c-0.157,0.084-0.352,0.025-0.437-0.132C421.923,136.351,422.276,135.248,423.119,134.736z"/>
			</g>
		</g>
	</g>
	<g>
		<g>
			<g>
				<g>
					<g>
						<path style="fill:#005082;" d="M310.93,424.118l-0.04,0.261c-0.039,0.387-0.087,0.759-0.158,1.162
							c-0.079,0.332-0.142,0.695-0.213,1.067h-39.868c0,0-0.063-0.411-0.063-1.059c0.016-0.332,0.039-0.719,0.111-1.17
							c0.016-0.079,0.024-0.174,0.055-0.261c0.435-2.244,2.07-5.342,7.515-6.338c0.261-0.063,0.537-0.095,0.838-0.134h0.024
							c0.427-0.063,0.853-0.103,1.312-0.142c0.15-0.008,0.3-0.024,0.45-0.032c10.906-0.854,15.734-4.512,15.734-4.512
							s6.322,1.264,12.249,0c0,0,0.695,1.154,1.312,3.161c0.095,0.34,0.197,0.703,0.292,1.091c0.024,0.071,0.039,0.15,0.063,0.237
							c0.039,0.15,0.071,0.324,0.103,0.498c0.008,0.048,0.024,0.111,0.024,0.158c0,0.039,0.024,0.055,0.024,0.087
							c0.158,0.822,0.277,1.723,0.324,2.695C311.064,421.897,311.056,422.98,310.93,424.118z"/>
						<path style="fill:#FFFFFF;" d="M292.669,413.283c0.136-0.125,0.314-0.217,0.504-0.209c0.201,0.009,0.348,0.085,0.504,0.209
							c0.109,0.087,0.22,0.173,0.33,0.258c0.526,0.405,1.06,0.799,1.604,1.179c0.155,0.108,0.276,0.239,0.327,0.426
							c0.047,0.171,0.026,0.398-0.072,0.549c-0.195,0.303-0.648,0.484-0.975,0.256c-0.758-0.53-1.498-1.086-2.223-1.661
							c-0.133-0.106-0.209-0.342-0.209-0.504C292.46,413.612,292.538,413.404,292.669,413.283z"/>
						<path style="fill:#FFFFFF;" d="M289.847,414.552c0.267-0.245,0.748-0.302,1.008,0c0.522,0.607,1.104,1.158,1.735,1.651
							c0.101,0.076,0.202,0.152,0.306,0.225c0.155,0.109,0.276,0.238,0.328,0.426c0.047,0.171,0.026,0.398-0.072,0.549
							c-0.194,0.301-0.649,0.486-0.975,0.256c-0.857-0.606-1.644-1.302-2.329-2.099c-0.125-0.145-0.209-0.307-0.209-0.504
							C289.638,414.882,289.716,414.673,289.847,414.552z"/>
						<path style="fill:#FFFFFF;" d="M287.252,415.473c0.136-0.125,0.314-0.217,0.504-0.209c0.175,0.008,0.391,0.064,0.504,0.209
							l1.616,2.078c0.121,0.156,0.209,0.297,0.209,0.504c0,0.175-0.078,0.383-0.209,0.504c-0.136,0.125-0.314,0.217-0.504,0.209
							c-0.175-0.008-0.391-0.063-0.504-0.209l-1.616-2.078c-0.121-0.156-0.209-0.297-0.209-0.504
							C287.044,415.802,287.121,415.594,287.252,415.473z"/>
						<path style="fill:#FFFFFF;" d="M284.375,416.145c0.342-0.181,0.774-0.088,0.975,0.255c0.36,0.616,0.72,1.232,1.08,1.849
							c0.188,0.322,0.085,0.795-0.255,0.975c-0.341,0.181-0.774,0.088-0.975-0.255c-0.36-0.616-0.72-1.232-1.08-1.848
							C283.931,416.798,284.035,416.325,284.375,416.145z"/>
						<path style="fill:#FFFFFF;" d="M310.896,424.384c-0.046,0.376-0.092,0.76-0.169,1.151c-0.069,0.345-0.13,0.706-0.215,1.074
							h-39.859c0,0-0.069-0.407-0.069-1.059c0.015-0.338,0.038-0.729,0.115-1.167H310.896z"/>
					</g>
					<g>
						<path style="fill:#005082;" d="M366.791,413.268l0.035,0.261c0.07,0.383,0.129,0.753,0.173,1.16
							c0.017,0.341,0.058,0.707,0.094,1.084l-38.277,11.152c0,0-0.176-0.377-0.357-0.999c-0.078-0.323-0.163-0.702-0.221-1.154
							c-0.007-0.08-0.026-0.174-0.02-0.266c-0.211-2.276,0.493-5.708,5.442-8.187c0.233-0.134,0.489-0.241,0.767-0.363l0.023-0.007
							c0.392-0.18,0.791-0.337,1.22-0.503c0.142-0.05,0.282-0.107,0.424-0.156c10.231-3.87,13.844-8.733,13.844-8.733
							s6.423-0.554,11.76-3.426c0,0,0.99,0.913,2.144,2.668c0.186,0.3,0.386,0.62,0.586,0.965c0.043,0.062,0.08,0.133,0.127,0.21
							c0.08,0.133,0.159,0.291,0.238,0.449c0.021,0.043,0.054,0.1,0.067,0.145c0.011,0.038,0.038,0.047,0.047,0.077
							c0.382,0.745,0.747,1.577,1.065,2.496C366.299,411.099,366.594,412.14,366.791,413.268z"/>
						<path style="fill:#FFFFFF;" d="M346.228,407.974c0.095-0.158,0.241-0.297,0.425-0.341c0.195-0.047,0.358-0.016,0.542,0.059
							c0.129,0.053,0.259,0.104,0.389,0.156c0.618,0.242,1.241,0.47,1.87,0.684c0.179,0.061,0.332,0.152,0.434,0.317
							c0.093,0.151,0.136,0.375,0.085,0.547c-0.103,0.345-0.487,0.646-0.864,0.518c-0.876-0.297-1.742-0.623-2.598-0.973
							c-0.158-0.064-0.296-0.27-0.341-0.425C346.12,408.348,346.136,408.126,346.228,407.974z"/>
						<path style="fill:#FFFFFF;" d="M343.874,409.982c0.188-0.31,0.634-0.499,0.967-0.282c0.671,0.437,1.384,0.803,2.127,1.1
							c0.118,0.045,0.237,0.09,0.357,0.131c0.179,0.062,0.331,0.151,0.433,0.317c0.093,0.151,0.136,0.375,0.085,0.547
							c-0.102,0.344-0.488,0.648-0.864,0.518c-0.992-0.342-1.943-0.79-2.823-1.363c-0.161-0.105-0.286-0.236-0.341-0.425
							C343.766,410.356,343.782,410.134,343.874,409.982z"/>
						<path style="fill:#FFFFFF;" d="M341.641,411.592c0.095-0.158,0.241-0.296,0.425-0.341c0.17-0.041,0.393-0.048,0.542,0.059
							l2.133,1.543c0.16,0.116,0.284,0.227,0.341,0.425c0.049,0.168,0.033,0.39-0.059,0.542c-0.095,0.158-0.241,0.296-0.425,0.341
							c-0.17,0.041-0.393,0.048-0.542-0.059l-2.133-1.543c-0.16-0.116-0.284-0.227-0.341-0.425
							C341.532,411.966,341.548,411.744,341.641,411.592z"/>
						<path style="fill:#FFFFFF;" d="M339.066,413.042c0.277-0.269,0.718-0.301,1.008-0.027c0.518,0.491,1.036,0.982,1.554,1.472
							c0.271,0.257,0.304,0.74,0.027,1.007c-0.277,0.269-0.718,0.301-1.008,0.027c-0.518-0.491-1.036-0.982-1.554-1.472
							C338.823,413.792,338.79,413.309,339.066,413.042z"/>
						<path style="fill:#FFFFFF;" d="M366.833,413.533c0.061,0.374,0.124,0.755,0.16,1.152c0.03,0.351,0.072,0.714,0.094,1.092
							l-38.268,11.149c0,0-0.18-0.371-0.363-0.997c-0.08-0.328-0.167-0.711-0.216-1.152L366.833,413.533z"/>
					</g>
					<path style="fill:#99553C;" d="M361.697,403.13c0,0-11.433-50.994-11.997-68.328c-0.618-18.962,6.096-55.854,5.272-75.705
						h-36.215c0,0,3.819,56.572,6.303,75.21c2.524,18.936,12.385,45.634,24.878,72.249
						C349.938,406.556,355.877,406.556,361.697,403.13z"/>
					<path style="fill:#99553C;" d="M294.039,259.097c-4.285,41.073,2.415,153.973,2.415,153.973s6.713,1.729,12.249,0
						c0,0,9.105-96.938,19.483-153.973H294.039z"/>
				</g>
			</g>
			<g>
				<path style="fill:#2C3560;" d="M354.786,329.563c-2.498,1.012-5.348,1.727-8.282,2.21c-0.306,0.056-0.622,0.111-0.938,0.149
					c-1.096,0.167-2.191,0.306-3.296,0.418c-0.325,0.028-0.65,0.065-0.975,0.093c-9.341,0.817-18.078-0.084-18.078-0.084
					l-1.058-28.226c-1.031,10.232-1.031,28.709-1.031,28.709c-1.393,0.223-2.869,0.399-4.401,0.539
					c-0.306,0.028-0.613,0.056-0.919,0.074c-12.284,0.947-27.316-0.613-27.316-0.613s2.136-54.474,4.113-72.645l63.453-1.086
					C360.441,276.045,354.786,329.563,354.786,329.563z"/>
				<g>
					<g>
						<path style="fill:#005082;" d="M353.44,274.708c-1.151,0.102-2.293,0.056-3.408-0.121c-0.167,4.42-0.353,8.839-0.566,13.249
							c-0.39,8.013-0.854,16.016-1.411,24.011c-0.455,6.648-0.975,13.287-1.551,19.925c-0.306,0.056-0.622,0.111-0.938,0.149
							c0.278-3.231,0.548-6.462,0.798-9.693c0.622-7.994,1.161-15.989,1.625-23.992c0.455-7.939,0.827-15.877,1.114-23.825
							c-0.576-0.13-1.142-0.297-1.699-0.492c-0.696,4.373-1.105,8.793-1.383,13.212c-0.483,7.809-0.529,15.636-0.947,23.444
							c-0.39,7.316-1.114,14.633-2.804,21.764c-0.325,0.028-0.65,0.065-0.975,0.093c0.966-3.993,1.625-8.05,2.08-12.126
							c0.863-7.762,1.021-15.58,1.281-23.379c0.26-7.809,0.631-15.626,1.866-23.352c-3.352-1.439-6.156-4.113-7.651-7.595
							c-0.232-0.548,0.566-1.012,0.798-0.464c2.331,5.432,7.874,8.765,13.77,8.264C354.034,273.733,354.025,274.662,353.44,274.708z
							"/>
						<path style="fill:#005082;" d="M323.626,289.573c0.074,0.585-0.854,0.585-0.929,0c-0.399-3.101-0.622-6.221-0.687-9.341
							c-0.659,0.065-1.235-0.065-1.727-0.362c-0.474,4.197-0.901,8.393-1.281,12.6c-0.706,7.753-1.253,15.524-1.653,23.305
							c-0.297,5.859-0.501,11.727-0.622,17.595c-0.306,0.028-0.613,0.056-0.919,0.074c0.047-2.479,0.111-4.958,0.186-7.437
							c0.26-7.79,0.668-15.561,1.235-23.333c0.576-7.809,1.309-15.599,2.191-23.37c0-0.046,0.019-0.083,0.037-0.121
							c-1.161-1.3-1.745-3.473-1.996-4.94c-0.529-3.166-0.176-6.388,0.204-9.545c0.065-0.594,0.993-0.594,0.928,0
							c-0.325,2.72-0.65,5.478-0.381,8.217c0.139,1.365,0.446,2.73,0.966,4.002c0.473,1.133,1.374,2.6,2.813,2.386
							c-0.065-5.543,0.399-11.086,1.374-16.555c0.102-0.594,1.003-0.344,0.891,0.241
							C322.697,271.756,322.493,280.734,323.626,289.573z"/>
					</g>
				</g>
			</g>
		</g>
		<g>
			<g>
				<path style="fill:#99553C;" d="M224.009,142.557c-0.177-1.738-2.227-2.701-2.829-4.43c-0.603-1.729-0.345-5.829-2.351-5.998
					c-2.242-0.189-2.158,5.987-2.158,5.987s-11.248-5.13-12.449-3.388c-1.036,1.504,6.917,5.88,6.917,5.88s-2.535,3.109-0.264,6.406
					c2.108,3.06,7.318,2.974,7.318,2.974L224.009,142.557z"/>
				<path style="fill:#FF891B;" d="M222.468,154.098c0,0-4.882-2.724-5.381-4.217c-0.499-1.494,3.865-7.806,5.942-8.454
					c2.076-0.647,6.598,3.527,6.598,3.527L222.468,154.098z"/>
				<path style="fill:#FFA41B;" d="M319.069,161.388c-25.997,2.636-51.896,5.156-52.686,5.079
					c-0.79-0.077-34.817-22.425-36.981-22.88c-3.084-0.649-9.336,8.526-9.231,10.104c0.214,3.219,34.767,31.604,40.012,32.653
					c8.683,1.737,42.853,1.917,42.853,1.917L319.069,161.388z"/>
			</g>
			<g>
				<g>
					<g>
						<g>
							<g>
								<g>
									<g>
										<g>
											<g>
												<path style="fill:#FFA41B;" d="M357.722,261.42c-0.181,2.641-57.733,4.139-66.504-1.234
													c-1.057-0.648,15.844-95.462,15.844-95.462l12.25-3.404l11.961,0.512l12.326,3.833
													C343.599,165.665,357.904,258.764,357.722,261.42z"/>
											</g>
										</g>
									</g>
								</g>
							</g>
						</g>
					</g>
				</g>
			</g>
			<ellipse style="fill:#FF891B;" cx="323.108" cy="197.587" rx="13.874" ry="20.711"/>
			<g>
				<path style="fill:#99553C;" d="M263.637,156.959c0,0-3.683,2.178-6.942,0.281c-3.204-1.864-3.544-4.739-3.544-4.739
					s-5.072,2.601-6.103,1.873c-1.031-0.729,4.376-4.253,4.376-4.253s-6.643,0.648-6.829-0.433c-0.186-1.08,6.855-2.29,6.855-2.29
					s-6.893-2.481-6.392-3.885c0.5-1.404,9.026,1.634,9.026,1.634s-2.964-5.728-1.77-6.382c1.719-0.941,8.728,9.085,8.834,8.984
					c0.106-0.101,2.388-5.513,4.383-4.213c1.925,1.255-0.742,2.99-0.642,5.732C264.936,150.543,265.874,155.236,263.637,156.959z"/>
				<path style="fill:#FF891B;" d="M260.927,162.291c0,0-3.18-2.579-3.297-4.15c-0.116-1.571,5.197-6.865,7.369-6.981
					c2.172-0.116,5.527,5.042,5.527,5.042L260.927,162.291z"/>
				<path style="fill:#FFA41B;" d="M343.599,165.665c14.669,31.438-41.66,37.825-46.536,36.625
					c-13.14-3.235-37.241-38.718-37.505-39.999c-0.465-2.259,8.589-9.161,10.482-8.494c1.675,0.59,31.61,29.886,33.156,30.211
					C304.742,184.334,343.599,165.665,343.599,165.665z"/>
			</g>
			<g>
				<path style="fill:#FF891B;" d="M309.058,187.176c-6.826-5.187-13.424-10.673-19.769-16.438c-1.783-1.62-3.545-3.262-5.287-4.925
					c-0.432-0.412-1.09,0.243-0.656,0.657c6.258,5.971,12.776,11.668,19.535,17.064c1.885,1.505,3.789,2.985,5.709,4.444
					C309.065,188.339,309.528,187.533,309.058,187.176z"/>
				<path style="fill:#FF891B;" d="M333.927,171.496c-7.296,3.427-14.65,6.732-22.059,9.907c-2.155,0.923-4.314,1.836-6.477,2.738
					c-0.544,0.226-0.305,1.125,0.247,0.895c7.512-3.131,14.972-6.388,22.372-9.776c2.133-0.977,4.262-1.964,6.385-2.962
					C334.936,172.044,334.465,171.243,333.927,171.496z"/>
				<path style="fill:#FF891B;" d="M344.251,185.226c-9.503,7.318-20.473,12.672-32.089,15.663c-3.281,0.845-6.61,1.498-9.967,1.962
					c-0.589,0.081-0.339,0.976,0.247,0.895c11.954-1.654,23.551-5.766,33.89-11.989c2.903-1.748,5.703-3.663,8.388-5.73
					C345.187,185.668,344.725,184.861,344.251,185.226z"/>
				<path style="fill:#FF891B;" d="M277.6,185.136c-5.48-6.604-10.839-13.309-16.069-20.114c-0.359-0.467-1.166-0.005-0.801,0.469
					c5.278,6.867,10.683,13.637,16.214,20.302C277.325,186.253,277.979,185.593,277.6,185.136z"/>
			</g>
		</g>
		<g>
			<g>
				<path style="fill:#2C3560;" d="M341.296,122.554c-0.621-1.046-1.972-1.744-3.091-1.268c-0.172-3.085-3.015-5.645-5.917-6.703
					c-2.903-1.059-6.072-1-9.161-1.069c-3.089-0.07-6.307-0.32-8.967-1.891c-1.257-0.742-2.386-1.776-3.803-2.127
					c-1.515-0.376-3.16,0.119-4.4,1.068c-1.24,0.949-2.112,2.308-2.737,3.739c-2.106,4.828-1.428,10.759,1.713,14.987
					c0.902,1.214,1.988,2.295,2.75,3.601c0.921,1.579,1.33,3.424,2.329,4.954c1.759,2.694,5.022,3.959,8.144,4.74
					c5.681,1.422,11.298,1.919,17.109,1.2c3.095-5.55,6.264-11.345,6.633-17.689C341.968,124.883,341.917,123.6,341.296,122.554z"/>
				<path style="fill:#99553C;" d="M335.361,143.237c0,0-4.241,9.192-4.161,21.337c-2.443,5.547-9.889,4.84-11.8-0.069
					c0.025-4.62-0.818-6.773-2.315-8.339c-0.122-0.132-0.244-0.248-0.373-0.372c-0.089-0.088-0.178-0.167-0.274-0.247
					c-0.177-0.16-0.377-0.303-0.57-0.462c-1.33-1.029-2.986-1.979-4.894-3.623c-2.237-1.911-3.922-4.565-4.628-8.778
					c-0.011-0.061-0.022-0.122-0.033-0.183c-0.013-0.107-0.026-0.206-0.04-0.313c-0.01-0.046-0.013-0.091-0.023-0.137
					c-0.551-4.036-0.275-9.445,1.174-16.93c1.504-7.764,20.269-10.983,25.551-1.171
					C335.149,128.002,335.361,143.237,335.361,143.237z"/>
				<path style="fill:#2C3560;" d="M305.772,124.588c0.503,1.211,1.904,1.744,3.178,2.052c5.655,1.366,11.76,0.788,17.058-1.615
					c-0.016,1.067,0.564,2.124,1.472,2.683c0.909,0.559,2.113,0.601,3.059,0.106c-0.688,5.185,1.622,10.662,5.816,13.789
					c0.604-1.928,0.884-3.908,0.996-5.925c0.335-6.066-1.837-12.432-6.495-16.333c-4.488-3.76-11.14-4.825-16.487-2.439
					C310.793,118.499,307.795,121.237,305.772,124.588z"/>
				<g>
					<g>
						<g>
							<path d="M321.445,138.927c-0.004,0.663-0.545,1.198-1.209,1.194c-0.664-0.004-1.198-0.545-1.194-1.209
								c0.004-0.663,0.545-1.198,1.209-1.194C320.914,137.722,321.449,138.264,321.445,138.927z"/>
							<path style="fill:#FFFFFF;" d="M320.245,138.591c-0.001,0.243-0.2,0.439-0.443,0.437c-0.243-0.002-0.439-0.2-0.437-0.443
								c0.001-0.243,0.2-0.439,0.443-0.437C320.051,138.15,320.247,138.348,320.245,138.591z"/>
						</g>
						<g>
							<path d="M312.152,138.87c-0.004,0.663-0.545,1.198-1.209,1.194c-0.663-0.004-1.198-0.545-1.194-1.209
								c0.004-0.663,0.545-1.198,1.209-1.194C311.622,137.665,312.157,138.206,312.152,138.87z"/>
							<path style="fill:#FFFFFF;" d="M310.953,138.534c-0.001,0.243-0.2,0.439-0.443,0.437c-0.243-0.001-0.439-0.2-0.437-0.443
								c0.002-0.243,0.2-0.439,0.443-0.437C310.759,138.093,310.955,138.291,310.953,138.534z"/>
						</g>
						<g>
							<path style="fill:#8E4136;" d="M318.139,144.395c-0.357-0.584-1.354-0.008-2.526,0.054c-1.172,0.062-2.224-0.406-2.517,0.212
								c-0.371,0.781,0.741,2.618,2.661,2.516C317.678,147.077,318.59,145.134,318.139,144.395z"/>
							<path style="fill:#C16B5B;" d="M318.041,145.661c-0.369-0.027-0.763-0.036-1.176-0.015c-1.364,0.072-2.518,0.414-3.042,0.845
								c0.472,0.421,1.125,0.73,1.934,0.687C316.911,147.117,317.693,146.391,318.041,145.661z"/>
							<path style="fill:#FFFFFF;" d="M315.648,145.109c1.047-0.055,1.923-0.35,2.218-0.932c-0.473-0.162-1.305,0.224-2.253,0.274
								c-0.947,0.05-1.816-0.246-2.269-0.035C313.699,144.963,314.602,145.164,315.648,145.109z"/>
						</g>
						<path style="fill:#6B3623;" d="M313.625,142.137c-0.068,0-0.13-0.046-0.15-0.114c-0.291-1.026,0.059-1.372,0.405-1.481
							c0.35-0.11,0.768-0.017,1.243,0.28c0.073,0.046,0.095,0.143,0.05,0.217c-0.047,0.073-0.145,0.094-0.217,0.049
							c-0.392-0.245-0.722-0.329-0.981-0.246c-0.31,0.097-0.376,0.467-0.197,1.097c0.023,0.083-0.025,0.17-0.108,0.194
							C313.655,142.135,313.639,142.137,313.625,142.137z"/>
					</g>
					<path d="M308.859,134.093c1.458-0.749,3.208-0.786,4.663,0.007c0.356,0.194,0.545,0.676,0.334,1.045
						c-0.205,0.358-0.664,0.541-1.045,0.334c-0.146-0.08-0.296-0.146-0.449-0.213c-0.015-0.006-0.012-0.005-0.021-0.008
						c-0.027-0.009-0.055-0.018-0.082-0.027c-0.059-0.018-0.119-0.035-0.179-0.051c-0.16-0.042-0.323-0.074-0.487-0.097
						c-0.041-0.006-0.306-0.057-0.102-0.014c-0.068-0.014-0.148-0.007-0.217-0.008c-0.155-0.002-0.311,0.005-0.466,0.02
						c-0.083,0.008-0.164,0.021-0.247,0.031c-0.009,0.001-0.012,0.001-0.018,0.002c-0.012,0.003-0.028,0.007-0.052,0.012
						c-0.151,0.035-0.301,0.077-0.447,0.129c-0.078,0.028-0.155,0.058-0.232,0.09c-0.03,0.013-0.06,0.027-0.09,0.04
						c-0.006,0.003-0.003,0.002-0.01,0.005c-0.002,0.001-0.004,0.001-0.007,0.002c-0.002,0.001-0.005,0.002-0.007,0.003
						c0.003-0.002,0.002-0.001,0.005-0.002c-0.359,0.18-0.836,0.158-1.065-0.225C308.44,134.839,308.473,134.291,308.859,134.093z"
						/>
					<path d="M317.919,133.615c1.458-0.749,3.208-0.786,4.663,0.007c0.356,0.194,0.545,0.675,0.334,1.045
						c-0.205,0.358-0.664,0.541-1.045,0.334c-0.146-0.08-0.296-0.146-0.449-0.213c-0.015-0.006-0.012-0.005-0.022-0.008
						c-0.027-0.009-0.054-0.018-0.082-0.027c-0.059-0.018-0.119-0.036-0.179-0.051c-0.16-0.042-0.323-0.074-0.487-0.097
						c-0.041-0.006-0.306-0.057-0.102-0.014c-0.068-0.014-0.148-0.007-0.217-0.008c-0.155-0.002-0.311,0.005-0.466,0.02
						c-0.083,0.008-0.164,0.021-0.247,0.031c-0.009,0.001-0.012,0.001-0.018,0.002c-0.012,0.003-0.028,0.007-0.052,0.012
						c-0.151,0.035-0.301,0.077-0.447,0.129c-0.078,0.027-0.155,0.057-0.232,0.09c-0.03,0.013-0.06,0.026-0.09,0.04
						c-0.006,0.003-0.003,0.001-0.01,0.005c-0.002,0.001-0.004,0.001-0.007,0.002c-0.002,0.001-0.005,0.002-0.007,0.003
						c0.003-0.002,0.002-0.001,0.005-0.002c-0.359,0.18-0.837,0.158-1.065-0.225C317.501,134.361,317.534,133.813,317.919,133.615z"
						/>
				</g>
				<g>
					<path style="fill:#008BA8;" d="M326.34,144.292c0,0-5.381-0.678-7.475-0.798c-1.915-0.11-7.638-0.029-7.638-0.029
						c-2.001,0-3.525-1.372-3.525-3.744l0,0c0-2.372,1.622-4.294,3.623-4.294h15.247c2.001,0,3.623,1.923,3.623,4.294l0,0
						C330.196,142.094,328.341,144.292,326.34,144.292z"/>
					<path style="fill:#00A8CC;" d="M323.826,144.016c0,0-5.707-0.559-7.624-0.559s-7.624,0.559-7.624,0.559
						c-2.001,0-3.623-1.923-3.623-4.294l0,0c0-2.372,1.622-4.294,3.623-4.294h15.247c2.001,0,3.623,1.923,3.623,4.294l0,0
						C327.449,142.094,325.827,144.016,323.826,144.016z"/>
					<path style="fill:#1FBFE0;" d="M322.52,143.28c0,0-4.729-0.463-6.317-0.463c-1.589,0-6.317,0.463-6.317,0.463
						c-1.658,0-3.002-1.593-3.002-3.558l0,0c0-1.965,1.344-3.558,3.002-3.558h12.634c1.658,0,3.002,1.593,3.002,3.558l0,0
						C325.522,141.687,324.178,143.28,322.52,143.28z"/>
					<path style="fill:#008BA8;" d="M334.712,137.595c-1.715-0.054-3.431-0.109-5.146-0.163c-0.879-0.028-1.719,0.858-1.679,1.823
						c0.042,1.012,0.738,1.793,1.679,1.823c1.715,0.054,3.431,0.109,5.146,0.163c0.879,0.028,1.719-0.858,1.679-1.823
						C336.35,138.406,335.654,137.625,334.712,137.595z"/>
				</g>
				<g>
					<path style="fill:#99553C;" d="M339.467,143.611c-1.619,1.907-4.159,2.411-5.673,1.126c-1.514-1.285-1.428-3.873,0.191-5.78
						c1.619-1.907,4.159-2.411,5.673-1.126C341.172,139.116,341.086,141.704,339.467,143.611z"/>
					<path style="fill:#6B3623;" d="M338.603,138.763c-0.681-0.366-1.593-0.355-2.437,0.032c-0.421,0.192-0.727,0.427-0.936,0.719
						c-0.277,0.386-0.356,0.873-0.207,1.269c0.133,0.356,0.415,0.588,0.664,0.794c0.18,0.148,0.35,0.289,0.446,0.455
						c0.147,0.256,0.107,0.614-0.093,0.831c-0.199,0.217-0.552,0.285-0.82,0.16c-0.158-0.074-0.344-0.006-0.418,0.151
						c-0.073,0.157-0.006,0.344,0.151,0.418c0.172,0.081,0.359,0.12,0.547,0.121c0.373,0.002,0.748-0.147,1.003-0.425
						c0.384-0.418,0.457-1.078,0.175-1.57c-0.152-0.265-0.385-0.458-0.591-0.627c-0.206-0.17-0.401-0.331-0.476-0.531
						c-0.076-0.2-0.025-0.467,0.129-0.681c0.062-0.086,0.146-0.164,0.24-0.239c0.312-0.001,0.702,0.098,0.898,0.314
						c0.221,0.245,0.323,0.598,0.268,0.922c-0.029,0.171,0.086,0.333,0.257,0.362c0.017,0.003,0.034,0.005,0.051,0.005
						c0.151,0.001,0.285-0.107,0.311-0.261c0.089-0.517-0.068-1.058-0.421-1.449c-0.131-0.145-0.296-0.244-0.468-0.324
						c0.521-0.137,1.033-0.106,1.43,0.107c0.49,0.263,0.857,0.935,0.601,1.48c-0.073,0.157-0.006,0.344,0.151,0.418
						c0.157,0.073,0.344,0.006,0.418-0.151C339.848,140.27,339.448,139.217,338.603,138.763z"/>
				</g>
			</g>
		</g>
	</g>
</g>
</svg>
